<svg width="266" height="265" viewBox="0 0 266 265" fill="none" xmlns="http://www.w3.org/2000/svg">
<g style="mix-blend-mode:hard-light">
<path d="M217.428 232.236C217.847 231.329 218.2 230.474 218.511 229.721C220.034 226.052 222.121 221.018 222.238 215.074C222.32 210.85 221.414 207.236 220.684 204.328L214.806 180.936C214.431 179.45 214.008 177.762 214.006 176.928C214.007 176.683 214.041 176.201 214.076 175.739C214.208 173.875 214.409 171.067 213.71 167.868C213.077 164.969 212.21 163.196 211.288 161.312C210.878 160.468 210.367 159.422 209.66 157.85C209.381 157.226 209.295 157.015 209.119 156.58C208.863 155.941 208.465 154.953 207.48 152.632C204.736 146.151 203.6 143.465 201.946 141.175C197.669 135.257 192.213 132.713 189.884 131.625L189.621 131.5C187.781 130.626 180.408 126.247 173.833 120.485C176.467 117.96 180.293 112.526 182.492 109.72C189.185 101.173 192.342 97.1249 193.688 87.9701C194.294 85.006 193.793 81.3988 193.874 77.0287C194.324 70.9858 195.242 67.4315 194.319 61.6424L194.139 60.5371C193.975 59.5349 193.82 58.5873 193.711 57.7294C193.566 56.5526 193.336 55.3437 193.036 54.1195C192.254 50.3934 191.861 49.3433 189.581 46.1679C187.02 42.4076 186.366 39.8662 182.406 37.5321C177.964 34.556 172.797 30.4779 167.991 28.1693C166.59 27.497 165.285 27.6711 163.884 26.9722C163.263 26.6636 162.645 26.3754 162.018 26.0983C160.637 25.3643 158.361 24.3405 155.394 23.6876C148.002 22.0609 141.261 21.8481 135.067 26.3556C134.05 26.8534 133.111 27.2423 132.002 27.5608C130.992 27.8482 130.443 27.9062 130.117 27.9138C129.784 27.9264 129.424 27.9069 128.811 27.8647C119.651 30.4753 117.942 31.0966 110.126 39.2181C99.1671 50.5795 96.012 59.0031 95.0196 61.8887L95.185 62.3908L93.4774 66.7316C93.4045 67.0928 93.3393 67.4491 93.2791 67.8131L93.1653 68.3903C92.9253 69.6612 92.7576 70.9347 92.6817 72.1821C92.3142 76.198 92.4028 80.4268 92.9474 84.7493C93.5815 90.3491 101.025 102.986 93.6679 102.826C91.0209 103.335 85.1551 103.442 81.7861 104.978C81.7229 104.964 81.6598 104.95 81.5967 104.936C79.3978 104.492 77.3464 104.491 75.3107 104.93C71.654 105.726 69.3333 107.731 68.4256 108.517C68.4011 108.538 68.3766 108.559 68.3535 108.574C66.7674 108.774 64.77 109.129 62.6257 110.001C57.5541 112.055 54.5835 115.749 52.8016 117.952L18.7904 160.145L15.982 163.644C13.9759 166.234 11.4101 170.044 10.5785 175.116C10.2026 177.396 10.262 179.712 10.7097 181.948L10.3199 183.299C10.0512 184.219 9.36904 186.597 9.69209 189.58C6.91487 191.524 4.98287 194.348 4.2369 197.738C3.5451 200.882 3.04963 208.788 13.3964 214.222C15.7097 215.439 18.8301 216.748 22.9388 218.228C29.4701 220.578 38.694 223.415 49.7544 226.478C51.5807 227.833 53.6832 228.805 55.9495 229.304L156.441 251.418C158.455 251.861 160.502 251.914 162.491 251.598C175.536 253.853 186.607 255.455 194.64 256.243C199.479 256.719 203.225 256.901 206.091 256.811C208.284 256.737 210.048 256.51 211.658 256.083C217.02 254.662 220.895 250.77 222.017 245.669C222.456 243.707 223.254 237.403 217.428 232.236Z" fill="url(#paint0_linear_130_30)"/>
</g>
<path d="M217.428 232.236C217.847 231.329 218.2 230.474 218.511 229.721C220.034 226.052 222.121 221.018 222.238 215.074C222.32 210.85 221.414 207.236 220.684 204.328L214.806 180.936C214.431 179.45 214.008 177.762 214.006 176.928C214.007 176.683 214.041 176.201 214.076 175.739C214.208 173.875 214.409 171.067 213.71 167.868C213.077 164.969 212.21 163.196 211.288 161.312C210.878 160.468 210.367 159.422 209.66 157.85C209.381 157.226 209.295 157.015 209.119 156.58C208.863 155.941 208.465 154.953 207.48 152.632C204.736 146.151 203.6 143.465 201.946 141.175C197.669 135.257 192.213 132.713 189.884 131.625L189.621 131.5C187.781 130.626 180.408 126.247 173.833 120.485C176.467 117.96 180.293 112.526 182.492 109.72C189.185 101.173 192.342 97.1249 193.688 87.9701C194.294 85.006 193.793 81.3988 193.874 77.0287C194.324 70.9858 195.242 67.4315 194.319 61.6424L194.139 60.5371C193.975 59.5349 193.82 58.5873 193.711 57.7294C193.566 56.5526 193.336 55.3437 193.036 54.1195C192.254 50.3934 191.861 49.3433 189.581 46.1679C187.02 42.4076 186.366 39.8662 182.406 37.5321C177.964 34.556 172.797 30.4779 167.991 28.1693C166.59 27.497 165.285 27.6711 163.884 26.9722C163.263 26.6636 162.645 26.3754 162.018 26.0983C160.637 25.3643 158.361 24.3405 155.394 23.6876C148.002 22.0609 141.261 21.8481 135.067 26.3556C134.05 26.8534 133.111 27.2423 132.002 27.5608C130.992 27.8482 130.443 27.9062 130.117 27.9138C129.784 27.9264 129.424 27.9069 128.811 27.8647C119.651 30.4753 117.942 31.0966 110.126 39.2181C99.1671 50.5795 96.012 59.0031 95.0196 61.8887L95.185 62.3908L93.4774 66.7316C93.4045 67.0928 93.3393 67.4491 93.2791 67.8131L93.1653 68.3903C92.9253 69.6612 92.7576 70.9347 92.6817 72.1821C92.3142 76.198 92.4028 80.4268 92.9474 84.7493C93.5815 90.3491 101.025 102.986 93.6679 102.826C91.0209 103.335 85.1551 103.442 81.7861 104.978C81.7229 104.964 81.6598 104.95 81.5967 104.936C79.3978 104.492 77.3464 104.491 75.3107 104.93C71.654 105.726 69.3333 107.731 68.4256 108.517C68.4011 108.538 68.3766 108.559 68.3535 108.574C66.7674 108.774 64.77 109.129 62.6257 110.001C57.5541 112.055 54.5835 115.749 52.8016 117.952L18.7904 160.145L15.982 163.644C13.9759 166.234 11.4101 170.044 10.5785 175.116C10.2026 177.396 10.262 179.712 10.7097 181.948L10.3199 183.299C10.0512 184.219 9.36904 186.597 9.69209 189.58C6.91487 191.524 4.98287 194.348 4.2369 197.738C3.5451 200.882 3.04963 208.788 13.3964 214.222C15.7097 215.439 18.8301 216.748 22.9388 218.228C29.4701 220.578 38.694 223.415 49.7544 226.478C51.5807 227.833 53.6832 228.805 55.9495 229.304L156.441 251.418C158.455 251.861 160.502 251.914 162.491 251.598C175.536 253.853 186.607 255.455 194.64 256.243C199.479 256.719 203.225 256.901 206.091 256.811C208.284 256.737 210.048 256.51 211.658 256.083C217.02 254.662 220.895 250.77 222.017 245.669C222.456 243.707 223.254 237.403 217.428 232.236Z" fill="white"/>
<path d="M194.684 238.641C200.41 238.45 207.243 238.58 211.269 233.754C213.317 231.296 214.455 228.196 215.607 225.254C216.878 221.994 217.915 218.62 217.776 215.078C217.637 211.634 216.587 208.25 215.756 204.927C214.885 201.462 214.013 198.004 213.142 194.54C212.272 191.075 211.4 187.617 210.529 184.152C209.715 180.91 208.914 177.763 209.123 174.395C209.28 171.9 209.398 169.452 208.493 167.066C207.838 165.331 206.901 163.695 206.129 162.011C204.418 158.32 202.965 154.51 201.354 150.777C200.608 149.043 199.894 147.253 198.934 145.626C197.629 143.404 195.541 141.62 193.396 140.251C191.018 138.732 188.359 137.727 185.972 136.213C185.37 135.829 184.776 135.439 184.185 135.035C184.039 134.933 183.894 134.831 183.748 134.729C183.675 134.678 183.596 134.625 183.523 134.574C183.553 134.595 183.777 134.756 183.577 134.614C183.207 134.35 182.845 134.088 182.477 133.818C180.909 132.66 179.375 131.447 177.868 130.204C173.652 126.718 169.627 123.001 165.691 119.198C164.455 118.001 163.235 116.793 162.015 115.586C161.917 116.664 161.82 117.743 161.73 118.824C172.922 111.18 182.978 99.6914 185.883 86.1384C186.489 83.3211 186.876 80.4486 187.058 77.5802C187.275 74.1097 187.473 70.5998 187.376 67.1232C187.277 63.464 186.701 59.903 186.173 56.2826C185.703 53.0673 185.135 49.9496 183.39 47.1475C181.746 44.522 179.625 42.3102 177.025 40.6236C176.639 40.3705 176.215 40.1932 175.832 39.9616C175.181 39.5732 175.828 39.8837 175.797 39.8629C175.667 39.757 175.504 39.6653 175.362 39.578C174.621 39.0925 173.861 38.6308 173.091 38.181C171.644 37.3369 170.161 36.5552 168.665 35.8054C165.486 34.2017 162.262 32.6723 159.056 31.1257C158.056 30.6393 157.024 30.1039 155.985 29.6999C151.492 27.9474 146.54 28.2873 142.442 30.918C141.839 31.3038 141.302 31.8024 140.662 32.1311C140.077 32.43 139.494 32.7222 138.891 32.9819C137.325 33.6607 135.704 34.2149 134.042 34.5992C132.72 34.9041 131.267 34.7876 130.029 35.321C128.591 35.9298 126.857 35.4641 125.313 35.6641C121.951 36.1016 119.561 38.2039 117.453 40.7117C115.229 43.369 112.869 45.8425 110.861 48.6945C107.937 52.8381 105.477 57.329 103.592 62.0443C103.036 63.4219 102.375 64.7693 101.786 66.1395C100.867 68.2781 103.389 70.1297 105.11 68.4899C105.181 68.4214 105.26 68.3478 105.331 68.2793C104.162 67.6715 102.987 67.0554 101.817 66.4476C101.701 66.8146 101.59 67.1897 101.488 67.5597C101.655 67.246 101.817 66.9242 101.984 66.6106C100.658 67.7975 100.641 69.7842 100.466 71.4699C100.26 73.4571 100.171 75.4559 100.231 77.4455C100.345 81.066 100.877 84.7014 101.661 88.2381C103.265 95.4735 106.198 102.434 110.105 108.725C110.47 107.705 110.834 106.685 111.206 105.666C111.093 105.698 110.99 105.724 110.878 105.755C111.553 105.904 112.228 106.052 112.903 106.201C112.803 106.081 112.702 105.968 112.594 105.853C112.02 105.215 110.777 105.13 110.092 105.631C109.182 106.293 108.179 106.458 107.104 106.726C106.119 106.965 105.134 107.204 104.139 107.426C102.273 107.85 100.397 108.222 98.5168 108.579C98.9374 109.884 99.3596 111.182 99.7803 112.487C101.982 111.942 104.178 111.388 106.38 110.842C108.62 110.284 107.959 106.564 105.642 106.839C103.627 107.075 101.596 107.133 99.5759 107.333C97.398 107.548 95.2406 107.956 93.0899 108.366C91.167 108.728 89.2293 109.093 87.3753 109.716C86.4063 110.042 85.4814 110.455 84.5743 110.914C83.8245 111.296 83.0549 111.8 82.2051 111.935C80.3304 112.237 78.5243 110.922 76.6256 111.142C75.5397 111.267 74.7785 111.892 73.9774 112.57C73.2296 113.198 72.4527 113.798 71.6499 114.357C70.9041 114.88 70.6064 114.926 69.643 115.037C68.6662 115.144 67.699 115.24 66.7342 115.42C64.7883 115.791 63.1739 116.662 61.7014 117.971C60.2822 119.229 59.1473 120.787 57.9617 122.257C56.5658 123.983 55.1751 125.716 53.7792 127.441C50.9926 130.9 48.206 134.359 45.4194 137.818C39.8461 144.735 34.2662 151.651 28.693 158.569C25.6094 162.39 22.3208 166.124 19.4647 170.121C16.8915 173.725 15.2765 178.675 18.4078 182.504C18.3184 181.986 18.2208 181.474 18.1314 180.957C18.1183 181.08 18.1104 181.212 18.0973 181.335C19.2265 180.981 20.3639 180.621 21.4932 180.267C21.3467 180.137 21.1935 180.005 21.0469 179.875C19.8256 178.8 18.0786 179.446 17.651 180.943C17.2884 182.208 16.9257 183.474 16.5616 184.747C16.1975 186.019 15.6879 187.316 16.0032 188.654C16.2294 189.601 16.9064 190.282 17.2074 191.176C17.5391 192.153 17.4255 193.242 17.7824 194.232C18.5344 196.325 20.3522 197.587 22.1261 198.762C24.2991 200.193 26.5484 201.501 28.8465 202.715C29.3153 201.444 29.7789 200.166 30.2478 198.895C26.8905 198.514 23.5229 198.179 20.1548 198.006C18.1107 197.899 16.0169 197.796 13.9817 198.063C12.5603 198.248 10.8594 198.588 10.1474 200.009C9.53294 201.24 10.0583 202.547 10.9741 203.45C12.7834 205.228 15.5531 206.209 17.8499 207.142C22.3156 208.952 26.9025 210.466 31.4878 211.924C38.7475 214.222 46.0773 216.298 53.4166 218.298C52.9847 218 52.5609 217.696 52.1289 217.398C53.4953 219.724 55.641 220.133 57.9674 220.645C60.4542 221.192 62.9409 221.74 65.421 222.285C74.0178 224.177 82.6078 226.067 91.2046 227.959C101.753 230.281 112.309 232.603 122.858 234.925C131.922 236.919 140.994 238.916 150.058 240.91C154.103 241.8 158.144 242.83 162.211 243.585C163.739 243.872 165.117 243.6 166.462 242.838C165.944 242.927 165.432 243.025 164.915 243.114C178.544 245.518 192.302 247.936 206.121 248.867C209.098 249.067 212.593 249.492 215.501 248.569C216.797 248.16 217.954 247.168 217.887 245.688C217.808 244.01 216.222 242.939 214.919 242.169C212.644 240.82 210.113 239.87 207.648 238.935C203.486 237.368 199.265 235.976 195.03 234.645C193.968 234.313 192.807 235.193 192.584 236.209C192.328 237.372 193.086 238.324 194.148 238.656C197.898 239.832 201.641 241.041 205.32 242.411C207.742 243.316 210.185 244.253 212.458 245.489C212.808 245.678 213.147 245.892 213.488 246.094C213.964 246.381 213.326 245.939 213.556 246.137C213.685 246.249 213.814 246.362 213.945 246.468C214.12 246.597 214.257 246.929 213.889 246.371C214.025 246.583 214.026 246.738 213.833 246.184C213.952 246.532 213.777 245.737 213.785 245.921C213.773 245.624 213.891 245.215 213.951 245.102C213.893 245.209 214.376 244.572 214.133 244.82C214.061 244.888 214.661 244.425 214.351 244.623C214.049 244.816 214.616 244.534 214.583 244.526C214.522 244.513 214.345 244.621 214.278 244.635C214.138 244.667 213.508 244.823 213.89 244.745C214.308 244.662 213.825 244.752 213.739 244.761C213.588 244.777 213.436 244.8 213.286 244.816C211.699 244.985 210.089 244.946 208.498 244.883C206.051 244.794 204.014 244.619 201.731 244.39C194.961 243.72 188.214 242.754 181.493 241.702C177.264 241.045 173.046 240.341 168.832 239.617C167.758 239.43 166.611 239.1 165.526 239.065C164.643 239.032 164.006 239.697 163.13 239.568C163.084 239.558 163.03 239.546 162.983 239.535C161.89 239.344 160.804 239.056 159.721 238.818C154.139 237.589 148.557 236.361 142.982 235.134C134.639 233.298 126.297 231.462 117.954 229.626C108.983 227.652 100.012 225.678 91.0406 223.704C83.5937 222.065 76.1534 220.428 68.7065 218.789C64.8627 217.943 61.0122 217.096 57.1684 216.25C56.7338 216.155 56.3684 216.095 56.027 215.768C55.725 215.484 55.5801 215.06 55.2714 214.774C54.7938 214.333 54.1232 214.227 53.5222 214.06C52.3456 213.738 51.1689 213.416 49.9937 213.087C47.9464 212.518 45.9006 211.941 43.8577 211.352C37.1681 209.424 30.4896 207.415 23.9328 205.075C22.062 204.404 19.7906 203.546 17.7604 202.644C17.0069 202.31 16.2578 201.956 15.5295 201.572C15.2277 201.414 14.9289 201.243 14.6383 201.067C14.5215 200.992 14.3981 200.916 14.2814 200.841C13.854 200.586 14.5678 201.101 14.2933 200.851C14.1416 200.712 13.975 200.578 13.8151 200.444C13.4068 200.102 14.0491 200.846 13.8009 200.413C13.9634 200.694 14.0806 201.021 13.9717 201.516C13.9305 201.703 13.8249 201.96 13.6153 202.181C13.6701 202.123 13.1683 202.524 13.5627 202.26C13.2662 202.461 13.2044 202.392 13.5309 202.309C13.6793 202.272 13.8359 202.229 13.9843 202.192C14.2744 202.115 13.5834 202.23 14.1498 202.172C14.3933 202.149 14.6397 202.112 14.8883 202.096C16.1228 201.996 17.3686 202.004 18.6085 202.039C22.2169 202.139 25.8162 202.504 29.4052 202.915C31.5929 203.165 32.9849 200.247 30.8065 199.095C28.8607 198.064 26.9563 196.972 25.0993 195.793C23.9188 195.042 22.0415 194.146 21.6376 192.669C21.4094 191.827 21.4469 190.924 21.212 190.08C21.0841 189.611 20.8753 189.158 20.6391 188.735C20.4744 188.432 20.1054 188.071 20.0245 187.738C20.0193 187.729 20.1586 187.255 20.2124 187.043C20.3797 186.442 20.5603 185.844 20.7276 185.243C21.0542 184.109 21.3807 182.976 21.7073 181.842C20.5781 182.196 19.4407 182.556 18.3114 182.91C18.4579 183.04 18.6112 183.172 18.7577 183.303C19.8034 184.22 22.0107 183.871 22.1536 182.235C22.2138 181.547 22.2994 180.935 21.9113 180.31C21.7198 180.002 21.4669 179.75 21.2932 179.424C20.963 178.791 20.8034 178.083 20.7997 177.367C20.7954 175.635 21.7972 173.949 22.7714 172.58C25.1699 169.197 27.9772 166.058 30.5809 162.825C35.9808 156.122 41.386 149.426 46.7859 142.723C52.0977 136.133 57.3329 129.478 62.7295 122.949C63.7123 121.764 64.775 120.47 66.2184 119.834C67.7175 119.169 69.4668 119.245 71.0558 118.999C72.1224 118.834 72.8746 118.537 73.759 117.926C74.5605 117.373 75.3343 116.787 76.0807 116.166C76.4135 115.896 76.7358 115.609 77.0686 115.339C77.5148 114.968 77.1204 115.231 77.3751 115.252C78.3471 115.326 79.3161 115.764 80.2771 115.919C82.7146 116.308 84.5498 115.549 86.6746 114.46C88.5131 113.526 90.559 113.051 92.5701 112.639C94.72 112.201 96.8804 111.779 99.0604 111.523C101.335 111.253 103.629 111.211 105.908 110.948C105.663 109.612 105.417 108.275 105.17 106.945C102.968 107.491 100.772 108.045 98.5702 108.591C97.495 108.859 96.926 110.17 97.2451 111.173C97.6202 112.335 98.7383 112.7 99.8271 112.498C101.816 112.122 103.803 111.726 105.781 111.271C108.002 110.764 110.493 110.465 112.354 109.108C111.522 109.037 110.691 108.959 109.852 108.887C109.96 109.002 110.061 109.115 110.161 109.235C110.648 109.791 111.53 109.859 112.186 109.681C112.298 109.649 112.402 109.623 112.514 109.592C113.811 109.239 114.282 107.612 113.615 106.533C110.143 100.94 107.547 94.8388 105.96 88.4483C104.385 82.1023 103.782 75.3534 105.06 68.9065C104.893 69.2201 104.731 69.5419 104.564 69.8556C105.351 69.1457 105.566 68.359 105.878 67.3554C106.528 65.2626 103.711 64.2431 102.363 65.5236C102.292 65.5921 102.213 65.6657 102.142 65.7342C103.252 66.5181 104.362 67.3021 105.465 68.0845C107.324 63.7768 109.126 59.4425 111.492 55.3795C113 52.7958 114.682 50.3133 116.579 47.9975C117.613 46.7392 118.761 45.5972 119.831 44.3677C120.807 43.2439 121.697 42.003 122.871 41.0628C123.884 40.2485 124.988 39.8186 126.289 39.7335C127.882 39.6285 129.556 40.0178 131.047 39.3859C132.199 38.8965 133.575 38.9189 134.838 38.6572C136.41 38.3302 137.952 37.8497 139.437 37.2512C140.775 36.7116 142.268 36.1361 143.458 35.3185C144.549 34.5634 145.562 33.8122 146.826 33.3545C147.847 32.9834 148.81 32.7817 149.879 32.7298C150.928 32.6801 151.355 32.7111 152.396 32.9191C152.792 32.9992 153.185 33.0927 153.58 33.2077C153.744 33.2578 153.902 33.3065 154.066 33.3566C154.433 33.4724 153.746 33.2162 154.19 33.3979C154.62 33.5767 155.041 33.7674 155.462 33.9863C157.414 34.9905 159.429 35.8965 161.406 36.8502C164.391 38.2851 167.386 39.7081 170.282 41.3265C171.693 42.1135 173.159 42.9339 174.48 43.8414C174.931 44.1508 174.617 43.9836 174.551 43.934C174.697 44.0362 174.86 44.1212 175.014 44.2181C175.26 44.3773 175.505 44.5364 175.734 44.7059C176.355 45.1649 176.937 45.6716 177.484 46.2124C179.316 48.0172 180.793 50.3186 181.44 52.823C182.241 55.9358 182.654 59.2506 183.002 62.4461C183.367 65.7855 183.448 69.1463 183.27 72.4995C183.111 75.5482 183.107 78.6241 182.597 81.6446C182.147 84.3561 181.627 87.0381 180.718 89.6414C179.67 92.6207 178.203 95.4658 176.529 98.1323C173.083 103.633 168.548 108.543 163.464 112.568C162.207 113.567 160.905 114.514 159.577 115.421C158.456 116.183 158.338 117.706 159.292 118.659C166.258 125.603 173.449 132.483 181.507 138.16C183.503 139.567 185.564 140.903 187.759 141.982C189.423 142.797 191.118 143.534 192.586 144.698C194.083 145.89 195.239 147.259 196.091 148.96C196.135 149.047 196.322 149.438 196.193 149.165C196.285 149.353 196.369 149.547 196.459 149.742C196.701 150.265 196.929 150.791 197.163 151.32C197.703 152.56 198.23 153.797 198.755 155.041C199.54 156.889 200.311 158.734 201.066 160.589C201.756 162.296 202.554 163.958 203.358 165.621C203.561 166.037 203.764 166.453 203.967 166.869C204.048 167.041 204.136 167.215 204.217 167.387C204.376 167.716 204.131 167.172 204.313 167.59C204.549 168.14 204.772 168.686 204.938 169.269C205.69 171.937 204.867 174.784 205.081 177.508C205.346 180.888 206.36 184.209 207.182 187.481C208.87 194.209 210.565 200.932 212.253 207.66C212.998 210.642 213.93 213.699 213.723 216.807C213.506 220.054 212.167 223.144 210.933 226.111C209.894 228.601 208.775 231.264 206.379 232.727C204.226 234.04 201.572 234.283 199.108 234.428C197.583 234.513 196.058 234.563 194.533 234.613C191.825 234.626 192.036 238.731 194.684 238.641Z" fill="black"/>
<path d="M161.117 119.222C161.298 119.1 161.477 118.986 161.658 118.864C160.607 118.325 159.555 117.785 158.503 117.245C158.517 117.5 158.538 117.757 158.552 118.012C158.558 118.049 158.557 118.084 158.562 118.127C159.711 117.588 160.859 117.049 162.008 116.509C161.809 116.332 161.608 116.162 161.409 115.985C161.214 115.788 160.978 115.652 160.713 115.58C160.459 115.461 160.189 115.415 159.904 115.436C159.63 115.439 159.376 115.51 159.142 115.647C158.891 115.739 158.682 115.89 158.504 116.096C158.402 116.241 158.3 116.387 158.198 116.533C158.026 116.867 157.948 117.221 157.962 117.602C157.994 117.778 158.025 117.953 158.057 118.128C158.171 118.468 158.359 118.762 158.62 119.009C158.819 119.186 159.02 119.356 159.219 119.533C159.365 119.635 159.511 119.737 159.657 119.84C159.831 119.906 160.001 119.964 160.175 120.031C160.362 120.044 160.54 120.062 160.726 120.075C161 120.072 161.254 120.002 161.487 119.864C161.66 119.811 161.8 119.716 161.928 119.582C162.083 119.483 162.195 119.354 162.286 119.199C162.413 119.065 162.491 118.9 162.531 118.72C162.65 118.466 162.696 118.195 162.674 117.91C162.66 117.655 162.64 117.398 162.626 117.143C162.62 117.106 162.621 117.072 162.616 117.029C162.597 116.667 162.488 116.335 162.295 116.033C162.103 115.731 161.84 115.491 161.526 115.324C160.892 114.988 160.069 115.003 159.461 115.409C159.28 115.531 159.101 115.645 158.92 115.767C158.686 115.904 158.499 116.087 158.363 116.324C158.183 116.537 158.073 116.779 158.018 117.061C157.945 117.332 157.947 117.606 158.021 117.875C158.047 118.14 158.14 118.385 158.293 118.614C158.403 118.751 158.515 118.88 158.632 119.018C158.906 119.268 159.22 119.435 159.581 119.515C159.767 119.528 159.945 119.546 160.132 119.559C160.483 119.524 160.815 119.415 161.117 119.222Z" fill="black"/>
<path d="M105.851 110.894C107.702 110.67 109.565 110.323 111.278 109.579C111.781 109.36 112.199 109.088 112.464 108.585C112.703 108.133 112.783 107.485 112.603 106.997C112.423 106.509 112.091 106.043 111.609 105.811C111.089 105.564 110.577 105.535 110.021 105.672C108.59 106.03 107.158 106.388 105.728 106.739C105.527 106.793 105.321 106.838 105.12 106.892C104.638 107.01 104.159 107.466 103.934 107.886C103.694 108.338 103.615 108.986 103.795 109.474C103.975 109.962 104.307 110.428 104.788 110.66C105.308 110.908 105.821 110.936 106.377 110.799C107.808 110.441 109.239 110.084 110.669 109.732C110.87 109.679 111.077 109.633 111.278 109.579C110.857 108.274 110.435 106.976 110.014 105.67C108.953 106.131 107.842 106.433 106.707 106.653C106.882 106.621 107.058 106.59 107.233 106.558C106.699 106.658 106.171 106.731 105.637 106.803C105.104 106.868 104.614 107.054 104.237 107.462C103.889 107.834 103.643 108.445 103.697 108.962C103.743 109.484 103.941 110.018 104.356 110.362C104.753 110.694 105.303 110.963 105.851 110.894Z" fill="black"/>
<path d="M72.026 144.478L73.9426 129.208L186.289 153.931L180.541 168.169" fill="#BADBE2"/>
<path d="M130.511 37.8583C128.534 38.6917 125.553 39.977 121.816 41.6359C114.806 44.7678 118.478 51.2951 112.241 55.3052C110.715 56.2869 109.381 57.6965 108.245 59.2617C106.598 61.2051 105.328 63.5678 104.469 66.2943C104.028 67.3747 103.691 68.3309 103.462 69.0516C103.895 66.7989 104.661 64.942 104.661 64.942C104.661 64.942 108.601 52.9622 117.69 43.5384C124.922 36.0257 125.809 38.0499 130.511 37.8583Z" fill="#292929"/>
<path d="M112.333 230.442C168.635 242.832 214.969 249.733 215.822 245.856C216.675 241.98 171.724 228.793 115.422 216.404C59.1196 204.014 12.786 197.113 11.9329 200.989C11.0799 204.866 56.0304 218.052 112.333 230.442Z" fill="#1E1E1E"/>
<path d="M170.289 236.188C179.336 236.223 188.385 236.252 197.432 236.287C200.263 236.546 203.079 235.722 205.32 233.979C207.052 232.636 208.985 231.085 210.076 230.043C212.374 227.85 210.647 224.933 213.265 221.633C215.882 218.34 214.876 214.313 214.876 214.313C211.414 198.546 209.159 190.607 207.629 186.289C206.686 183.629 205.566 181.105 205.65 177.38C205.73 173.802 206.842 172.505 205.931 169.733C205.199 167.518 204.065 167.065 202.95 164.171C202.187 162.194 201.952 160.426 201.874 159.252C199.043 151.445 195.439 146.104 191.52 143.335C183.416 137.613 179.249 134.383 169.072 126.2C162.986 121.308 158.532 116.767 155.852 113.851C142.832 111.455 131.437 108.008 118.417 105.613C111.517 107.823 105.799 109.158 101.729 109.979C92.7652 111.791 90.0443 111.48 85.914 113.178C83.9327 113.997 80.8801 115.575 78.4936 115.05C78.1326 114.97 76.9478 114.653 75.6726 115.13C74.8409 115.437 74.329 115.948 74.1608 116.108C72.2817 117.895 68.1022 118.797 66.3267 119.381C64.1054 120.112 61.1549 121.831 58.0902 126.203C45.9109 141.388 33.7249 156.571 21.5455 171.756C21.5455 171.756 18.9433 174.982 19.9347 179.076C20.9276 183.163 18.1408 185.094 19.2992 188.047C19.8432 189.428 20.9198 191.607 21.9142 193.521C23.7046 196.978 26.9933 198.277 28.2806 198.987C41.8758 206.479 49.5828 208.21 49.5828 208.21C62.2709 211.065 107.835 221.982 170.289 236.188Z" fill="#333333"/>
<path d="M194.518 237.742L196.366 237.749L197.291 237.75L197.389 237.75C197.418 237.749 197.341 237.747 197.409 237.755L197.672 237.77C197.844 237.787 198.018 237.79 198.193 237.794C199.587 237.827 200.991 237.625 202.319 237.195C203.646 236.772 204.91 236.125 206.025 235.291C207.061 234.503 208.004 233.75 208.98 232.949C209.467 232.551 209.949 232.146 210.43 231.712C210.674 231.492 210.901 231.29 211.169 231.026L211.593 230.566C211.721 230.398 211.844 230.222 211.958 230.051C212.418 229.332 212.664 228.531 212.804 227.833C212.945 227.128 213.007 226.497 213.09 225.926C213.248 224.798 213.532 223.886 214.073 223.052L214.548 222.392C214.76 222.096 214.985 221.809 215.155 221.482C215.544 220.86 215.814 220.176 216.047 219.498C216.477 218.114 216.624 216.682 216.506 215.275C216.473 214.917 216.437 214.573 216.359 214.192L216.148 213.241L215.752 211.444C215.21 209.033 214.661 206.62 214.092 204.21C212.943 199.395 211.752 194.584 210.323 189.805C209.962 188.611 209.581 187.413 209.17 186.222C208.755 185.017 208.305 183.88 207.953 182.772C207.226 180.566 206.973 178.338 207.219 176.072C207.32 174.945 207.644 173.825 207.754 172.335C207.798 171.595 207.733 170.809 207.563 170.085C207.391 169.368 207.149 168.684 206.82 168.015C206.489 167.354 206.078 166.766 205.744 166.279C205.404 165.783 205.124 165.336 204.873 164.854C204.378 163.889 204 162.804 203.735 161.715C203.603 161.168 203.507 160.614 203.435 160.052L203.388 159.628L203.343 159.036C203.347 158.89 203.253 158.743 203.213 158.608L203.12 158.363L202.951 157.92C202.51 156.736 202.017 155.569 201.501 154.412C200.446 152.105 199.232 149.847 197.744 147.726C196.251 145.624 194.478 143.615 192.274 142.071C190.267 140.649 188.262 139.219 186.291 137.762C182.332 134.859 178.464 131.828 174.614 128.752L168.861 124.129C166.982 122.573 165.147 120.971 163.361 119.309C161.575 117.647 159.843 115.934 158.163 114.17L157.538 113.507L157.187 113.128L156.875 112.793L156.716 112.625C156.657 112.577 156.628 112.487 156.535 112.494L154.281 112.068L150.678 111.338C145.874 110.331 141.088 109.179 136.288 108.032C131.487 106.884 126.662 105.752 121.788 104.778L119.96 104.425L119.038 104.25L118.587 104.165L118.358 104.121C118.282 104.118 118.21 104.159 118.136 104.177L117.435 104.402C116.266 104.775 115.095 105.127 113.926 105.473C111.582 106.155 109.213 106.791 106.838 107.361C102.076 108.521 97.3065 109.399 92.4235 110.09C91.1981 110.276 89.9416 110.476 88.663 110.777C87.3859 111.07 86.1032 111.517 84.9201 112.021C83.7666 112.517 82.6926 113.002 81.6271 113.322C80.5669 113.649 79.5434 113.809 78.7389 113.611C78.04 113.443 77.2038 113.357 76.3881 113.465C75.5672 113.565 74.7356 113.873 74.046 114.331C73.8733 114.447 73.7058 114.571 73.5449 114.697C73.3922 114.817 73.2144 114.989 73.127 115.067L72.8757 115.286L72.5844 115.495C72.1736 115.769 71.6908 116.02 71.1857 116.245C70.1606 116.7 69.0366 117.062 67.8754 117.402L66.0702 117.93C65.4232 118.131 64.763 118.392 64.1489 118.699C61.6643 119.925 59.6732 121.807 58.0367 123.83L57.4391 124.602L56.8957 125.352L55.7375 126.793L53.4212 129.675L34.9074 152.753L25.6472 164.29L21.0278 170.058L20.4487 170.779C20.1888 171.1 19.9964 171.401 19.8107 171.704C19.4444 172.317 19.1436 172.952 18.8918 173.618C18.3964 174.946 18.1522 176.406 18.2584 177.866C18.2903 178.231 18.3222 178.595 18.4054 178.95L18.5802 179.843C18.6755 180.334 18.6943 180.822 18.6553 181.318C18.5987 182.307 18.2035 183.307 17.8262 184.639C17.6442 185.307 17.4958 186.109 17.5614 186.957C17.6099 187.788 17.9407 188.674 18.1749 189.202C18.6903 190.394 19.2368 191.51 19.7967 192.628L20.6547 194.303C20.9945 194.924 21.3737 195.526 21.8195 196.08C22.7031 197.193 23.7852 198.104 24.9271 198.839C25.4988 199.203 26.0845 199.535 26.6575 199.829L27.4632 200.245L28.2711 200.682C29.3659 201.28 30.4637 201.865 31.5725 202.432C36.0051 204.711 40.5516 206.79 45.3073 208.461C46.4982 208.877 47.6884 209.265 48.9616 209.594L52.608 210.446L59.8167 212.116L88.6582 218.799L146.348 232.167C152.869 233.679 158.79 234.961 163.096 235.81C167.401 236.66 170.084 237.082 170.131 236.868L170.432 235.532C170.482 235.305 167.558 234.417 162.888 233.186C158.218 231.955 151.813 230.391 144.907 228.808L87.1741 215.606L58.3068 209.008L51.0937 207.358C48.7452 206.883 46.4806 206.091 44.1877 205.236C39.6346 203.505 35.2024 201.415 30.8693 199.13L29.252 198.262L28.4107 197.818L27.5983 197.401C26.5549 196.856 25.604 196.24 24.7821 195.485C23.9616 194.722 23.2998 193.876 22.7892 192.852C22.2219 191.767 21.671 190.672 21.1483 189.576C20.8903 189.028 20.6323 188.481 20.4077 187.941C20.2831 187.647 20.2345 187.454 20.1635 187.235L20.1027 186.907L20.0864 186.567C20.0771 185.653 20.5403 184.536 20.8806 183.244C21.0448 182.593 21.1629 181.897 21.1926 181.189C21.2075 180.484 21.1541 179.772 20.9953 179.092L20.8302 178.25C20.7977 177.983 20.7652 177.717 20.7543 177.448C20.7324 176.911 20.7803 176.375 20.8712 175.834C21.0769 174.772 21.4934 173.707 22.0885 172.787C22.3393 172.379 22.7771 171.887 23.1502 171.401L24.3032 169.952L28.9203 164.163L38.1544 152.584L56.6242 129.42C57.3906 128.453 58.1756 127.498 58.9235 126.52C59.6423 125.515 60.3754 124.604 61.2015 123.748C62.8454 122.042 64.7914 120.683 67.0204 120.045C68.1764 119.697 69.3992 119.363 70.5929 118.939C71.7895 118.502 72.995 118.024 74.1158 117.198C74.2559 117.103 74.3953 116.98 74.525 116.868C74.671 116.746 74.7873 116.631 74.8733 116.559C75.0645 116.391 75.2646 116.246 75.4819 116.118C75.9149 115.87 76.3928 115.737 76.905 115.703C77.1604 115.689 77.418 115.696 77.6779 115.726C77.9527 115.751 78.1607 115.825 78.5543 115.883C79.2784 116.001 79.9799 115.966 80.6464 115.867C83.3212 115.432 85.4855 114.037 87.718 113.351C89.9728 112.628 92.4163 112.353 94.8566 111.965C99.7595 111.214 104.623 110.196 109.418 108.952C111.818 108.331 114.203 107.65 116.566 106.916L118.291 106.37C118.368 106.338 118.45 106.314 118.534 106.347L118.912 106.416L119.82 106.588C121.032 106.812 122.233 107.056 123.441 107.3C128.262 108.291 133.057 109.43 137.861 110.565C142.665 111.699 147.478 112.821 152.335 113.778L154.156 114.13L155.065 114.301L155.415 114.364C155.462 114.375 155.512 114.372 155.548 114.401L155.644 114.506L156.861 115.79L158.159 117.12C159.902 118.884 161.7 120.583 163.551 122.238C165.396 123.885 167.3 125.488 169.234 127.021L175.033 131.626C178.908 134.687 182.836 137.696 186.849 140.576L189.866 142.726C190.885 143.448 191.895 144.112 192.774 144.929C194.57 146.544 196.042 148.515 197.333 150.579C198.605 152.667 199.684 154.867 200.614 157.139C200.847 157.702 201.071 158.277 201.288 158.85L201.443 159.263C201.501 159.381 201.474 159.473 201.5 159.64C201.529 159.955 201.566 160.264 201.608 160.582C201.79 161.827 202.107 163.06 202.557 164.232C202.999 165.408 203.639 166.544 204.358 167.544C204.71 168.049 205.028 168.546 205.274 169.084C205.513 169.62 205.704 170.188 205.815 170.766C206.059 171.92 205.835 173.097 205.615 174.317C205.396 175.538 205.271 176.807 205.296 178.06C205.32 179.32 205.487 180.569 205.786 181.791C206.086 183.006 206.506 184.185 206.931 185.344C207.797 187.651 208.521 189.997 209.206 192.363C210.568 197.099 211.742 201.892 212.88 206.691L214.53 213.908C215.122 216.246 214.824 218.844 213.534 220.887C213.209 221.376 212.799 221.867 212.482 222.415C212.147 222.951 211.918 223.545 211.736 224.15C211.372 225.359 211.36 226.625 211.094 227.8C210.965 228.388 210.73 228.946 210.373 229.422C210.017 229.89 209.55 230.292 209.089 230.702C208.16 231.514 207.206 232.285 206.244 233.055C205.762 233.432 205.275 233.829 204.79 234.185C204.292 234.538 203.768 234.85 203.219 235.115C202.119 235.651 200.935 236 199.727 236.141C198.518 236.316 197.281 236.142 196.046 236.179L192.346 236.178C186.095 236.176 180.57 236.25 176.61 236.374C172.651 236.498 170.257 236.678 170.254 236.881C170.255 237.099 172.965 237.302 177.352 237.462C181.764 237.606 187.822 237.719 194.518 237.742Z" fill="#1D1D1D"/>
<path d="M75.7203 150.372C75.0682 147.762 77.7273 146.188 78.7237 140.1C79.7435 133.841 78.1061 128.287 76.4418 124.417C78.3269 125.883 80.9519 128.318 82.9819 132.024C84.0119 133.904 83.9461 134.044 84.676 135.536C86.6496 139.594 91.1446 143.022 95.9141 142.719C98.5167 142.549 100.829 141.341 103.277 140.569C105.723 139.803 108.714 139.557 110.787 141.093C111.66 141.741 112.276 142.64 113.149 143.288C113.149 143.288 114.399 144.138 115.998 144.609C120.517 145.954 134.519 140.673 144.408 143.571C145.738 143.962 148.961 145.814 155.408 149.51C161.463 152.987 162.755 153.833 165.447 154.215C169.607 154.801 173.351 152.436 176.648 150.225C179.946 148.014 183.792 145.727 187.923 146.475C181.207 150.401 177.789 158.388 179.719 165.667C180.096 167.075 180.549 168.808 179.386 169.729C178.299 170.59 176.443 170.14 175.869 169.979C157.422 164.98 138.401 162.399 119.741 158.272C95.2023 152.865 77.3358 156.853 75.7203 150.372Z" fill="#272727"/>
<path d="M90.2251 112.739C94.7163 112.108 103.79 111.449 114.211 115.214C123.436 118.547 129.519 123.839 132.647 126.98C136.805 126.017 141.908 125.282 147.715 125.39C163.014 125.68 174.582 131.681 180.551 135.419C172.321 128.232 164.089 121.052 155.858 113.865L118.423 105.628C115.844 106.707 113.044 107.745 110.04 108.689C102.759 110.976 96.023 112.157 90.2251 112.739Z" fill="#202020"/>
<path d="M100.272 116.702C103.106 116.947 105.925 117.42 108.683 118.104L109.038 118.21L109.039 118.301C109.042 118.414 109.036 118.567 109.064 118.728C109.093 119.042 109.177 119.362 109.298 119.669C109.548 120.285 109.982 120.766 110.405 121.104C111.273 121.779 112.145 122.055 112.961 122.262C113.372 122.367 113.776 122.442 114.178 122.495L115.251 122.654C118.076 123.094 120.874 123.723 123.616 124.516C124.986 124.915 126.347 125.355 127.697 125.842C128.373 126.082 129.038 126.34 129.703 126.598L130.643 126.98C130.643 126.98 130.666 126.971 130.706 126.98C130.723 126.998 130.753 126.956 130.77 127.037C130.783 127.137 130.806 127.226 130.828 127.316C130.921 127.658 131.08 127.89 131.297 127.923L132.647 128.129C132.877 128.166 133.115 127.973 133.309 127.637L133.38 127.506C133.406 127.448 133.422 127.438 133.456 127.319C133.513 127.121 133.567 126.909 133.625 126.676C133.733 126.217 133.825 125.704 133.897 125.187L133.903 125.161L131.861 124.34L130.752 123.935C130.043 123.687 129.338 123.448 128.624 123.221C127.196 122.767 125.757 122.366 124.308 122.005C121.411 121.283 118.473 120.749 115.527 120.409C114.776 120.321 114.072 120.271 113.417 120.127C112.762 119.983 112.115 119.77 111.666 119.419C111.439 119.243 111.272 119.045 111.177 118.807C111.126 118.691 111.105 118.56 111.078 118.428C111.073 118.357 111.068 118.285 111.064 118.173C111.064 118.046 111.056 117.925 111.041 117.803C110.997 117.303 110.685 116.87 110.263 116.623C110.065 116.502 109.808 116.396 109.617 116.34C109.42 116.283 109.226 116.24 109.045 116.2C106.149 115.605 103.209 115.238 100.267 115.103C99.3307 115.058 98.6037 115.367 98.5852 115.77C98.5416 116.223 99.3101 116.616 100.272 116.702Z" fill="#1E1E1E"/>
<path d="M129.569 126.835C127.764 125.232 125.599 124.146 123.394 123.367C121.176 122.584 118.881 122.121 116.611 121.706C114.349 121.285 112.049 120.905 109.876 120.301C109.628 120.218 109.486 120.103 109.361 119.872C109.242 119.65 109.124 119.357 108.972 119.093C108.66 118.568 108.255 118.115 107.783 117.745C106.837 117.011 105.627 116.618 104.434 116.72C105.63 116.668 106.795 117.107 107.688 117.857C108.13 118.235 108.507 118.689 108.781 119.198C108.921 119.453 109.016 119.719 109.133 119.983C109.249 120.254 109.494 120.476 109.776 120.566C111.98 121.283 114.246 121.753 116.493 122.276C118.734 122.79 120.975 123.339 123.082 124.181C125.188 125.023 127.185 126.142 128.773 127.683C129.155 128.048 129.648 128.198 129.896 127.965C130.139 127.752 130.012 127.213 129.569 126.835Z" fill="black"/>
<path d="M134.152 128.271C136.711 129.255 139.375 129.315 141.867 129.072C144.369 128.816 146.715 128.253 148.994 127.9C151.263 127.523 153.476 127.435 155.722 127.677C157.947 127.915 160.144 128.475 162.211 129.336C162.912 129.624 163.613 129.589 163.806 129.19L164.406 127.962C164.615 127.553 164.069 126.879 163.212 126.571C158.465 124.861 153.271 124.608 148.512 125.691C146.147 126.187 143.872 126.843 141.548 127.179C139.24 127.505 136.838 127.53 134.597 126.757C133.899 126.519 133.235 126.513 133.024 126.866C132.795 127.237 133.279 127.939 134.152 128.271Z" fill="#1E1E1E"/>
<path d="M64.2683 152.534C60.4052 149.897 56.4289 147.424 52.3608 145.113C52.0181 144.918 51.5655 145.064 51.3488 145.444L50.6801 146.635C50.4508 147.04 50.5877 147.533 50.9644 147.7C55.1845 149.575 59.3501 151.634 63.4343 153.871C63.7599 154.048 64.1865 153.925 64.4145 153.59C64.6617 153.23 64.5984 152.754 64.2683 152.534Z" fill="#242424"/>
<path d="M64.3312 162.198C63.2055 155.656 59.1201 149.984 53.7008 146.935C58.4785 150.958 61.0121 156.961 60.8499 162.539C60.841 162.866 61.6596 163.096 62.6543 163.034C63.6409 162.978 64.3974 162.598 64.3312 162.198Z" fill="black"/>
<path d="M54.6339 177.95C53.345 176.132 51.5209 174.707 49.4241 173.916C48.8951 173.709 48.3127 173.552 47.7223 173.464C47.4237 173.42 47.1222 173.389 46.8149 173.384C46.6604 173.385 46.5075 173.379 46.3434 173.392L46.1096 173.404L45.7623 173.454C44.8078 173.587 43.9273 173.989 43.3234 174.536C42.7061 175.08 42.3043 175.727 42.4157 176.495C42.4569 176.658 42.449 176.79 42.5696 176.942L42.8779 177.389C43.0129 177.699 43.4915 177.944 43.8299 178.222C44.0099 178.36 44.2061 178.487 44.4024 178.614L44.9547 178.939C45.1858 179.067 45.4118 179.187 45.6444 179.308C46.5727 179.772 47.5081 180.139 48.4228 180.473L51.1071 181.428C51.5418 181.587 51.9616 181.749 52.3799 181.919L53.0457 182.205C53.0606 182.201 53.0376 182.21 52.996 182.208L52.8898 182.213C52.8186 182.218 52.7339 182.221 52.6441 182.215C52.2884 182.207 51.7983 182.141 51.2333 182.129C49.0541 182.063 46.8859 182.616 45.0016 183.694C44.0176 184.248 43.5643 185.13 43.8522 185.446L44.729 186.494C45.0378 186.842 45.8355 186.625 46.5799 186.172C47.9576 185.326 49.5981 184.846 51.2456 184.844C51.6472 184.834 52.1254 184.89 52.7045 184.87C52.8456 184.866 53.0015 184.859 53.1521 184.843L53.3904 184.811C53.4995 184.793 53.6019 184.774 53.7058 184.747C54.1184 184.656 54.5004 184.481 54.8191 184.242C55.4633 183.767 55.8947 183.049 55.9198 182.298C55.9546 181.535 55.5359 180.826 54.8943 180.397C54.7367 180.286 54.5613 180.191 54.3844 180.103L54.1169 179.981L53.9237 179.903C53.6904 179.817 53.4667 179.719 53.2386 179.64C52.7787 179.469 52.3211 179.319 51.8634 179.17L49.1608 178.33C48.2774 178.044 47.4119 177.742 46.5892 177.371C46.3871 177.271 46.182 177.184 45.9813 177.076L45.7792 176.976C45.7153 176.948 45.6595 176.914 45.5971 176.88C45.354 176.742 45.0909 176.6 44.8559 176.394C44.7376 176.263 44.8322 176.087 44.9241 175.989C45.0189 175.876 45.1271 175.767 45.2575 175.683C45.5081 175.5 45.819 175.394 46.1559 175.328C46.9842 175.194 47.9659 175.319 48.8434 175.632C50.6376 176.237 52.2608 177.428 53.4244 178.988C53.9626 179.695 54.5383 180.2 54.9255 180.033C55.3395 179.871 55.2995 178.874 54.6339 177.95Z" fill="#242424"/>
<path d="M173.968 220.211C174.965 222.911 177.122 227.381 181.676 230.633C189.303 236.075 200.464 235.805 210.086 230.044C209.554 230.901 208.591 232.217 206.999 233.402C205.483 234.526 204.017 235.073 203.068 235.34C200.963 235.606 198.81 235.833 196.61 236.022C186.378 236.91 176.807 236.836 168.052 236.171C170.022 230.851 171.992 225.53 173.968 220.211Z" fill="#1E1E1E"/>
<path d="M179.537 77.3819C179.459 77.4206 179.372 77.4646 179.279 77.5071C179.206 76.5941 179.095 75.6656 178.943 74.7349C179.157 75.5741 179.355 76.4587 179.537 77.3819Z" fill="#353535"/>
<path d="M117.254 82.8097C114.121 81.5384 113.026 80.015 112.646 78.7819C111.724 75.8037 114.484 73.0399 113.074 70.4658C112.5 69.4142 111.474 68.8521 110.694 68.5404C109.927 68.8412 109.162 69.1353 108.395 69.4361C108.665 68.4303 109.251 66.4987 110.319 64.61C110.183 64.9095 110.062 65.2335 109.946 65.5722C112.967 64.3588 114.279 64.7036 114.919 65.265C116.442 66.5953 114.832 69.7383 115.013 74.3967C115.145 77.9652 116.275 80.8561 117.254 82.8097Z" fill="#3B3B3A"/>
<path d="M119.981 101.288C119.701 102.306 119.287 103.007 118.775 103.265C118.601 103.353 118.393 103.378 118.142 103.337C116.556 103.093 115.507 103.051 114.817 103.095C114.683 103.101 114.568 103.111 114.461 103.122C113.703 103.222 113.541 103.417 113.541 103.417C111.358 99.2293 109.689 94.8391 108.561 90.5049C105.667 79.3203 106.432 68.5201 111.637 62.6078C111.644 62.6093 111.649 62.6174 111.654 62.6256C109.709 65.0009 108.761 68.0654 108.396 69.4359C109.163 69.1351 109.929 68.841 110.696 68.5403C110.78 68.5728 110.864 68.6053 110.946 68.6444C111.68 68.974 112.561 69.5253 113.076 70.4657C114.486 73.0397 111.726 75.8035 112.647 78.7817C113.028 80.0149 114.122 81.5383 117.256 82.8095C117.256 82.8095 116.989 89.7243 118.324 95.8562C118.855 98.314 119.681 99.9746 119.981 101.288Z" fill="#333333"/>
<path d="M124.337 117.828L148.683 120.129C146.877 120.916 145.035 121.611 143.182 122.199C139.256 123.445 135.818 124.034 133.389 124.34C131.698 123.393 129.487 122.038 127.114 120.177C126.163 119.435 125.242 118.651 124.337 117.828Z" fill="#5E5E5E"/>
<path d="M171.462 101.425C168.553 105.375 165.008 109.067 161.031 112.299C160.913 112.069 158.324 106.888 162.517 103.346C166.81 99.7285 167.071 96.3796 167.071 96.3796C170.114 92.4867 171.2 89.0812 171.622 86.686C172.253 83.1173 171.575 81.0058 172.998 78.2351C174.435 75.4324 177.023 73.8925 178.929 73.0362C181.371 82.1942 178.059 92.4688 171.462 101.425Z" fill="#393939"/>
<path d="M120.55 61.6896C120.626 60.9285 122.373 45.4104 135.569 39.4274C142.91 36.1017 149.847 37.5092 152.348 38.1507C155.201 38.5331 161.25 39.773 166.388 44.6112C173.408 51.2162 175.885 61.8397 173.103 72.1889C172.204 73.0564 171.298 73.9225 170.4 74.79L122.135 64.169L120.55 61.6896Z" fill="#110D09"/>
<path d="M158.044 101.899C145.806 100.341 133.578 98.7719 121.34 97.2143C121.245 96.6889 121.17 96.3639 121.17 96.3639C133.462 98.2138 145.756 100.057 158.044 101.899Z" fill="#FFEAD7"/>
<path d="M179.278 77.507C178.521 77.8872 177.424 78.508 176.274 79.4673C169.957 84.7635 170.361 93.4379 166.077 94.2122C165.77 94.2707 165.241 94.3156 164.544 94.1411C164.544 94.1411 164.53 94.1731 164.496 94.2288C164.491 94.2555 164.47 94.286 164.453 94.3314C164.44 94.3566 164.417 94.4005 164.401 94.4391C164.377 94.483 164.352 94.5335 164.326 94.5907C164.224 94.7996 164.092 95.079 163.919 95.4194C163.895 95.4632 163.873 95.5004 163.85 95.5442C163.736 95.7717 163.611 96.0243 163.467 96.2941C163.415 96.4019 163.356 96.5149 163.296 96.6278C163.282 96.6598 163.261 96.6903 163.247 96.7222C163.176 96.8538 163.103 96.992 163.029 97.137C162.813 97.545 162.569 97.9887 162.31 98.4644C162.225 98.6279 162.126 98.7885 162.04 98.9587C161.67 99.6202 161.265 100.344 160.817 101.108C160.6 101.487 160.366 101.884 160.123 102.286C159.766 102.888 159.389 103.52 158.989 104.16C158.738 104.568 158.479 104.98 158.212 105.398C158.167 105.473 158.115 105.552 158.062 105.632C157.751 106.124 157.421 106.633 157.085 107.141C156.253 108.408 155.348 109.716 154.388 111.054C154.337 111.127 154.284 111.206 154.227 111.278C154.227 111.278 153.447 113.93 154.525 116.929C152.188 118.377 149.761 119.658 147.266 120.742L125.042 118.641C122.222 116.072 119.694 113.133 117.483 109.962C116.662 108.786 115.891 107.579 115.161 106.339C116.89 105.619 118.063 105.002 118.831 104.407C120.097 103.431 120.266 102.508 119.98 101.288C119.681 99.9749 118.854 98.3143 118.323 95.8565C116.988 89.7246 117.255 82.8098 117.255 82.8098C116.276 80.8563 115.146 77.9654 115.014 74.3968C114.833 69.7385 116.443 66.5954 114.92 65.2652C114.28 64.7037 112.968 64.359 109.947 65.5724C110.063 65.2336 110.184 64.9097 110.32 64.6102C111.447 61.9076 112.921 60.7182 113.945 60.1444C115.818 59.0848 117.31 59.4062 126.608 59.1605C127.405 59.1396 128.202 59.1186 128.993 59.0895C132.186 58.9441 136.186 58.5698 145.893 57.454C155.213 56.379 161.976 55.2952 167.634 58.0891C169.069 58.7974 172.998 61.0077 176.181 67.2449C177.219 69.2815 178.176 71.7488 178.942 74.7348C179.094 75.6655 179.205 76.594 179.278 77.507Z" fill="#1D1C1C"/>
<path d="M154.835 119.087C153.699 120.014 145.076 126.807 133.339 124.442C121.063 121.972 115.762 111.568 115.173 110.359C115.917 110.355 119.414 110.262 121.411 107.716C122.015 106.945 122.29 106.206 122.474 105.686C122.494 105.627 122.514 105.569 122.526 105.515C123.488 102.671 122.853 99.9522 122.338 98.4372C127.462 99.74 133.047 100.955 139.055 101.969C144.981 102.971 150.579 103.649 155.785 104.101L155.805 104.106C155.787 104.123 155.761 104.145 155.725 104.179C155.725 104.179 155.724 104.186 155.716 104.191C155.139 104.772 152.412 107.676 151.606 111.592L151.584 111.692C151.254 113.288 151.018 114.616 151.655 116.081C152.48 117.973 154.22 118.825 154.835 119.087Z" fill="#EFE0D3"/>
<path d="M155.785 104.1C155.766 104.124 155.746 104.148 155.726 104.178C155.726 104.178 155.724 104.185 155.716 104.19C155.14 104.771 152.412 107.675 151.606 111.591L151.584 111.691C150.482 112.878 149.369 113.958 148.295 114.857C146.425 116.408 144.964 117.124 144.505 117.394C141.813 118.925 138.925 119.439 136.205 118.869C135.353 118.695 134.485 118.532 133.618 118.363C130.014 117.668 126.942 115.162 125.026 111.355C124.154 109.615 123.307 107.669 122.526 105.514C123.489 102.67 122.853 99.9511 122.339 98.4361C127.463 99.7389 133.048 100.954 139.055 101.967C144.981 102.97 150.579 103.648 155.785 104.1Z" fill="#CCB7A8"/>
<path d="M178.942 74.7351C178.176 71.7492 177.219 69.2818 176.181 67.2452C176.285 67.0928 176.391 66.962 176.48 66.8415C176.705 67.3184 176.92 67.8072 177.125 68.3079C177.998 70.4555 178.582 72.6095 178.942 74.7351Z" fill="#4C4C4B"/>
<path d="M178.667 87.7035C177.76 85.9971 176.448 83.9633 175.244 84.1469C173.758 84.3735 173.452 87.8316 172.289 91.2061C171.244 94.2351 169.095 98.3949 164.146 102.731C161.754 104.11 160.288 106.283 160.149 108.158C160.087 108.979 160.218 110.648 161.023 112.276C161.028 112.284 161.033 112.292 161.033 112.292C159.323 113.696 157.521 115.002 155.657 116.211C155.287 116.459 154.905 116.698 154.525 116.929C153.447 113.931 154.227 111.278 154.227 111.278C154.284 111.206 154.337 111.127 154.388 111.054C155.348 109.716 156.253 108.409 157.085 107.141C157.421 106.633 157.751 106.124 158.062 105.632C158.115 105.552 158.167 105.473 158.212 105.398C158.479 104.981 158.738 104.568 158.989 104.161C159.389 103.52 159.766 102.888 160.123 102.287C160.366 101.885 160.6 101.488 160.817 101.108C161.265 100.344 161.67 99.6204 162.04 98.9589C162.126 98.7887 162.225 98.6281 162.31 98.4646C162.569 97.9889 162.813 97.5452 163.029 97.1371C163.103 96.9922 163.176 96.854 163.247 96.7224C163.261 96.6905 163.282 96.66 163.296 96.628C163.356 96.5151 163.415 96.4021 163.467 96.2943C163.611 96.0245 163.736 95.7719 163.849 95.5444C163.873 95.5006 163.895 95.4634 163.919 95.4196C164.092 95.0792 164.224 94.7998 164.326 94.5909C164.352 94.5337 164.377 94.4832 164.401 94.4393C164.417 94.4007 164.44 94.3568 164.453 94.3315C164.47 94.2862 164.49 94.2557 164.496 94.229C164.53 94.1733 164.544 94.1413 164.544 94.1413C165.241 94.3158 165.77 94.2709 166.077 94.2124C170.361 93.4381 169.957 84.7637 176.274 79.4675C177.424 78.5081 178.521 77.8874 179.278 77.5072C179.563 81.1163 179.256 84.5811 178.667 87.7035Z" fill="#303030"/>
<path d="M172.331 80.5412C171.157 85.4273 169.975 86.9124 168.621 87.7148C167.952 88.1141 167.315 88.3032 166.874 88.3955L165.855 91.1148C164.751 94.0609 163.128 96.7874 161.052 99.1482C158.177 102.405 153.966 106.763 150.046 109.194C148.211 110.333 146.742 110.829 146.281 111.015C143.59 112.098 140.647 112.348 137.807 111.751C136.928 111.571 136.015 111.391 135.116 111.208C131.363 110.459 128.063 108.289 125.888 105.147C124.404 103.005 122.949 100.505 121.695 97.6362C120.683 95.3249 119.958 93.1117 119.435 91.0904C118.884 89.0068 118.629 86.8551 118.628 84.6961L118.609 77.7745C118.271 77.525 117.757 77.0895 117.308 76.423C115.491 73.7243 116.683 70.1248 117.908 66.4346C118.333 65.1753 119.526 61.5691 120.551 61.6895C120.564 61.6924 120.877 61.7965 122.136 64.1689L170.4 74.7899C171.987 72.4546 172.721 72.0485 173.103 72.1888C174.228 72.6185 172.871 78.2772 172.331 80.5412Z" fill="#EFE0D3"/>
<path d="M121.614 62.4278C121.628 62.3328 121.653 62.156 121.701 61.9072L121.438 67.8769C121.502 66.0615 121.563 64.2528 121.614 62.4278Z" fill="#251C14"/>
<path d="M172.355 80.4273C171.182 85.3134 170 86.7985 168.646 87.6009C167.977 88.0002 167.339 88.1894 166.898 88.2816L164.71 90.9329C163.353 92.5757 161.184 93.3248 159.098 92.8658C156.138 90.9038 152.187 88.7307 147.261 87.1001C137.546 83.8899 128.996 84.4265 124.05 85.1531C123.555 85.0443 122.48 84.7376 121.462 83.8199C120.743 83.171 120.185 82.3332 119.874 81.3887L118.64 77.6621C118.296 77.4111 117.789 76.9771 117.34 76.3106C115.515 73.6171 116.714 70.0124 117.94 66.3222C118.357 65.0614 119.55 61.4552 120.582 61.5771C120.595 61.58 120.909 61.6841 122.167 64.0565L170.432 74.6775C172.018 72.3422 172.759 71.9376 173.135 72.0764C174.253 72.5047 172.896 78.1633 172.355 80.4273Z" fill="#CCB7A8"/>
<path d="M19.0112 186.147C20.1227 187.275 21.7057 188.745 23.7468 190.266C25.0294 191.221 41.6686 203.384 50.5999 197.227C51.7972 196.404 54.9894 193.777 55.7746 186.451C55.1252 194.116 54.4825 201.782 53.8331 209.446C53.8331 209.446 26.4202 199.615 21.6709 194.54C21.6709 194.54 20.0341 192.519 20.2159 191.024C20.451 189.128 18.8744 188.935 18.8114 187.533C18.7946 186.941 18.9168 186.449 19.0112 186.147Z" fill="#1E1E1E"/>
<path d="M121.867 65.2657C120.666 65.3728 119.918 66.2876 119.297 67.2302C118.595 68.2882 117.954 69.4789 117.771 70.7562C117.606 71.9533 117.774 73.42 118.825 74.1841C119.939 74.9828 121.242 74.4775 121.903 73.3826C122.254 72.8079 122.431 72.0689 122.304 71.4032C122.167 70.6863 121.59 70.0267 120.834 69.9585C120.422 69.9237 120.018 70.1012 119.921 70.5424C119.84 70.9101 120.092 71.4211 120.505 71.4559C121.206 71.519 120.604 72.8514 120.167 73.0216C119.868 73.138 119.598 72.8684 119.469 72.6296C119.255 72.2321 119.224 71.7347 119.251 71.2922C119.317 70.2623 119.817 69.2931 120.351 68.4293C120.691 67.8733 121.205 66.8722 121.942 66.8031C122.93 66.712 122.854 65.1745 121.867 65.2657Z" fill="#9B7E68"/>
<path d="M169.654 77.1691C170.267 77.6964 170.096 78.8223 170.043 79.5396C169.97 80.5398 169.78 81.5633 169.26 82.43C169.027 82.8202 167.935 84.0586 167.496 83.2473C167.317 82.9136 167.551 81.4721 168.096 81.7954C168.951 82.3059 169.665 80.9421 168.817 80.433C168.271 80.1097 167.561 80.1498 167.026 80.4805C166.481 80.8232 166.162 81.4118 165.995 82.0128C165.666 83.188 166.072 84.5599 167.335 84.936C168.678 85.3296 169.873 84.2959 170.551 83.2537C171.241 82.1861 171.469 80.8975 171.568 79.6508C171.665 78.4107 171.733 76.9257 170.703 76.0332C169.947 75.3904 168.906 76.521 169.654 77.1691Z" fill="#9B7E68"/>
<path d="M149.084 77.7033C148.077 77.4047 147.038 77.1269 145.973 76.8715C141.1 75.7011 136.572 75.1952 132.569 75.0713C135.144 75.0913 137.939 75.286 140.892 75.7535C143.838 76.2196 146.575 76.9059 149.084 77.7033Z" fill="#251C14"/>
<path d="M171.635 72.4263L169.272 75.0742L166.403 82.0263C166.108 82.7322 165.269 83.0101 164.604 82.6255C159.371 79.5537 151.247 75.7054 140.712 74.1161C137.402 73.6188 134.288 73.4033 131.442 73.3728C131.428 73.3765 131.421 73.375 131.406 73.3788C130.861 73.371 130.328 73.3728 129.807 73.3843C127.664 73.4103 125.685 73.5495 123.898 73.738C123.211 73.804 122.613 73.3012 122.561 72.6167C122.461 71.3192 122.349 70.012 122.249 68.7144C122.068 66.446 121.886 64.1842 121.706 61.9157C121.772 61.5517 121.865 61.0326 122.018 60.4005C123.105 55.7477 126.766 44.6527 137.6 39.881C143.694 37.192 149.419 37.6739 152.347 38.1571C155.324 38.6439 160.75 40.0062 165.37 44.3941C172.346 51.0103 174.647 61.8264 171.635 72.4263Z" fill="#131416"/>
<path d="M152.031 65.4217C161.042 68.1055 168.945 66.3051 171.49 61.7139C172.011 60.7773 172.612 59.1643 172.353 56.6755C172.788 58.5863 173.175 61.1595 173.075 64.1933C172.968 67.6109 172.284 70.4321 171.634 72.4268C168.599 71.1561 165.373 69.8925 161.968 68.6737C158.537 67.4491 155.215 66.3676 152.031 65.4217Z" fill="#0C0C0C"/>
<path d="M156.672 66.9754C150.236 65.0406 142.511 63.2985 133.698 62.4525C129.435 62.047 125.418 61.892 121.706 61.9093C121.772 61.5453 121.866 61.0262 122.019 60.3941C125.711 60.5268 129.698 60.8504 133.921 61.4364C142.707 62.6618 150.342 64.7486 156.672 66.9754Z" fill="#0C0C0C"/>
<path d="M171.634 72.4262L171.349 73.3726L170.399 74.7896L167.091 83.8036C166.746 84.7368 165.643 85.1318 164.796 84.6161C160.98 82.3046 155.701 79.6361 149.09 77.7046C146.576 76.899 143.838 76.2194 140.891 75.7533C137.939 75.2858 135.143 75.0911 132.568 75.0712C132.553 75.0749 132.553 75.0749 132.54 75.072C128.873 74.9518 125.652 75.1612 123.009 75.4488C122.053 75.5606 121.227 74.7902 121.256 73.8294C121.32 71.8529 121.378 69.8683 121.443 67.8852L121.705 61.9155C121.993 65.483 122.28 69.0505 122.56 72.6166C122.62 73.3024 123.217 73.8053 123.898 73.7378C128.431 73.2637 134.187 73.1286 140.719 74.1174C151.252 75.7134 159.378 79.555 164.61 82.6268C165.268 83.01 166.114 82.7335 166.41 82.0276L169.278 75.0755L171.634 72.4262Z" fill="black"/>
<path d="M184.317 83.207L184.329 83.1535C184.856 79.1975 184.629 75.3277 183.604 71.6399C183.043 69.6031 179.725 59.2012 169.847 54.1189C168.128 53.236 166.414 52.6136 164.603 52.215C160.03 51.2088 155.403 51.7254 148.397 52.5105C147.407 52.615 146.357 52.7345 145.251 52.8555C132.274 54.2469 125.127 54.4614 120.859 54.5875C115.454 54.7509 112.985 54.8243 109.829 57.4798C105.576 61.0715 103.035 66.792 102.477 73.8811C102.475 73.8877 102.482 73.8892 102.481 73.8959C102.356 75.4805 102.328 77.1354 102.408 78.8421C103.02 92.307 110.252 110.972 125.052 122.323C127.043 123.848 129.188 125.245 131.434 126.475L132.859 127.258L134.472 127.066C137.81 126.673 141.094 125.987 144.25 125.02C155.984 121.449 167.17 113.706 174.929 103.8C180.214 97.0432 183.396 90.0058 184.317 83.207ZM141.968 121.504C138.602 122.565 135.659 123.073 133.575 123.337C132.121 122.526 130.231 121.367 128.193 119.769C123.541 116.131 119.634 111.431 116.578 106.273C115.952 105.231 115.365 104.17 114.817 103.096C114.783 103.026 114.743 102.954 114.703 102.882C108.599 90.8084 106.951 77.0524 110.946 68.6451C111.834 66.773 113.008 65.167 114.472 63.8981C117.848 60.9756 118.755 63.3829 145.393 60.3018C155.899 59.0885 160.567 58.1672 165.804 60.8967C173.624 64.9795 176.099 73.7662 176.411 74.9282C181.142 92.6988 162.844 114.891 141.968 121.504Z" fill="#0E0E0E"/>
<path d="M184.258 72.2958C184.153 71.754 184.01 71.225 183.86 70.6944C183.716 70.1721 183.514 69.5949 183.338 69.0867C182.89 67.9999 182.382 67.0611 181.811 66.1223C180.67 64.2664 179.322 62.5609 177.813 61.0093C176.304 59.4578 174.639 58.0751 172.87 56.8449C171.96 56.2662 171.069 55.6637 170.112 55.1727C169.192 54.6408 168.18 54.1447 167.165 53.7533C166.656 53.5502 166.15 53.3686 165.627 53.1974C165.062 53.0241 164.555 52.9056 164.012 52.765C162.94 52.5081 161.847 52.3448 160.768 52.2475C158.591 52.0486 156.449 52.131 154.362 52.2815C150.176 52.6079 146.126 53.1464 142.038 53.5364C137.954 53.9413 133.87 54.2831 129.787 54.5269C127.742 54.6447 125.702 54.7424 123.655 54.8105C121.604 54.892 119.565 54.8917 117.402 55.0677C116.324 55.1598 115.186 55.3299 114.049 55.6894C112.913 56.0421 111.837 56.6323 110.904 57.3032C109.064 58.6575 107.561 60.331 106.357 62.2037C103.945 65.9624 102.87 70.3093 102.527 74.5723L102.558 74.3688L102.562 74.3836L102.531 74.5871C102.115 79.9483 102.91 85.2535 104.229 90.3446C105.635 95.4199 107.585 100.349 110.195 104.925C112.789 109.505 115.955 113.783 119.687 117.526C120.66 118.42 121.587 119.367 122.614 120.21C123.644 121.039 124.643 121.918 125.722 122.681C126.799 123.458 127.899 124.19 129.03 124.881C129.599 125.223 130.17 125.559 130.744 125.882L132.859 127.034L135.125 126.769C135.738 126.693 136.351 126.611 136.968 126.516C138.194 126.33 139.408 126.099 140.617 125.826C143.04 125.294 145.421 124.57 147.735 123.706C152.386 121.996 156.778 119.654 160.863 116.887C164.934 114.09 168.696 110.846 172.006 107.173C175.315 103.507 178.21 99.4269 180.391 94.9307C181.795 92.0576 182.618 89.2391 182.961 87.17C183.313 85.0957 183.245 83.7773 183.047 83.7547L181.693 83.5689C181.448 83.536 181.106 84.8693 180.453 86.9124C179.793 88.9539 178.757 91.6904 177.325 94.5012C175.274 98.5985 172.511 102.364 169.415 105.797C166.276 109.199 162.749 112.263 158.909 114.874C157 116.192 154.995 117.37 152.935 118.451C150.882 119.534 148.758 120.489 146.585 121.287C144.409 122.098 142.198 122.782 139.929 123.284C138.8 123.541 137.659 123.759 136.511 123.941C135.938 124.032 135.366 124.116 134.79 124.186L133.378 124.359L131.998 123.621C131.448 123.317 130.9 123.008 130.362 122.679C129.286 122.029 128.232 121.341 127.208 120.611C126.174 119.893 125.229 119.061 124.244 118.284C123.27 117.488 122.381 116.591 121.445 115.748C117.866 112.199 114.804 108.119 112.28 103.73C109.741 99.3441 107.826 94.6054 106.445 89.732C105.146 84.8413 104.362 79.7699 104.721 74.7326L104.705 74.8343L104.702 74.8195L104.717 74.7177C105.018 70.6768 106.023 66.6159 108.206 63.2274C108.755 62.3881 109.365 61.5902 110.04 60.8486C110.725 60.1233 111.471 59.4395 112.27 58.8654C113.858 57.6728 115.789 57.2077 117.828 57.0536C119.861 56.8912 121.954 56.8683 124.034 56.7794C126.113 56.6972 128.198 56.5882 130.276 56.4428C134.437 56.1669 138.579 55.782 142.719 55.3473C146.856 54.926 150.986 54.342 155.113 54.0306C157.178 53.8823 159.241 53.8387 161.285 54.0713C162.303 54.1902 163.316 54.3641 164.306 54.6449C165.3 54.8708 166.268 55.2519 167.212 55.6419C169.091 56.4688 170.885 57.5224 172.571 58.7134C174.257 59.9045 175.83 61.2599 177.234 62.7812C178.638 64.2958 179.875 65.9697 180.911 67.7605C181.969 69.5424 182.558 71.5502 182.908 73.5896C183.843 79.2762 182.551 83.7787 183.035 83.8081C183.203 83.9362 183.818 82.7048 184.266 80.6377C184.708 78.5624 184.94 75.5365 184.258 72.2958Z" fill="#0E0E0E"/>
<path d="M184.327 83.1602C184.861 79.2057 184.626 75.3344 183.603 71.64C183.041 69.6099 179.724 59.2012 169.838 54.1241C168.126 53.2427 166.406 52.6189 164.601 52.2217C160.022 51.214 155.396 51.724 148.39 52.5091C147.398 52.6203 146.35 52.733 145.244 52.8541C132.266 54.2455 125.125 54.4681 120.851 54.5861C115.447 54.7494 112.984 54.8243 109.828 57.4798C109.08 58.1072 108.395 58.7976 107.759 59.5547C108.956 57.9048 110.354 56.4252 111.964 55.3847C118.529 51.1594 114.666 44.2821 122.048 40.9935C125.98 39.2444 129.122 37.8963 131.201 37.0152C132.473 36.9658 134.004 36.763 135.972 36.1939C145.652 33.418 147.017 27.4387 158.398 33.0829C169.778 38.727 181.91 43.2471 183.588 53.3021C185.257 63.3273 185.738 76.7494 184.327 83.1602Z" fill="#1E1E1E"/>
<path d="M100.197 66.1822C100.198 66.1751 100.193 66.1665 100.193 66.1665" stroke="#776454" stroke-width="0.684483" stroke-miterlimit="10"/>
<path d="M118.831 104.407C118.224 104.876 117.64 105.616 116.578 106.273C115.952 105.231 115.365 104.17 114.817 103.096C115.506 103.051 116.555 103.093 118.142 103.337C118.392 103.378 118.601 103.354 118.774 103.266C119.287 103.007 119.7 102.306 119.98 101.288C120.266 102.508 120.097 103.431 118.831 104.407Z" fill="#3B3B3A"/>
<path d="M97.4829 110.902C100.383 111.162 104.971 111.078 109.365 108.534C110.03 108.154 110.633 107.74 111.189 107.316C114.151 110.61 117.112 113.904 120.074 117.198C118.198 115.531 114.15 112.397 108.108 111.061C103.596 110.068 99.7843 110.476 97.4829 110.902Z" fill="#040404"/>
<path d="M149.292 31.2403C151.412 31.0339 153.588 31.4638 155.534 32.3336L161.534 35.2939C165.53 37.2946 169.493 39.3511 173.406 41.5087L174.867 42.3209C175.322 42.6102 175.803 42.8773 176.245 43.1919C176.678 43.5184 177.138 43.8159 177.534 44.1833L178.153 44.7121L178.728 45.2871C179.482 46.0628 180.172 46.9085 180.754 47.8287C181.347 48.7369 181.856 49.704 182.263 50.7188C182.672 51.7269 182.996 52.7723 183.23 53.8402C183.352 54.3715 183.43 54.9074 183.507 55.45L183.765 57.1117C184.109 59.339 184.47 61.521 184.655 63.7346C185.042 68.1579 184.942 72.6216 184.4 77.0297C183.843 81.4416 182.929 85.8172 181.389 89.9779C178.361 98.3246 173.131 105.85 166.405 111.666L165.153 112.771L164.527 113.321L163.868 113.834L161.232 115.875L158.472 117.749C157.555 118.381 156.564 118.899 155.618 119.476C151.754 121.681 147.642 123.454 143.373 124.701C141.227 125.28 139.057 125.777 136.854 126.077C135.752 126.213 134.646 126.334 133.539 126.364C133.262 126.38 132.988 126.383 132.709 126.377L132.513 126.376C132.478 126.375 132.435 126.38 132.406 126.353L132.07 126.16C131.584 125.884 131.107 125.597 130.631 125.31C126.831 122.988 123.228 120.317 120.026 117.223C118.426 115.672 116.933 114.019 115.575 112.255C114.227 110.487 112.998 108.618 111.824 106.72C109.494 102.913 107.448 98.9306 106.003 94.7018C104.502 90.5027 103.362 86.1589 102.793 81.7374C102.224 77.316 102.251 72.8012 103.129 68.425C102.231 72.7968 102.176 77.3124 102.723 81.7361C103.269 86.1665 104.386 90.5193 105.869 94.7354C107.291 98.9732 109.324 102.988 111.636 106.812C112.8 108.722 114.02 110.595 115.365 112.384C116.718 114.168 118.207 115.841 119.81 117.406C123.01 120.542 126.614 123.242 130.413 125.599C130.888 125.892 131.371 126.181 131.849 126.461L132.216 126.675C132.343 126.794 132.538 126.739 132.661 126.752C132.942 126.751 133.221 126.756 133.505 126.742C134.625 126.715 135.743 126.603 136.858 126.47C139.08 126.181 141.276 125.697 143.442 125.123C147.753 123.906 151.913 122.137 155.817 119.94C156.778 119.36 157.775 118.843 158.706 118.214L161.501 116.341C163.279 114.98 165.092 113.655 166.744 112.133C173.564 106.303 178.917 98.7274 182.049 90.2914C183.642 86.0793 184.596 81.6494 185.189 77.2033C185.776 72.749 185.902 68.2281 185.537 63.7394C185.366 61.4939 185.01 59.257 184.685 57.069L184.439 55.4168C184.357 54.8661 184.282 54.282 184.165 53.7306C183.936 52.6078 183.609 51.5126 183.185 50.4452C182.343 48.3184 181.106 46.329 179.522 44.67C179.122 44.2595 178.715 43.8475 178.27 43.4832C177.845 43.0884 177.377 42.7612 176.912 42.4206C176.456 42.0748 175.948 41.8019 175.464 41.4852L174.001 40.6515C170.087 38.4657 166.132 36.3758 162.133 34.3535L156.122 31.3487C155.062 30.849 153.949 30.4919 152.807 30.2686C152.238 30.1435 151.653 30.0987 151.071 30.0339C150.483 30.0306 149.904 29.9873 149.315 30.0538C147.039 30.2048 145.079 31.0841 143.873 31.9471C143.233 32.3389 142.814 32.7793 142.518 33.0717C142.228 33.3723 142.094 33.567 142.15 33.6285C142.2 33.6886 142.432 33.6205 142.786 33.4461C143.152 33.2812 143.616 32.9558 144.256 32.6902C145.483 32.0841 147.259 31.4026 149.292 31.2403Z" fill="black"/>
<path d="M129.807 73.3841C127.664 73.4101 125.685 73.5493 123.898 73.7378C123.211 73.8038 122.614 73.3009 122.561 72.6165C122.461 71.319 122.349 70.0118 122.249 68.7142C122.23 68.4507 122.212 68.1805 122.193 67.917C122.456 68.9841 122.89 69.7523 123.27 70.2846C124.999 72.6835 127.954 73.2706 129.807 73.3841Z" fill="#2F3033"/>
<path d="M127.547 123.951L119.939 158.525L123.903 159.398L129.503 123.695L128.088 123.881L127.547 123.951Z" fill="#282828"/>
<path d="M127.547 123.951L119.939 158.525L122.566 159.103L128.088 123.881L127.547 123.951Z" fill="#484848"/>
<path d="M131.407 73.3787C131.35 73.3803 131.271 73.3909 131.164 73.3956C131.251 73.3865 131.329 73.3826 131.407 73.3787Z" fill="#2F3033"/>
<path d="M129.042 126.186L123.991 159.01L120.399 158.234L127.851 123.856L129.757 123.603L127.84 123.847L120.048 158.458L124.255 159.405L129.609 126.318C129.852 124.829 129.913 123.567 129.751 123.538C129.587 123.516 129.269 124.708 129.042 126.186Z" fill="#303030"/>
<path d="M138.397 126.338L130.788 160.913L126.824 160.04L136.729 125.285L137.935 126.048L138.397 126.338Z" fill="#303030"/>
<path d="M138.393 126.339L130.785 160.913L128.158 160.335L137.932 126.048L138.393 126.339Z" fill="#484848"/>
<path d="M135.543 127.582L126.425 159.939L130.76 160.878L138.312 126.053L136.599 124.983L138.295 126.064L130.536 160.528L126.824 159.69L136.083 127.771C136.501 126.321 136.718 125.079 136.56 125.03C136.406 124.996 135.944 126.142 135.543 127.582Z" fill="#303030"/>
<path d="M52.5772 174.778C55.5755 176.727 58.024 179.614 59.4683 182.987C58.3905 179.477 56.2226 176.239 53.2613 173.835C53.0828 173.69 52.772 173.797 52.5921 174.073C52.4071 174.341 52.3996 174.661 52.5772 174.778Z" fill="black"/>
<path d="M44.9235 181.582C49.3023 180.155 54.3092 180.493 58.5491 182.597C54.4971 180.149 49.3949 179.321 44.6093 180.461C44.3207 180.531 44.1588 180.853 44.2641 181.17C44.3642 181.48 44.6601 181.664 44.9235 181.582Z" fill="black"/>
<path d="M55.2701 185.435C56.1186 184.318 57.5752 183.559 59.1231 183.564C57.6174 183.176 55.8185 183.516 54.4235 184.632C54.3376 184.704 54.4739 184.944 54.7275 185.161C54.9745 185.377 55.2205 185.501 55.2701 185.435Z" fill="black"/>
<path d="M59.5455 148.677L60.0556 145.467C60.3692 143.469 62.2262 142.132 64.1047 142.546L188.584 169.938C190.589 170.379 191.704 172.608 190.917 174.622L189.824 177.423L59.5455 148.677Z" fill="#C1C0BF"/>
<path d="M189.824 177.423L166.982 239.056C166.31 240.87 164.481 241.918 162.683 241.523L56.2661 218.105C54.4545 217.706 53.2288 215.951 53.4045 214.006L59.5342 148.696C59.6782 147.214 60.5874 146.012 61.789 145.457C61.4989 145.947 61.3123 146.508 61.2549 147.119L55.2457 211.117C55.064 213.026 56.2621 214.747 58.047 215.14L162.338 238.09C164.089 238.475 165.884 237.454 166.541 235.678L188.923 175.277C189.147 174.674 189.212 174.058 189.152 173.47C190.028 174.49 190.347 176.004 189.824 177.423Z" fill="#A09E9D"/>
<path d="M188.924 175.269L166.542 235.671C165.892 237.448 164.097 238.469 162.339 238.082L58.0482 215.132C56.27 214.741 55.0719 213.02 55.2468 211.11L61.256 147.112C61.3134 146.501 61.5016 145.933 61.7901 145.449C62.4784 145.124 63.2674 145.011 64.0696 145.187L187.192 172.281C187.981 172.455 188.659 172.877 189.148 173.454C189.213 174.05 189.148 174.667 188.924 175.269Z" fill="#DBDBDB"/>
<path d="M70.1338 146.521L87.5078 150.345C88.0871 160.165 89.9011 173.579 95.1378 188.511C101.513 206.678 110.425 219.846 117.043 228.115C111.047 226.795 105.057 225.477 99.0609 224.158C97.5364 213.568 94.8186 200.726 89.8561 186.682C83.9199 169.866 76.5674 156.46 70.1338 146.521Z" fill="#EFEFEF"/>
<path d="M173.207 217.682C171.927 219.068 170.617 220.308 169.28 221.415C151.117 236.468 124.973 230.553 114.702 227.606C131.614 231.328 148.521 235.048 165.433 238.77L173.207 217.682Z" fill="#A09E9D"/>
<path d="M143.576 125.474C146.427 124.013 150.489 122.342 155.572 121.505C158.538 121.022 161.209 120.923 163.449 120.996C162.325 119.893 161.195 118.789 160.07 117.687L143.576 125.474Z" fill="#040404"/>
<path d="M134.755 36.2264C132.959 36.8404 131.064 37.1383 129.15 37.1096C128.183 37.1071 127.192 37.0572 126.176 37.1209C125.168 37.1794 124.107 37.3806 123.158 37.8377C121.248 38.7489 119.884 40.3271 118.636 41.8257C117.371 43.3413 116.166 44.8985 114.997 46.4845C110.339 52.8396 106.463 59.7522 103.483 67.023C106.642 59.8335 110.674 53.0394 115.457 46.8451C116.652 45.2999 117.89 43.785 119.182 42.3101C120.457 40.8456 121.806 39.3973 123.508 38.6365C125.2 37.8594 127.154 38.0581 129.122 38.1268C131.124 38.2028 133.171 37.9454 135.105 37.3408C136.047 37.0434 136.686 36.4622 136.55 36.1589C136.392 35.8578 135.605 35.9299 134.755 36.2264Z" fill="black"/>
<path d="M105.236 65.2295C104.485 68.961 100.07 92.9401 115.762 111.35C121.677 118.293 128.508 122.158 133.372 124.294C128.753 121.364 123.122 116.95 118.062 110.454C104.094 92.522 104.739 71.8834 105.236 65.2295Z" fill="#303030"/>
<path d="M133.289 124.542C137.918 123.956 157.549 120.959 170.321 103.942C175.724 96.7488 178.093 89.4555 179.204 84.4367C177.522 89.7225 174.028 98.212 166.602 106.32C154.194 119.87 138.916 123.496 133.289 124.542Z" fill="#3F3F3F"/>
<path d="M163.138 56.3568L162.856 56.4279C157.409 55.2223 150.957 56.2624 146.5 56.8655C141.413 57.5613 125.093 58.722 119.748 59.0946C118.972 59.1482 118.196 59.1735 117.419 59.1358C116.546 59.0908 114.808 59.2481 112.809 60.7846C109.919 62.9941 107.557 69.9384 107.557 69.9384C107.557 69.9384 106.104 58.2578 112.546 57.3625C118.988 56.4672 133.842 58.4604 143.678 55.9292C153.505 53.4099 163.138 56.3568 163.138 56.3568Z" fill="#252525"/>
<path d="M116.901 54.7673C116.901 54.7673 131.698 54.1829 134.067 52.146C136.436 50.1091 138.991 41.9386 140.987 41.3057C142.984 40.6727 142.99 40.6742 142.99 40.6742C142.99 40.6742 137.441 47.1344 140.16 49.9685C142.88 52.8027 152.597 52.2778 152.597 52.2778L116.901 54.7673Z" fill="#4E4E4E"/>
<path d="M179.111 87.6048C179.673 85.4298 180.056 83.2151 180.225 80.9816C180.417 78.739 180.28 76.4311 179.791 74.2279C178.823 69.8028 176.61 65.7203 173.646 62.3417C172.907 61.4924 172.099 60.7048 171.254 59.9582C170.832 59.5849 170.382 59.2406 169.942 58.8844C169.456 58.5743 168.995 58.2204 168.486 57.9542C166.466 56.844 164.223 56.2732 161.998 56.0009C157.512 55.4622 153.041 56.0342 148.676 56.6298C144.326 57.2564 139.916 57.5826 135.521 57.9681L122.315 58.9939C121.221 59.0615 120.1 59.1863 119.031 59.1751C118.476 59.1793 117.979 59.21 117.379 59.1971C116.781 59.2058 116.199 59.302 115.639 59.4591C114.514 59.7933 113.492 60.3604 112.603 61.0898C111.693 61.8497 111.025 62.782 110.417 63.7277C109.226 65.6382 108.321 67.6817 107.533 69.7651L107.39 70.1611C107.344 70.3052 107.291 70.3848 107.244 70.6336L107.183 71.4823C107.139 72.0333 107.115 72.5887 107.084 73.1426C107.029 74.2519 107.009 75.3619 107.004 76.4681C107.002 85.3334 108.762 94.2783 112.671 102.28C113.648 104.275 114.744 106.206 115.951 108.076C117.155 109.932 118.457 111.754 119.942 113.412C122.867 116.747 126.127 119.798 129.707 122.415C130.601 123.068 131.519 123.704 132.454 124.295L133.225 124.773C133.643 124.753 133.842 124.678 134.138 124.638C134.68 124.533 135.228 124.429 135.766 124.309C137.937 123.841 140.081 123.268 142.184 122.568C146.388 121.173 150.452 119.327 154.249 117.044C161.87 112.511 168.433 106.253 173.385 98.9112C168.399 106.217 161.809 112.435 154.187 116.911C150.39 119.166 146.331 120.985 142.14 122.355C140.04 123.042 137.905 123.603 135.746 124.053C135.209 124.166 134.661 124.269 134.121 124.368L133.319 124.507L132.629 124.075C131.702 123.478 130.796 122.851 129.91 122.194C126.366 119.571 123.139 116.527 120.25 113.192C118.785 111.538 117.511 109.744 116.321 107.891C115.139 106.033 114.055 104.113 113.097 102.129C109.267 94.1792 107.566 85.3174 107.6 76.5292C107.611 75.4311 107.636 74.3293 107.696 73.2282C107.732 72.6824 107.756 72.127 107.805 71.5842L107.874 70.7652C107.875 70.6954 107.878 70.682 107.904 70.6248L107.975 70.4302L108.116 70.0475C108.903 67.999 109.802 65.9822 110.959 64.1341C111.546 63.219 112.196 62.3319 112.997 61.6532C113.819 60.9789 114.777 60.4468 115.79 60.144C116.299 59.9967 116.823 59.9088 117.344 59.8973C117.846 59.9096 118.446 59.8876 118.999 59.8902C120.132 59.9012 121.22 59.7972 122.323 59.7244L135.539 58.778C139.943 58.4155 144.347 58.1161 148.741 57.5131C153.101 56.9376 157.5 56.4059 161.828 56.9308C163.977 57.2003 166.092 57.7498 167.962 58.7712C168.205 58.8806 168.425 59.0271 168.643 59.1804L169.302 59.6267C169.728 59.9517 170.15 60.2968 170.557 60.6457C171.364 61.3701 172.138 62.1221 172.847 62.9439C175.698 66.1995 177.81 70.1404 178.738 74.3607C179.198 76.4734 179.334 78.6269 179.141 80.7782C178.965 82.9471 178.59 85.1002 178.043 87.2017C177.511 89.2363 176.899 91.0639 176.413 92.3798C175.932 93.7038 175.592 94.5189 175.739 94.6144C175.874 94.7002 176.478 94.0271 177.161 92.7687C177.817 91.5112 178.57 89.6796 179.111 87.6048Z" fill="black"/>
<path d="M182.935 68.6827C181.431 65.6114 179.723 62.6704 177.842 59.8175C176.884 58.345 175.613 57.1122 174.26 56.0296C172.901 54.9455 171.409 54.0495 169.841 53.34C166.714 51.8809 163.3 51.0876 159.853 50.9878C158.131 50.9453 156.39 51.1509 154.724 51.5203L153.494 51.7612L152.247 51.9494C151.419 52.0825 150.579 52.1711 149.744 52.2745C143.035 53.013 136.274 53.4174 129.521 53.8167L119.383 54.4034C118.536 54.4623 117.691 54.5145 116.845 54.6016C115.996 54.7021 115.154 54.8954 114.341 55.151C112.713 55.6689 111.161 56.4138 109.751 57.3789C111.179 56.4315 112.731 55.7149 114.36 55.2252C115.177 54.9845 116.008 54.8031 116.855 54.716C117.698 54.6422 118.542 54.5967 119.386 54.5511L129.519 54.1107C136.28 53.8042 143.032 53.503 149.777 52.8565C150.618 52.7612 151.459 52.6941 152.301 52.564L153.565 52.3936L154.827 52.1668C156.477 51.8359 158.128 51.6595 159.797 51.7185C163.124 51.8549 166.433 52.6811 169.431 54.1189C170.938 54.8218 172.355 55.7083 173.631 56.7532C174.902 57.7967 176.079 58.974 176.959 60.359C178.764 63.1743 180.421 66.125 181.85 69.1519C182.545 70.6153 183.281 71.7586 183.587 71.6436C183.916 71.5197 183.656 70.1519 182.935 68.6827Z" fill="black"/>
<path d="M71.245 116.244C69.5077 116.59 67.5757 116.516 65.6698 117.183C63.7342 117.857 62.3043 119.323 61.0994 120.754L54.1178 129.485L40.1829 146.947L26.2479 164.408L22.7645 168.772C21.6034 170.227 20.4245 171.698 19.569 173.388C19.1446 174.234 18.8146 175.129 18.6435 176.065C18.4577 177.005 18.5168 177.979 18.734 178.903C18.9743 179.817 19.38 180.713 20.0133 181.434C20.6303 182.165 21.5104 182.688 22.4618 182.856C21.5118 182.682 20.648 182.148 20.0459 181.413C19.4193 180.693 19.0336 179.802 18.8068 178.891C18.3456 177.037 18.8353 175.098 19.7006 173.459C20.5636 171.799 21.7581 170.352 22.9363 168.915L26.4725 164.598L40.6239 147.331L54.7753 130.064L61.8514 121.445C63.0379 120.066 64.353 118.771 65.9867 118.227C67.6196 117.654 69.4952 117.73 71.4107 117.402C72.3429 117.242 73.1944 116.876 73.7073 116.456C73.969 116.255 74.146 116.055 74.2407 115.88C74.3391 115.719 74.3589 115.598 74.309 115.537C74.2524 115.476 74.1344 115.471 73.9645 115.511C73.7997 115.559 73.5809 115.63 73.316 115.718C72.7863 115.896 72.0791 116.084 71.245 116.244Z" fill="black"/>
<path d="M109.062 107.591C105.88 108.608 102.382 108.518 98.9163 108.947C97.1787 109.167 95.4726 109.5 93.7783 109.842C92.0893 110.192 90.3779 110.516 88.7018 111.03C87.8605 111.287 87.0355 111.596 86.2322 111.966C85.4289 112.336 84.6897 112.797 83.9257 113.147C83.1669 113.506 82.376 113.724 81.551 113.683C80.7232 113.655 79.8987 113.452 79.0608 113.247C78.6411 113.148 78.2162 113.04 77.7855 112.959C77.3614 112.88 76.8482 112.823 76.3839 113.022C75.9344 113.218 75.6047 113.538 75.2838 113.818C74.9614 114.104 74.6353 114.376 74.301 114.653C72.9684 115.74 71.5546 116.719 70.0663 117.59C71.5725 116.765 73.0205 115.822 74.3874 114.77C74.7254 114.508 75.0649 114.239 75.3991 113.962C75.7319 113.692 76.0572 113.392 76.4645 113.229C76.8665 113.059 77.3166 113.116 77.731 113.207C78.1522 113.299 78.5689 113.412 78.9856 113.525C79.8191 113.75 80.6563 113.991 81.5347 114.044C82.4169 114.112 83.3058 113.894 84.1047 113.544C84.9088 113.202 85.657 112.764 86.4381 112.431C87.2207 112.092 88.0301 111.822 88.8589 111.59C90.5084 111.133 92.2094 110.856 93.9082 110.557C95.6056 110.265 97.3014 109.979 99.0057 109.814C102.396 109.474 105.914 109.695 109.391 108.708C110.229 108.465 110.798 107.917 110.66 107.62C110.509 107.321 109.809 107.349 109.062 107.591Z" fill="black"/>
<path d="M51.4859 209.224C43.8246 206.585 36.1926 203.812 29.0353 200.029C27.2448 199.089 25.4973 198.08 23.7875 196.996C22.94 196.452 22.0599 195.929 21.3243 195.291C20.5805 194.658 19.9916 193.862 19.8018 192.909C19.589 191.965 19.638 190.883 19.1549 189.893C18.9104 189.412 18.5836 189.018 18.3623 188.591C18.1327 188.169 18.0702 187.72 18.1694 187.238C18.6643 185.307 19.246 183.332 19.7736 181.381C19.1926 183.321 18.5699 185.258 18.0223 187.205C17.9001 187.697 17.9613 188.215 18.1917 188.665C18.4138 189.121 18.731 189.527 18.9465 189.981C19.3864 190.912 19.3166 191.961 19.5109 192.957C19.6778 193.982 20.3078 194.878 21.0709 195.55C21.8296 196.243 22.6986 196.785 23.5402 197.355C25.2264 198.483 26.9688 199.547 28.7423 200.533C35.8489 204.514 43.4582 207.486 51.0635 210.316C51.9834 210.658 52.8476 210.68 52.9516 210.367C53.069 210.056 52.405 209.538 51.4859 209.224Z" fill="black"/>
<path d="M173.109 240.137C180.362 240.429 187.605 240.159 194.823 239.876C196.626 239.803 198.456 239.736 200.279 239.479C202.095 239.219 203.945 238.743 205.596 237.803C206.414 237.331 207.188 236.745 207.838 236.054C208.494 235.364 209.042 234.595 209.513 233.794C210.455 232.186 211.112 230.474 211.801 228.81C212.486 227.131 213.148 225.427 213.629 223.654C214.117 221.883 214.413 220.028 214.345 218.17C214.284 216.313 213.926 214.503 213.502 212.735L212.172 207.473L206.836 186.465C206.394 184.713 205.943 182.974 205.708 181.205C205.594 180.325 205.522 179.44 205.542 178.554C205.555 177.667 205.632 176.773 205.691 175.868C205.744 174.961 205.779 174.037 205.674 173.11C205.572 172.176 205.342 171.278 205.015 170.407C204.68 169.541 204.261 168.734 203.865 167.925C203.468 167.116 203.08 166.301 202.698 165.488C202.318 164.669 201.937 163.849 201.585 163.029L200.552 160.524L198.433 155.537C197.712 153.878 197.012 152.217 196.209 150.576C196.005 150.167 195.799 149.764 195.559 149.361C195.326 148.952 195.027 148.592 194.749 148.229C194.17 147.52 193.531 146.854 192.837 146.252C191.455 145.044 189.862 144.098 188.225 143.324C186.574 142.576 185.007 141.733 183.48 140.773C180.433 138.855 177.558 136.667 174.774 134.379C169.203 129.789 163.955 124.814 158.822 119.732C163.921 124.842 169.127 129.849 174.667 134.482C177.438 136.795 180.303 139.002 183.344 140.947C186.319 143.003 189.942 143.99 192.623 146.458C193.966 147.65 195.168 149.036 195.897 150.69C196.676 152.312 197.374 153.979 198.08 155.642L200.169 160.643L201.187 163.151C201.534 163.992 201.908 164.81 202.288 165.63C202.662 166.448 203.049 167.269 203.444 168.085C203.833 168.899 204.244 169.704 204.558 170.538C204.866 171.369 205.087 172.245 205.182 173.121C205.275 174.003 205.239 174.899 205.181 175.798C205.124 176.696 205.038 177.596 205.012 178.508C204.987 179.421 205.051 180.339 205.161 181.239C205.387 183.048 205.826 184.813 206.261 186.562L211.451 207.595L212.741 212.848C213.149 214.592 213.49 216.356 213.544 218.12C213.659 221.671 212.393 225.099 211.014 228.405C210.312 230.066 209.655 231.744 208.762 233.257C208.315 234.014 207.802 234.721 207.208 235.347C206.615 235.974 205.932 236.496 205.186 236.928C203.685 237.789 201.961 238.237 200.211 238.482C198.454 238.726 196.667 238.789 194.86 238.847C187.644 239.088 180.433 239.309 173.245 238.975C169.773 238.828 166.865 238.798 166.826 239.133C166.805 239.45 169.641 240.004 173.109 240.137Z" fill="black"/>
<path d="M75.6173 145.079C75.6173 145.079 77.9642 142.981 73.646 137.125C69.3279 131.269 69.3279 131.269 69.3279 131.269C69.3279 131.269 79.1411 137.633 79.2211 140.454C79.3012 143.275 82.7777 137.032 82.7777 137.032L80.758 146.21L75.6173 145.079Z" fill="#171717"/>
<path d="M183.809 194.174C183.762 194.613 183.721 195.052 183.702 195.49C183.69 195.704 183.678 195.947 183.696 196.28C183.719 196.685 183.819 197.092 183.997 197.461C184.323 198.114 184.918 198.596 185.619 198.848C186.245 199.063 186.757 199.091 187.274 199.065C188.244 198.991 189.05 198.769 189.835 198.479C191.378 197.901 192.654 197.137 193.88 196.629C195.102 196.106 196.201 195.892 197.35 196.082C197.492 196.106 197.633 196.137 197.773 196.168L197.939 196.211C197.962 196.168 197.891 196.299 197.74 196.413C197.443 196.649 196.906 196.86 196.341 196.974C195.761 197.092 195.09 197.148 194.366 197.191L190.025 197.428C188.579 197.502 186.913 197.521 185.209 198.225C184.376 198.574 183.57 199.084 182.895 199.826C182.464 200.319 182.023 200.986 181.855 201.622C181.679 202.263 181.732 202.913 182.064 203.476C182.367 203.978 182.831 204.318 183.427 204.512C183.721 204.605 184.065 204.667 184.367 204.698L185 204.781L186.997 205.039L190.991 205.553C192.279 205.717 193.356 205.506 193.402 205.074L193.548 203.712C193.593 203.252 192.479 202.741 191.135 202.606L187.286 202.229L185.359 202.036L185.119 202.011C185.023 202.004 185.064 202.006 185.023 202.004L184.945 202.008C184.895 202.011 184.833 202.004 184.793 201.967C184.746 201.922 184.746 201.859 184.76 201.799C184.782 201.727 184.783 201.692 184.868 201.591C185.196 201.187 185.677 200.844 186.217 200.592C187.303 200.081 188.682 199.964 190.134 199.863L194.526 199.49C195.96 199.343 197.652 199.232 199.087 198.125C199.431 197.837 199.763 197.475 199.968 196.959C200.161 196.462 200.171 195.911 199.997 195.424C199.826 194.931 199.434 194.543 198.949 194.359C198.419 194.158 198.104 194.124 197.69 194.061C196.109 193.825 194.499 194.228 193.154 194.864C191.783 195.488 190.552 196.275 189.236 196.806C188.581 197.075 187.894 197.267 187.204 197.347C186.533 197.402 185.797 197.275 185.478 196.686C185.295 196.338 185.318 195.915 185.327 195.462C185.339 195.023 185.367 194.58 185.409 194.134C185.515 192.952 185.414 191.977 185.014 191.882C184.58 191.786 183.959 192.792 183.809 194.174Z" fill="#242424"/>
<path d="M182.668 207.94C185.064 208.39 187.405 208.961 189.571 209.852C191.731 210.74 193.735 211.952 195.302 213.559C195.565 213.827 196.028 213.824 196.364 213.54L197.39 212.637C197.735 212.342 197.734 211.774 197.349 211.451C195.256 209.659 192.82 208.499 190.358 207.74C187.889 206.986 185.382 206.624 182.891 206.384C182.493 206.346 182.136 206.631 182.069 207.03C181.995 207.463 182.264 207.865 182.668 207.94Z" fill="#242424"/>
<path d="M181.203 209.475C181.955 209.69 182.761 210.168 183.6 210.752C184.433 211.328 185.236 211.946 185.993 212.618C187.514 213.954 188.875 215.474 190.041 217.118C190.232 217.398 190.687 217.435 191.048 217.192L192.183 216.433C192.568 216.181 192.67 215.685 192.408 215.375C190.92 213.667 189.24 212.162 187.44 210.882C186.536 210.242 185.598 209.664 184.64 209.145C183.689 208.627 182.663 208.128 181.58 207.953C181.228 207.897 180.916 208.199 180.87 208.603C180.811 209.031 180.96 209.401 181.203 209.475Z" fill="#242424"/>
<path d="M180.542 168.168C180.542 168.168 179.112 161.034 183.859 158.575C188.605 156.115 188.605 156.115 188.605 156.115C188.605 156.115 181.626 155.981 179.406 159.697C177.187 163.414 177.842 157.251 177.842 157.251L176.618 167.305L180.542 168.168Z" fill="#1C1C1C"/>
<path d="M56.2508 203.271L59.08 173.693L60.4972 158.909L61.2058 151.516L61.3809 149.67L61.4725 148.744C61.503 148.414 61.5226 148.166 61.5688 147.924C61.6495 147.43 61.7955 146.957 61.9935 146.503C62.0933 146.273 62.2005 146.072 62.3448 145.831L62.5904 145.415L63.123 145.161C63.367 145.039 63.6266 144.942 63.8819 144.865C64.4005 144.706 64.9349 144.635 65.4799 144.642C65.7523 144.646 66.0189 144.677 66.2893 144.722L67.2467 144.926L69.2789 145.373L77.4077 147.162L93.6653 150.74L126.181 157.895L158.696 165.05L174.953 168.628L183.082 170.416L185.115 170.864L186.076 171.082C186.342 171.148 186.595 171.238 186.845 171.343C187.338 171.556 187.8 171.847 188.205 172.202C188.411 172.381 188.599 172.577 188.778 172.784L189.156 173.232L189.231 174.005C189.254 174.347 189.249 174.689 189.21 175.024C189.177 175.367 189.11 175.703 189.018 176.026C188.974 176.191 188.92 176.341 188.852 176.522L188.63 177.118L186.869 181.903L183.348 191.473L176.306 210.605L169.264 229.738L167.503 234.523L167.066 235.716L166.959 236.008L166.858 236.245C166.801 236.408 166.726 236.56 166.639 236.702C166.325 237.298 165.898 237.835 165.4 238.286C164.396 239.187 163.062 239.706 161.749 239.684L161.258 239.653L160.771 239.574L159.534 239.301L157.048 238.754L77.3906 221.225C67.5772 219.066 59.5472 217.656 59.453 218.084L59.1588 219.421C59.0588 219.875 67.9319 222.199 78.3357 224.447L157.27 241.501L159.738 242.038C160.119 242.121 160.629 242.226 161.117 242.271C161.611 242.317 162.103 242.313 162.598 242.26C164.562 242.062 166.401 241.093 167.712 239.657C168.368 238.939 168.895 238.102 169.26 237.208L169.397 236.874L169.505 236.575L169.719 235.985L170.149 234.797L171.872 230.053L178.774 211.078L185.676 192.104L189.13 182.618L190.854 177.874L191.068 177.283C191.145 177.062 191.221 176.84 191.285 176.616C191.406 176.159 191.493 175.701 191.54 175.235C191.586 174.769 191.591 174.3 191.555 173.83L191.396 172.288L190.557 171.29C190.308 170.99 190.033 170.712 189.738 170.458C189.151 169.944 188.479 169.523 187.762 169.217C187.403 169.061 187.031 168.937 186.653 168.84C186.26 168.747 185.958 168.687 185.61 168.611L183.577 168.17L175.44 166.415L159.17 162.897L126.626 155.869L94.0831 148.841L77.8122 145.324L69.6761 143.568L67.6424 143.128C66.9806 142.982 66.2549 142.808 65.5191 142.808C64.7863 142.794 64.0552 142.899 63.3637 143.111C63.018 143.218 62.673 143.352 62.3504 143.512L61.3217 144.015L60.7846 144.927C60.6181 145.205 60.4606 145.507 60.3313 145.808C60.0645 146.415 59.887 147.063 59.7844 147.72C59.6386 149.02 59.5409 150.26 59.421 151.537L58.7233 159.135L57.3277 174.331L54.5365 204.723C54.3238 207.059 54.1406 209.261 53.9962 211.255C53.8556 213.264 54.5927 215.01 55.5178 216.124C56.4452 217.261 57.528 217.786 58.2553 218.016C59.0071 218.231 59.4376 218.186 59.4553 218.105C59.4818 217.985 59.0486 217.82 58.3744 217.412C58.0413 217.205 57.6547 216.924 57.2523 216.555C56.8595 216.174 56.4687 215.689 56.1364 215.097C55.804 214.505 55.5464 213.797 55.4297 213.021C55.2922 212.213 55.3895 211.485 55.5259 210.323C55.7649 208.154 56.0161 205.77 56.2508 203.271Z" fill="#666666"/>
<path d="M195.036 200.695C194.148 200.493 193.227 200.346 192.28 200.32C191.326 200.292 190.405 200.433 189.527 200.569C188.647 200.712 187.763 200.847 186.876 201.023C186.43 201.107 185.987 201.206 185.549 201.32L185.34 201.379L185.287 201.396L185.172 201.44C185.197 201.327 185.138 201.405 185.545 200.667C185.861 200.127 186.245 199.623 186.665 199.148C187.51 198.205 188.543 197.43 189.668 196.837C190.801 196.245 192.032 195.843 193.302 195.646C193.941 195.541 194.566 195.504 195.231 195.475C195.897 195.446 196.6 195.405 197.278 195.154L197.537 195.064L197.491 194.795C197.431 194.431 197.13 194.204 196.9 194.104C196.664 193.996 196.415 193.948 196.204 193.923C195.777 193.857 195.347 193.804 194.918 193.78C194.056 193.716 193.199 193.724 192.342 193.795C190.629 193.936 188.94 194.35 187.358 195.011C186.957 195.175 186.586 195.367 186.218 195.447C186.049 195.48 185.936 195.483 185.797 195.445C185.764 195.438 185.732 195.424 185.7 195.41C185.691 195.387 185.7 195.347 185.701 195.312L185.71 195.111C185.765 194.317 185.845 193.444 185.936 192.616C186.13 190.942 186.405 189.278 186.755 187.624C186.366 189.263 186.049 190.924 185.815 192.597C185.7 193.434 185.6 194.273 185.521 195.111L185.494 195.421C185.491 195.469 185.478 195.529 185.489 195.574C185.533 195.597 185.583 195.623 185.63 195.633C185.826 195.697 186.044 195.696 186.255 195.658C186.672 195.582 187.058 195.386 187.454 195.242C189.026 194.628 190.69 194.265 192.371 194.173C193.209 194.126 194.053 194.143 194.884 194.221C195.303 194.257 195.717 194.32 196.129 194.39C196.524 194.442 196.959 194.6 196.995 194.882L197.109 194.683C195.909 195.07 194.54 194.825 193.202 195.049C191.866 195.225 190.56 195.617 189.343 196.212C188.131 196.814 187.003 197.61 186.068 198.61C185.096 199.685 184.494 200.443 183.646 202.835L184.772 202.495L185.34 202.332L185.769 202.23C186.197 202.135 186.621 202.054 187.052 201.973C187.912 201.826 188.792 201.711 189.674 201.59C190.554 201.475 191.405 201.368 192.235 201.418C193.073 201.462 193.914 201.619 194.752 201.824C195.642 202.048 196.47 202.013 196.562 201.69C196.639 201.371 195.97 200.908 195.036 200.695Z" fill="black"/>
<path d="M192.302 209.541C188.35 207.179 183.373 206.834 179.246 208.547L179.446 208.689L179.447 208.206L179.405 208.687L179.259 208.585C183.503 207.227 188.237 208.044 191.66 210.515C191.872 210.666 192.208 210.572 192.401 210.299C192.6 210.034 192.548 209.694 192.302 209.541Z" fill="black"/>
<path d="M194.174 209.231C193.54 208.482 192.734 207.94 191.901 207.553C191.062 207.165 190.184 206.916 189.311 206.745C187.564 206.403 185.824 206.314 184.169 205.81C185.756 206.495 187.52 206.792 189.166 207.309C190.793 207.814 192.385 208.634 193.248 209.938C193.347 210.093 193.653 210.07 193.931 209.892C194.213 209.723 194.331 209.413 194.174 209.231Z" fill="black"/>
<path d="M82.9822 132.704C82.624 134.714 81.9353 136.665 80.9583 138.462C80.4724 139.364 79.9121 140.222 79.2842 141.037C79.2058 141.139 79.1273 141.241 79.0436 141.334L78.8718 141.542C78.8496 141.579 78.7866 141.642 78.7405 141.597C78.7592 141.671 78.4422 140.978 78.1941 140.545C77.1456 138.653 75.7553 137.008 74.2822 135.486C73.5449 134.728 72.7816 133.992 72.0154 133.27C71.2396 132.559 70.509 131.803 69.6205 131.159L69.0405 130.737L69.1518 131.441C69.2557 132.116 69.5702 132.725 69.9522 133.25C70.3342 133.776 70.782 134.225 71.2261 134.659C72.1173 135.514 72.9433 136.411 73.6722 137.398C75.1143 139.348 76.1756 141.691 76.1027 144.156C76.2439 141.699 75.2456 139.293 73.8464 137.275C73.1449 136.259 72.3226 135.314 71.4588 134.43C70.6151 133.55 69.7422 132.58 69.5853 131.382L69.3747 131.511C70.1964 132.141 70.9092 132.914 71.6591 133.647C72.4008 134.385 73.1396 135.136 73.8391 135.907C75.2462 137.443 76.5451 139.088 77.4955 140.917C77.6066 141.144 77.731 141.375 77.834 141.608L78.0272 142.036C78.1145 142.244 78.2173 142.414 78.3615 142.523C78.5043 142.638 78.7278 142.674 78.9022 142.614C79.0818 142.562 79.2411 142.443 79.3893 142.279L79.7189 141.896C79.804 141.796 79.8959 141.697 79.9758 141.589C80.6564 140.757 81.2708 139.876 81.8123 138.944C82.8939 137.086 83.6782 135.051 84.1245 132.928C84.2906 132.109 84.099 131.387 83.776 131.358C83.4448 131.334 83.115 131.942 82.9822 132.704Z" fill="black"/>
<path d="M81.3406 140.535L80.0841 144.303L82.3819 141.059C82.4315 140.992 82.2188 140.812 81.9222 140.663C81.6309 140.522 81.3717 140.458 81.3406 140.535Z" fill="black"/>
<path d="M179.762 164.674C180.264 162.612 181.833 160.869 183.706 159.711C184.649 159.12 185.668 158.629 186.717 158.194C187.243 157.973 187.778 157.769 188.315 157.558L188.721 157.402L188.928 157.321C189.02 157.285 189.1 157.24 189.188 157.189C189.35 157.091 189.503 156.971 189.637 156.776C189.702 156.671 189.773 156.54 189.778 156.359C189.789 156.179 189.712 155.987 189.611 155.873L189.46 155.7L189.243 155.729C187.267 155.981 185.336 156.51 183.513 157.279C182.602 157.66 181.716 158.117 180.863 158.616C180.437 158.866 180.021 159.132 179.614 159.421C179.401 159.563 179.222 159.706 179.045 159.779C178.851 159.862 178.703 159.865 178.667 159.808C178.655 159.798 178.655 159.798 178.647 159.768C178.636 159.724 178.626 159.673 178.615 159.628C178.596 159.526 178.583 159.425 178.569 159.331C178.544 159.122 178.517 158.99 178.496 158.831L178.349 157.909L178.205 157.001C178.19 156.942 178.185 156.807 178.168 156.818L178.081 157.058L177.913 157.532C177.706 158.153 177.501 158.738 177.33 159.387C177.132 160.094 177.061 160.513 176.96 161.002C176.61 162.944 176.545 164.927 176.76 166.88C176.602 164.925 176.735 162.95 177.134 161.04C177.338 160.083 177.615 159.142 177.908 158.351L178.021 158.061L178.08 157.92C178.094 157.922 178.092 158.027 178.103 158.072L178.172 158.774L178.236 159.44C178.272 159.658 178.22 159.864 178.399 160.071C178.618 160.316 178.971 160.239 179.195 160.148C179.439 160.055 179.643 159.896 179.845 159.773C180.248 159.504 180.666 159.259 181.089 159.023C181.935 158.557 182.811 158.141 183.715 157.793C185.515 157.096 187.408 156.65 189.32 156.461L189.037 156.35C189.139 156.33 189.004 156.307 189.005 156.364C188.965 156.418 188.879 156.49 188.783 156.546C188.631 156.632 188.287 156.731 188.035 156.823C187.489 157.011 186.942 157.206 186.398 157.416C185.312 157.829 184.234 158.3 183.205 158.9C181.164 160.084 179.315 161.927 178.624 164.368C178.391 165.172 178.668 165.885 178.993 165.872C179.347 165.859 179.6 165.312 179.762 164.674Z" fill="black"/>
<path d="M148.609 128.622C143.188 129.945 137.356 129.727 131.969 127.96C137.218 130.096 143.129 130.752 148.848 129.767C149.198 129.704 149.422 129.389 149.339 129.063C149.257 128.736 148.929 128.538 148.609 128.622Z" fill="black"/>
<path d="M145.286 99.7996C145.385 100.018 145.544 100.319 145.808 100.615C146.161 101.015 146.541 101.232 146.787 101.356C146.012 101.186 145.243 101.017 144.467 100.846C143.554 101.367 141.942 102.098 139.878 102.114C135.021 102.145 132.002 98.187 131.624 97.6763C132.032 97.9271 137.061 101.031 140.172 100.777C140.487 100.748 141.975 100.641 143.809 100.175C144.292 100.05 144.79 99.9217 145.286 99.7996Z" fill="#8C7768"/>
<path d="M147.142 99.3321C147.704 99.3926 148.166 99.7747 148.332 100.295C148.559 101.017 148.065 101.603 148.038 101.632C148.018 101.277 147.941 100.734 147.664 100.148C147.501 99.8036 147.309 99.53 147.142 99.3321Z" fill="#8C7768"/>
<path d="M134.453 102.848C135.066 103.277 136.151 103.922 137.648 104.252C138.377 104.412 139.627 104.589 141.138 104.319C140.021 104.073 138.912 103.829 137.795 103.583C136.679 103.338 135.562 103.092 134.453 102.848Z" fill="#8C7768"/>
<path d="M119.656 91.9307C120.13 93.9483 120.903 96.4242 122.191 99.1047C123.688 102.238 125.422 104.68 126.884 106.445C125.888 104.663 124.887 102.81 123.902 100.883C122.329 97.8104 120.92 94.8161 119.656 91.9307Z" fill="#CCB7A8"/>
<path d="M159.679 100.738C158.401 102.37 156.661 104.293 154.366 106.185C151.692 108.4 149.094 109.889 147.026 110.878C148.677 109.678 150.364 108.416 152.066 107.081C154.784 104.953 157.32 102.826 159.679 100.738Z" fill="#CCB7A8"/>
<defs>
<linearGradient id="paint0_linear_130_30" x1="9.8526" y1="172.219" x2="213.184" y2="86.7757" gradientUnits="userSpaceOnUse">
<stop stop-color="#ECBFA8"/>
<stop offset="0.21875" stop-color="#DDC6F4"/>
<stop offset="0.484375" stop-color="#C8D7F8"/>
<stop offset="0.708333" stop-color="white"/>
<stop offset="0.708433" stop-color="#CEEAF1"/>
<stop offset="1" stop-color="#8BCFE5"/>
</linearGradient>
</defs>
</svg>
