<svg width="119" height="110" viewBox="0 0 119 110" fill="none" xmlns="http://www.w3.org/2000/svg">
<circle cx="54.2909" cy="55.7434" r="48" transform="rotate(-8.5 54.2909 55.7434)" fill="#F9D78F" stroke="black"/>
<path d="M16.367 52.311L6.32904 52.8001" stroke="black"/>
<line x1="16.562" y1="57.3349" x2="6.52402" y2="57.8239" stroke="black"/>
<path d="M13.2231 31.4697C11.8107 33.7857 10.1938 38.0671 10.1938 38.0671L18.9455 37.9306L21.5744 32.3414L24.6619 27.2266L16.1766 27.3892C16.1766 27.3892 14.3271 29.6595 13.2231 31.4697Z" fill="white"/>
<circle cx="64.181" cy="54.2654" r="48" transform="rotate(-8.5 64.181 54.2654)" fill="#FCE791" stroke="black"/>
<path d="M27.2498 38.2437C27.2498 38.2437 27.6932 33.8736 34.0051 26.9934C40.3418 20.0861 43.7209 18.896 43.7209 18.896" stroke="white" stroke-width="5" stroke-linecap="round"/>
<path d="M27.9021 72.7568C27.9021 72.7568 31.9363 82.2487 41.9954 88.6732C50.8639 94.3374 60.9496 96.1131 60.9496 96.1131" stroke="#FEF3BB" stroke-width="5" stroke-linecap="round"/>
<path d="M85.6972 89.1924C85.6972 89.1924 90.2342 87.9648 94.9918 83.0805C99.3311 78.6257 100.809 73.0695 100.809 73.0695" stroke="white" stroke-width="5" stroke-linecap="round"/>
<path d="M103.346 67.7836L104.093 64.5596" stroke="white" stroke-width="5" stroke-linecap="round"/>
<path d="M96.4271 29.8252C96.4271 29.8252 100.291 32.2601 102.454 39.3371C104.47 45.9326 104.465 51.4515 104.465 51.4515" stroke="#FDEEA7" stroke-width="5" stroke-linecap="round"/>
<path d="M61.953 30.5687L60.3357 28.5355L59.3835 30.9528L46.1536 64.5388L45.2014 66.9561L47.771 66.572L83.4722 61.2364L86.0418 60.8524L84.4244 58.8191L61.953 30.5687Z" stroke="black" stroke-width="3"/>
<path d="M66.4091 77.9617L68.0264 79.995L68.9786 77.5777L77.47 56.0211L78.4222 53.6038L75.8526 53.9878L52.9384 57.4124L50.3688 57.7964L51.9862 59.8297L66.4091 77.9617Z" fill="#FCE791" stroke="black" stroke-width="3"/>
</svg>
