<svg width="175" height="177" viewBox="0 0 175 177" fill="none" xmlns="http://www.w3.org/2000/svg">
<path fill-rule="evenodd" clip-rule="evenodd" d="M45.8117 35.0316C49.7075 32.8815 53.6029 30.7411 57.5582 28.7096C61.5154 26.682 65.5333 24.7679 69.6575 23.0733C78.1436 19.5846 87.1268 18.7495 95.6223 20.3392C96.0757 18.7168 96.797 17.1281 97.7973 15.6405C102.529 8.6036 111.708 6.49219 118.3 10.9245C124.893 15.3568 126.401 24.6545 121.67 31.6913C121.203 32.386 120.693 33.0327 120.146 33.6298C123.46 37.0733 126.346 41.1193 128.66 45.7345L163.596 115.399C165.503 119.202 163.966 123.831 160.163 125.738L73.2922 169.303C69.4891 171.21 64.86 169.673 62.9528 165.87L28.0171 96.2055C25.6972 91.5794 24.1893 86.7912 23.4334 82.0004C22.7283 82.0577 22.0102 82.07 21.2826 82.0341C12.8133 81.6171 6.26432 74.8471 6.65499 66.913C7.04566 58.9788 14.2281 52.8849 22.6973 53.3019C24.4051 53.386 26.0347 53.7284 27.5452 54.2866C31.4499 46.3134 37.6807 39.5183 45.8117 35.0316Z" fill="white"/>
<path d="M22.9441 62.6249C25.0623 62.7292 31.6395 63.6649 33.0286 64.9763C34.5944 66.4546 35.5209 68.5173 35.4109 70.7541C35.2715 73.5833 33.5084 75.9725 31.0041 77.1736C29.7652 77.7499 23.6771 77.9839 22.1916 77.9107C17.6861 77.6892 14.202 74.0874 14.4098 69.8663C14.6176 65.6453 18.4384 62.403 22.9441 62.6249Z" fill="#76E1FE"/>
<path d="M86.1484 78.7523L79.5458 82.0635C78.3074 82.6845 77.8069 84.1919 78.4279 85.4304L82.5401 93.6304C83.1612 94.8688 84.6686 95.3693 85.907 94.7483L92.5097 91.4371C93.7481 90.8161 94.2486 89.3087 93.6275 88.0702L89.5153 79.8702C88.8943 78.6318 87.3869 78.1313 86.1484 78.7523Z" fill="black" fill-opacity="0.328502"/>
<path d="M60.8315 36.0552C28.5032 52.2673 24.4196 71.0169 33.9392 89.9997L67.974 157.868C69.0743 160.062 71.7449 160.948 73.939 159.848L152.176 120.613C154.38 119.508 155.266 116.826 154.15 114.627C140.911 88.5667 123.573 53.5969 120.148 46.7672C110.628 27.7841 93.1598 19.843 60.8315 36.0552Z" fill="#76E1FE"/>
<path d="M103.643 22.1555C102.46 23.9154 99.2763 29.7461 99.4965 31.6438C99.7447 33.7828 100.844 35.7591 102.702 37.0087C105.053 38.5891 108.022 38.6051 110.482 37.3164C111.685 36.6683 115.514 31.9291 116.344 30.6949C118.861 26.9515 118.058 22.005 114.551 19.6469C111.044 17.2889 106.16 18.4118 103.643 22.1555Z" fill="#76E1FE"/>
<path d="M100.401 68.5644C109.633 63.9346 113.365 52.6974 108.735 43.4652C104.105 34.233 92.8673 30.5018 83.6351 35.1316C74.4028 39.7614 70.672 50.9991 75.3018 60.2313C79.9316 69.4635 91.1689 73.1943 100.401 68.5644Z" fill="white"/>
<path d="M61.7979 88.7234C71.3831 83.9166 75.2568 72.25 70.45 62.6649C65.6432 53.0797 53.9762 49.206 44.3911 54.0128C34.806 58.8196 30.9324 70.4867 35.7392 80.0718C40.546 89.6569 52.2128 93.5302 61.7979 88.7234Z" fill="white"/>
<path d="M87.2461 79.2488L79.2877 83.2398C77.8476 83.9619 77.2658 85.7149 77.9879 87.155L82.7697 96.6902C83.4919 98.1303 85.2446 98.712 86.6846 97.9898L94.643 93.9988C96.0831 93.2766 96.6652 91.5241 95.943 90.084L91.1612 80.5488C90.4391 79.1087 88.6861 78.5266 87.2461 79.2488Z" fill="black" fill-opacity="0.329412"/>
<path d="M85.9997 76.7634L78.0414 80.7544C76.6013 81.4766 76.0192 83.2291 76.7414 84.6692L81.5231 94.2044C82.2453 95.6445 83.9982 96.2266 85.4383 95.5045L93.3967 91.5135C94.8367 90.7913 95.4186 89.0383 94.6964 87.5982L89.9147 78.063C89.1925 76.6229 87.4398 76.0412 85.9997 76.7634Z" fill="#FFFCFB"/>
<path d="M98.9166 76.1458C100.426 79.156 98.0716 82.2706 93.3127 84.1972C93.2277 84.2399 92.0588 82.1268 91.3492 82.56C89.6156 83.6181 87.3766 84.4622 85.2571 85.5251C83.0554 86.6292 81.2529 88.3544 79.2335 88.6226C78.7691 88.6847 79.6446 91.0406 79.3416 91.1827C74.8148 93.3044 71.2652 93.7123 69.7818 90.7543C67.5989 86.4015 72.3513 79.6025 80.3964 75.5679C88.4415 71.5334 96.7337 71.793 98.9166 76.1458Z" fill="black" fill-opacity="0.329412"/>
<path d="M97.3448 73.2115C98.3688 75.2535 97.3278 77.0649 95.0581 78.8536C94.1175 79.595 92.9669 80.3343 91.6629 81.0808C89.6945 82.2118 87.3804 83.3679 84.9254 84.599C82.5086 85.811 80.2299 86.9535 78.1743 87.854C77.0435 88.3446 75.9796 88.7613 74.9943 89.0711C71.8336 90.0637 69.4838 89.9599 68.3717 87.7422C66.2819 83.575 71.0737 76.9442 79.0745 72.9319C87.0754 68.9196 95.255 69.0443 97.3448 73.2115Z" fill="#C38C74"/>
<path d="M81.9455 78.6565C86.0722 76.587 88.3338 72.7483 86.997 70.0825C85.6602 67.4168 81.2311 66.9334 77.1044 69.0029C72.9777 71.0724 70.7161 74.911 72.0529 77.5768C73.3897 80.2426 77.8188 80.7259 81.9455 78.6565Z" fill="#23201F"/>
<path d="M64.0832 74.6829C67.9775 72.7299 69.5515 67.9899 67.5985 64.0955C65.6455 60.2011 60.9052 58.6271 57.0108 60.58C53.1164 62.533 51.5427 67.2735 53.4957 71.1679C55.4487 75.0622 60.1888 76.6359 64.0832 74.6829Z" fill="#171311"/>
<path d="M102.503 55.4153C106.398 53.4623 107.972 48.7223 106.019 44.8279C104.066 40.9336 99.3253 39.3595 95.431 41.3125C91.5366 43.2654 89.9629 48.0059 91.9159 51.9003C93.8688 55.7947 98.609 57.3683 102.503 55.4153Z" fill="#171311"/>
<path d="M28.3838 69.9073C22.2278 68.1237 19.712 70.7851 19.6967 70.9087" stroke="#384E54" stroke-width="1.59655" stroke-linecap="round"/>
<path d="M25.512 69.7411C21.4153 71.9574 21.8101 74.4312 21.878 74.496M105.881 30.5934C108.134 24.5931 111.771 24.169 111.88 24.2307" stroke="#384E54" stroke-width="1.59655" stroke-linecap="round"/>
<path d="M107.464 27.5542C111.69 25.5965 113.437 27.3921 113.448 27.4854" stroke="#384E54" stroke-width="1.59655" stroke-linecap="round"/>
</svg>
