<svg width="201" height="202" viewBox="0 0 201 202" fill="none" xmlns="http://www.w3.org/2000/svg">
<mask id="path-1-outside-1_136_321" maskUnits="userSpaceOnUse" x="6.10352e-05" y="0.966797" width="201" height="201" fill="black">
<rect fill="white" x="6.10352e-05" y="0.966797" width="201" height="201"/>
<path d="M185.586 16.3806C190.082 33.1904 189.438 51.0885 183.658 67.5917H183.654L134.375 18.313V18.3086C150.879 12.5291 168.777 11.885 185.586 16.3806Z"/>
<path d="M139.542 62.4208C148.506 71.381 148.506 85.9163 139.542 94.8764C130.582 103.841 116.046 103.841 107.086 94.8764C98.1215 85.9163 98.1215 71.381 107.086 62.4208C116.046 53.4562 130.582 53.4562 139.542 62.4208Z"/>
<path fill-rule="evenodd" clip-rule="evenodd" d="M48.0742 101.331L28.6084 93.8327C31.8247 88.2842 25.8094 83.0645 30.5538 78.3156C46.0175 62.852 66.5232 55.5044 86.7845 56.2773L86.7892 56.277L101.764 38.8454C111.284 29.3255 122.465 22.4799 134.375 18.3086V18.313L183.654 67.5917H183.658C179.487 79.5016 172.641 90.6828 163.122 100.203L145.69 115.178C146.463 135.435 139.115 155.949 123.652 171.413C118.903 176.157 113.683 170.142 108.135 173.358L100.631 153.888L82.8888 160.423C78.0111 162.222 72.5338 161.018 68.86 157.34L65.817 154.297L65.8125 154.297L47.6701 136.15L44.6227 133.107C40.9489 129.429 39.745 123.956 41.5397 119.078L48.0742 101.331ZM139.542 62.4208C148.506 71.381 148.506 85.9163 139.542 94.8764C130.582 103.841 116.046 103.841 107.086 94.8764C98.1215 85.9163 98.1215 71.381 107.086 62.4208C116.046 53.4562 130.582 53.4562 139.542 62.4208Z"/>
<path d="M20.8296 159.761C19.6928 159.761 18.5556 159.327 17.6884 158.46C15.9537 156.725 15.9537 153.912 17.6884 152.177L26.813 143.052C28.5477 141.318 31.3606 141.318 33.0957 143.052C34.8305 144.787 34.8305 147.6 33.0957 149.335L23.9712 158.46C23.1036 159.327 21.9668 159.761 20.8296 159.761Z"/>
<path d="M12.4425 193.958C11.3053 193.958 10.1685 193.524 9.30088 192.656C7.56616 190.922 7.5666 188.109 9.30133 186.374L39.7179 155.962C41.4526 154.228 44.2655 154.228 46.0002 155.962C47.735 157.697 47.7345 160.51 45.9993 162.245L15.5828 192.657C14.7161 193.524 13.5793 193.958 12.4425 193.958Z"/>
<path d="M40.5579 191.657C39.4207 191.657 38.2844 191.223 37.4168 190.356C35.6821 188.621 35.6821 185.808 37.4168 184.073L52.6228 168.867C54.3576 167.133 57.1704 167.133 58.9052 168.867C60.6399 170.602 60.6399 173.415 58.9052 175.15L43.6991 190.356C42.832 191.223 41.6947 191.657 40.5579 191.657Z"/>
<path d="M100.631 158.331C99.4942 158.331 98.3579 157.897 97.4903 157.029L44.9332 104.472C43.1985 102.738 43.1985 99.9247 44.9332 98.1895C46.6679 96.4552 49.4808 96.4552 51.216 98.1895L103.773 150.747C105.508 152.482 105.508 155.295 103.773 157.03C102.905 157.897 101.768 158.331 100.631 158.331Z"/>
<path d="M123.314 106.042C115.996 106.042 109.117 103.192 103.944 98.0167C98.7701 92.8454 95.9199 85.9665 95.9199 78.6482C95.9199 71.3299 98.7701 64.451 103.945 59.2779C109.116 54.1044 115.995 51.2542 123.313 51.2542C130.632 51.2542 137.511 54.1044 142.684 59.2792C147.857 64.4505 150.707 71.3295 150.707 78.6477C150.707 85.9651 147.857 92.8436 142.684 98.0163L142.682 98.018C137.51 103.192 130.631 106.042 123.314 106.042ZM123.314 60.1397C118.37 60.1397 113.722 62.065 110.228 65.5611C106.73 69.0568 104.805 73.7043 104.805 78.6486C104.805 83.5929 106.73 88.2405 110.226 91.7344C113.722 95.2323 118.37 97.1576 123.314 97.1576C128.258 97.1576 132.906 95.2323 136.4 91.7361L136.401 91.7344C139.898 88.2405 141.823 83.5929 141.823 78.6486C141.823 73.7043 139.898 69.0568 136.401 65.5629C132.906 62.065 128.258 60.1397 123.314 60.1397Z"/>
<path d="M47.6661 140.593C46.862 140.593 46.0482 140.375 45.3161 139.917C43.2353 138.617 42.6027 135.876 43.9026 133.796L57.4472 112.118C58.7475 110.037 61.4884 109.403 63.5687 110.704C65.6495 112.004 66.2821 114.745 64.9823 116.825L51.4376 138.504C50.5949 139.852 49.1472 140.593 47.6661 140.593Z"/>
<path d="M56.7413 149.668C55.6045 149.668 54.4677 149.234 53.6001 148.367C51.8654 146.632 51.865 143.819 53.5997 142.084L71.2135 124.47C72.9482 122.736 75.7611 122.736 77.4958 124.47C79.2306 126.205 79.231 129.018 77.4963 130.753L59.8825 148.366C59.0153 149.234 57.8781 149.668 56.7413 149.668Z"/>
<path d="M65.8214 158.74C64.3403 158.74 62.8926 158 62.0499 156.651C60.7501 154.57 61.3831 151.829 63.4634 150.53L85.1419 136.985C87.2223 135.684 89.9632 136.318 91.2635 138.399C92.5633 140.48 91.9303 143.22 89.8499 144.52L68.1714 158.064C67.4389 158.522 66.6255 158.74 65.8214 158.74Z"/>
<path d="M86.7874 60.7194C85.7626 60.7194 84.7328 60.3667 83.8946 59.6466C82.0337 58.0478 81.8209 55.2434 83.4197 53.382L98.3947 35.9504C99.9931 34.0899 102.798 33.8767 104.659 35.4759C106.52 37.0747 106.733 39.8792 105.134 41.74L90.1587 59.1717C89.2804 60.1943 88.0375 60.7194 86.7874 60.7194Z"/>
<path d="M78.3066 165.682C73.6652 165.682 69.1007 163.867 65.717 160.479L62.7931 157.555C62.7518 157.517 62.7113 157.478 62.6718 157.438L41.4846 136.25C36.6016 131.361 34.9886 124.02 37.3715 117.544L43.9061 99.7963C44.0896 99.2988 44.3601 98.8381 44.7053 98.4365L83.4157 53.3825C85.0154 51.522 87.8193 51.3093 89.6802 52.908C91.5411 54.5073 91.7535 57.3117 90.1547 59.1726L51.9663 103.618L45.7088 120.613C44.5174 123.851 45.325 127.523 47.7665 129.968L68.8373 151.039C68.8782 151.078 68.919 151.116 68.9586 151.156L72.0016 154.199C74.4435 156.644 78.1124 157.45 81.3518 156.256L98.3445 149.997L160.227 96.8337C162.089 95.2345 164.893 95.4482 166.492 97.3082C168.091 99.169 167.878 101.974 166.017 103.573L103.526 157.258C103.124 157.603 102.664 157.874 102.167 158.057L84.4241 164.592C82.4344 165.325 80.3625 165.682 78.3066 165.682Z"/>
<path d="M163.122 104.645C161.985 104.645 160.848 104.211 159.98 103.344C158.246 101.609 158.246 98.7963 159.98 97.0612C168.814 88.228 175.369 77.8192 179.466 66.1231C184.679 51.236 185.519 35.36 181.925 20.0415C166.608 16.4481 150.731 17.2877 135.843 22.5008C124.147 26.5971 113.738 33.153 104.905 41.9862C103.17 43.7204 100.358 43.7209 98.6222 41.9862C96.8875 40.2514 96.8875 37.4385 98.6222 35.7034C108.406 25.9196 119.941 18.656 132.906 14.1155C150.301 8.02461 168.915 7.32317 186.734 12.0893C188.269 12.4998 189.467 13.6983 189.878 15.2327C194.643 33.0526 193.943 51.666 187.851 69.0603C183.31 82.0252 176.047 93.5597 166.263 103.344C165.396 104.211 164.259 104.645 163.122 104.645Z"/>
<path d="M183.654 72.0345C182.517 72.0345 181.38 71.6004 180.513 70.7333L131.234 21.4542C129.499 19.7195 129.499 16.9066 131.234 15.1714C132.97 13.4367 135.782 13.4376 137.517 15.1714L186.796 64.4505C188.53 66.1852 188.53 68.9981 186.796 70.7333C185.928 71.6004 184.791 72.0345 183.654 72.0345Z"/>
<path d="M48.0788 105.773C47.7092 105.773 47.3369 105.727 46.9784 105.636L17.5125 98.1375C16.1634 97.7941 15.0528 96.8377 14.5135 95.5548C13.9738 94.2714 14.067 92.809 14.7649 91.6046C18.2202 85.6439 22.4746 80.1168 27.4109 75.1761C43.0838 59.5031 64.7793 50.9898 86.9327 51.8374C89.3177 51.9156 91.2288 53.8734 91.2288 56.2771C91.2288 58.7301 89.2422 60.7194 86.7887 60.7194H86.7843C86.7279 60.7194 86.6715 60.7185 86.615 60.7163C66.9187 59.9616 47.627 67.5242 33.695 81.4566C30.7258 84.4281 28.0346 87.6377 25.654 91.0414L49.0783 97.0025C51.0485 97.4574 52.5189 99.2228 52.5189 101.331C52.5189 103.784 50.5323 105.773 48.0788 105.773Z"/>
<path d="M108.135 187.801C107.55 187.801 106.965 187.686 106.413 187.453C105.129 186.914 104.173 185.804 103.829 184.455L96.326 154.985C95.7205 152.607 97.1576 150.189 99.5351 149.584C101.911 148.977 104.331 150.415 104.936 152.792L110.924 176.313C114.328 173.933 117.538 171.241 120.511 168.271C134.442 154.34 142.002 135.049 141.25 115.347C141.157 112.895 143.068 110.832 145.519 110.739C147.967 110.635 150.035 112.557 150.128 115.008C150.974 137.174 142.468 158.878 126.792 174.555C121.85 179.492 116.323 183.746 110.361 187.202C109.676 187.6 108.907 187.801 108.135 187.801Z"/>
</mask>
<path d="M185.586 16.3806C190.082 33.1904 189.438 51.0885 183.658 67.5917H183.654L134.375 18.313V18.3086C150.879 12.5291 168.777 11.885 185.586 16.3806Z" fill="#9E97F8"/>
<path d="M139.542 62.4208C148.506 71.381 148.506 85.9163 139.542 94.8764C130.582 103.841 116.046 103.841 107.086 94.8764C98.1215 85.9163 98.1215 71.381 107.086 62.4208C116.046 53.4562 130.582 53.4562 139.542 62.4208Z" fill="#8ECAC1"/>
<path fill-rule="evenodd" clip-rule="evenodd" d="M48.0742 101.331L28.6084 93.8327C31.8247 88.2842 25.8094 83.0645 30.5538 78.3156C46.0175 62.852 66.5232 55.5044 86.7845 56.2773L86.7892 56.277L101.764 38.8454C111.284 29.3255 122.465 22.4799 134.375 18.3086V18.313L183.654 67.5917H183.658C179.487 79.5016 172.641 90.6828 163.122 100.203L145.69 115.178C146.463 135.435 139.115 155.949 123.652 171.413C118.903 176.157 113.683 170.142 108.135 173.358L100.631 153.888L82.8888 160.423C78.0111 162.222 72.5338 161.018 68.86 157.34L65.817 154.297L65.8125 154.297L47.6701 136.15L44.6227 133.107C40.9489 129.429 39.745 123.956 41.5397 119.078L48.0742 101.331ZM139.542 62.4208C148.506 71.381 148.506 85.9163 139.542 94.8764C130.582 103.841 116.046 103.841 107.086 94.8764C98.1215 85.9163 98.1215 71.381 107.086 62.4208C116.046 53.4562 130.582 53.4562 139.542 62.4208Z" fill="#2C2C2C"/>
<path d="M20.8296 159.761C19.6928 159.761 18.5556 159.327 17.6884 158.46C15.9537 156.725 15.9537 153.912 17.6884 152.177L26.813 143.052C28.5477 141.318 31.3606 141.318 33.0957 143.052C34.8305 144.787 34.8305 147.6 33.0957 149.335L23.9712 158.46C23.1036 159.327 21.9668 159.761 20.8296 159.761Z" fill="#2C2C2C"/>
<path d="M12.4425 193.958C11.3053 193.958 10.1685 193.524 9.30088 192.656C7.56616 190.922 7.5666 188.109 9.30133 186.374L39.7179 155.962C41.4526 154.228 44.2655 154.228 46.0002 155.962C47.735 157.697 47.7345 160.51 45.9993 162.245L15.5828 192.657C14.7161 193.524 13.5793 193.958 12.4425 193.958Z" fill="#2C2C2C"/>
<path d="M40.5579 191.657C39.4207 191.657 38.2844 191.223 37.4168 190.356C35.6821 188.621 35.6821 185.808 37.4168 184.073L52.6228 168.867C54.3576 167.133 57.1704 167.133 58.9052 168.867C60.6399 170.602 60.6399 173.415 58.9052 175.15L43.6991 190.356C42.832 191.223 41.6947 191.657 40.5579 191.657Z" fill="#2C2C2C"/>
<path d="M100.631 158.331C99.4942 158.331 98.3579 157.897 97.4903 157.029L44.9332 104.472C43.1985 102.738 43.1985 99.9247 44.9332 98.1895C46.6679 96.4552 49.4808 96.4552 51.216 98.1895L103.773 150.747C105.508 152.482 105.508 155.295 103.773 157.03C102.905 157.897 101.768 158.331 100.631 158.331Z" fill="#2C2C2C"/>
<path d="M123.314 106.042C115.996 106.042 109.117 103.192 103.944 98.0167C98.7701 92.8454 95.9199 85.9665 95.9199 78.6482C95.9199 71.3299 98.7701 64.451 103.945 59.2779C109.116 54.1044 115.995 51.2542 123.313 51.2542C130.632 51.2542 137.511 54.1044 142.684 59.2792C147.857 64.4505 150.707 71.3295 150.707 78.6477C150.707 85.9651 147.857 92.8436 142.684 98.0163L142.682 98.018C137.51 103.192 130.631 106.042 123.314 106.042ZM123.314 60.1397C118.37 60.1397 113.722 62.065 110.228 65.5611C106.73 69.0568 104.805 73.7043 104.805 78.6486C104.805 83.5929 106.73 88.2405 110.226 91.7344C113.722 95.2323 118.37 97.1576 123.314 97.1576C128.258 97.1576 132.906 95.2323 136.4 91.7361L136.401 91.7344C139.898 88.2405 141.823 83.5929 141.823 78.6486C141.823 73.7043 139.898 69.0568 136.401 65.5629C132.906 62.065 128.258 60.1397 123.314 60.1397Z" fill="#2C2C2C"/>
<path d="M47.6661 140.593C46.862 140.593 46.0482 140.375 45.3161 139.917C43.2353 138.617 42.6027 135.876 43.9026 133.796L57.4472 112.118C58.7475 110.037 61.4884 109.403 63.5687 110.704C65.6495 112.004 66.2821 114.745 64.9823 116.825L51.4376 138.504C50.5949 139.852 49.1472 140.593 47.6661 140.593Z" fill="#2C2C2C"/>
<path d="M56.7413 149.668C55.6045 149.668 54.4677 149.234 53.6001 148.367C51.8654 146.632 51.865 143.819 53.5997 142.084L71.2135 124.47C72.9482 122.736 75.7611 122.736 77.4958 124.47C79.2306 126.205 79.231 129.018 77.4963 130.753L59.8825 148.366C59.0153 149.234 57.8781 149.668 56.7413 149.668Z" fill="#2C2C2C"/>
<path d="M65.8214 158.74C64.3403 158.74 62.8926 158 62.0499 156.651C60.7501 154.57 61.3831 151.829 63.4634 150.53L85.1419 136.985C87.2223 135.684 89.9632 136.318 91.2635 138.399C92.5633 140.48 91.9303 143.22 89.8499 144.52L68.1714 158.064C67.4389 158.522 66.6255 158.74 65.8214 158.74Z" fill="#2C2C2C"/>
<path d="M86.7874 60.7194C85.7626 60.7194 84.7328 60.3667 83.8946 59.6466C82.0337 58.0478 81.8209 55.2434 83.4197 53.382L98.3947 35.9504C99.9931 34.0899 102.798 33.8767 104.659 35.4759C106.52 37.0747 106.733 39.8792 105.134 41.74L90.1587 59.1717C89.2804 60.1943 88.0375 60.7194 86.7874 60.7194Z" fill="#2C2C2C"/>
<path d="M78.3066 165.682C73.6652 165.682 69.1007 163.867 65.717 160.479L62.7931 157.555C62.7518 157.517 62.7113 157.478 62.6718 157.438L41.4846 136.25C36.6016 131.361 34.9886 124.02 37.3715 117.544L43.9061 99.7963C44.0896 99.2988 44.3601 98.8381 44.7053 98.4365L83.4157 53.3825C85.0154 51.522 87.8193 51.3093 89.6802 52.908C91.5411 54.5073 91.7535 57.3117 90.1547 59.1726L51.9663 103.618L45.7088 120.613C44.5174 123.851 45.325 127.523 47.7665 129.968L68.8373 151.039C68.8782 151.078 68.919 151.116 68.9586 151.156L72.0016 154.199C74.4435 156.644 78.1124 157.45 81.3518 156.256L98.3445 149.997L160.227 96.8337C162.089 95.2345 164.893 95.4482 166.492 97.3082C168.091 99.169 167.878 101.974 166.017 103.573L103.526 157.258C103.124 157.603 102.664 157.874 102.167 158.057L84.4241 164.592C82.4344 165.325 80.3625 165.682 78.3066 165.682Z" fill="#2C2C2C"/>
<path d="M163.122 104.645C161.985 104.645 160.848 104.211 159.98 103.344C158.246 101.609 158.246 98.7963 159.98 97.0612C168.814 88.228 175.369 77.8192 179.466 66.1231C184.679 51.236 185.519 35.36 181.925 20.0415C166.608 16.4481 150.731 17.2877 135.843 22.5008C124.147 26.5971 113.738 33.153 104.905 41.9862C103.17 43.7204 100.358 43.7209 98.6222 41.9862C96.8875 40.2514 96.8875 37.4385 98.6222 35.7034C108.406 25.9196 119.941 18.656 132.906 14.1155C150.301 8.02461 168.915 7.32317 186.734 12.0893C188.269 12.4998 189.467 13.6983 189.878 15.2327C194.643 33.0526 193.943 51.666 187.851 69.0603C183.31 82.0252 176.047 93.5597 166.263 103.344C165.396 104.211 164.259 104.645 163.122 104.645Z" fill="#2C2C2C"/>
<path d="M183.654 72.0345C182.517 72.0345 181.38 71.6004 180.513 70.7333L131.234 21.4542C129.499 19.7195 129.499 16.9066 131.234 15.1714C132.97 13.4367 135.782 13.4376 137.517 15.1714L186.796 64.4505C188.53 66.1852 188.53 68.9981 186.796 70.7333C185.928 71.6004 184.791 72.0345 183.654 72.0345Z" fill="#2C2C2C"/>
<path d="M48.0788 105.773C47.7092 105.773 47.3369 105.727 46.9784 105.636L17.5125 98.1375C16.1634 97.7941 15.0528 96.8377 14.5135 95.5548C13.9738 94.2714 14.067 92.809 14.7649 91.6046C18.2202 85.6439 22.4746 80.1168 27.4109 75.1761C43.0838 59.5031 64.7793 50.9898 86.9327 51.8374C89.3177 51.9156 91.2288 53.8734 91.2288 56.2771C91.2288 58.7301 89.2422 60.7194 86.7887 60.7194H86.7843C86.7279 60.7194 86.6715 60.7185 86.615 60.7163C66.9187 59.9616 47.627 67.5242 33.695 81.4566C30.7258 84.4281 28.0346 87.6377 25.654 91.0414L49.0783 97.0025C51.0485 97.4574 52.5189 99.2228 52.5189 101.331C52.5189 103.784 50.5323 105.773 48.0788 105.773Z" fill="#2C2C2C"/>
<path d="M108.135 187.801C107.55 187.801 106.965 187.686 106.413 187.453C105.129 186.914 104.173 185.804 103.829 184.455L96.326 154.985C95.7205 152.607 97.1576 150.189 99.5351 149.584C101.911 148.977 104.331 150.415 104.936 152.792L110.924 176.313C114.328 173.933 117.538 171.241 120.511 168.271C134.442 154.34 142.002 135.049 141.25 115.347C141.157 112.895 143.068 110.832 145.519 110.739C147.967 110.635 150.035 112.557 150.128 115.008C150.974 137.174 142.468 158.878 126.792 174.555C121.85 179.492 116.323 183.746 110.361 187.202C109.676 187.6 108.907 187.801 108.135 187.801Z" fill="#2C2C2C"/>
<path d="M183.654 67.5917L180.826 70.4201L181.997 71.5917H183.654V67.5917ZM134.375 18.313H130.375V19.9699L131.547 21.1415L134.375 18.313ZM139.542 62.4208L136.713 65.2485L136.714 65.2499L139.542 62.4208ZM139.542 94.8764L136.714 92.0473L136.713 92.0487L139.542 94.8764ZM107.086 94.8764L109.915 92.0487L109.914 92.0473L107.086 94.8764ZM107.086 62.4208L109.914 65.25L109.915 65.2485L107.086 62.4208ZM61.2147 114.472L64.0432 111.643L60.4872 108.087L57.8224 112.352L61.2147 114.472ZM183.658 63.5917H183.654V71.5917H183.658V63.5917ZM186.482 64.7633L137.204 15.4846L131.547 21.1415L180.826 70.4201L186.482 64.7633ZM138.375 18.313V18.3086H130.375V18.313H138.375ZM136.714 65.2499C144.116 72.6479 144.116 84.6494 136.714 92.0473L142.369 97.7055C152.897 87.1831 152.897 70.1141 142.369 59.5917L136.714 65.2499ZM136.713 92.0487C129.315 99.4503 117.313 99.4503 109.915 92.0487L104.257 97.7041C114.779 108.232 131.848 108.232 142.371 97.7041L136.713 92.0487ZM109.914 92.0473C102.512 84.6494 102.512 72.6479 109.914 65.2499L104.258 59.5917C93.7308 70.1141 93.7308 87.1831 104.258 97.7055L109.914 92.0473ZM109.915 65.2485C117.313 57.847 129.315 57.847 136.713 65.2485L142.371 59.5931C131.848 49.0655 114.779 49.0655 104.257 59.5931L109.915 65.2485ZM57.8224 112.352L44.2778 134.031L51.0624 138.27L64.607 116.591L57.8224 112.352ZM77.1834 124.783L64.0432 111.643L58.3863 117.3L71.5266 130.44L77.1834 124.783ZM185.586 16.3806L193.315 14.3137L192.12 9.84686L187.653 8.65223L185.586 16.3806ZM183.658 67.5917L191.209 70.2361L191.209 70.2359L183.658 67.5917ZM134.375 18.3086L131.731 10.7582L131.731 10.7583L134.375 18.3086ZM28.6084 93.8327L21.6872 89.8207L16.9871 97.9289L25.7327 101.298L28.6084 93.8327ZM48.0742 101.331L55.5815 104.096L58.3049 96.6993L50.95 93.866L48.0742 101.331ZM30.5538 78.3156L24.897 72.6588L24.8943 72.6614L30.5538 78.3156ZM86.7845 56.2773L86.4796 64.2715L86.8326 64.2849L87.1853 64.2672L86.7845 56.2773ZM86.7892 56.277L87.19 64.267L90.6197 64.0949L92.8574 61.4901L86.7892 56.277ZM101.764 38.8454L96.1074 33.1885L95.8933 33.4026L95.696 33.6323L101.764 38.8454ZM163.122 100.203L168.335 106.271L168.564 106.074L168.778 105.86L163.122 100.203ZM145.69 115.178L140.477 109.11L137.549 111.625L137.696 115.483L145.69 115.178ZM123.652 171.413L129.306 177.072L129.308 177.07L123.652 171.413ZM108.135 173.358L100.67 176.235L104.039 184.979L112.147 180.28L108.135 173.358ZM100.631 153.888L108.096 151.011L105.262 143.657L97.8665 146.381L100.631 153.888ZM82.8888 160.423L80.1239 152.916L80.1203 152.917L82.8888 160.423ZM68.86 157.34L74.5202 151.687L74.5168 151.683L68.86 157.34ZM65.817 154.297L71.4738 148.64L69.2997 146.466L66.2291 146.308L65.817 154.297ZM65.8125 154.297L60.155 159.953L62.3292 162.128L65.4003 162.286L65.8125 154.297ZM47.6701 136.15L53.3276 130.494L53.323 130.489L47.6701 136.15ZM44.6227 133.107L38.9624 138.76L38.9697 138.768L44.6227 133.107ZM41.5397 119.078L34.0324 116.314L34.0318 116.316L41.5397 119.078ZM17.6884 158.46L12.0316 164.117L12.0316 164.117L17.6884 158.46ZM17.6884 152.177L12.0316 146.52L12.0309 146.521L17.6884 152.177ZM26.813 143.052L21.1568 137.395L21.1561 137.396L26.813 143.052ZM33.0957 143.052L38.7526 137.396L38.7511 137.394L33.0957 143.052ZM33.0957 149.335L38.7526 154.992L38.7533 154.991L33.0957 149.335ZM23.9712 158.46L29.6266 164.118L29.6281 164.117L23.9712 158.46ZM9.30133 186.374L3.64489 180.717L3.64447 180.717L9.30133 186.374ZM39.7179 155.962L34.0618 150.304L34.0615 150.305L39.7179 155.962ZM45.9993 162.245L40.3432 156.587L40.3429 156.587L45.9993 162.245ZM15.5828 192.657L9.92633 187L9.92302 187.003L15.5828 192.657ZM37.4168 190.356L31.7599 196.013L31.7614 196.014L37.4168 190.356ZM37.4168 184.073L31.76 178.416L31.7592 178.417L37.4168 184.073ZM52.6228 168.867L46.9667 163.21L46.9661 163.21L52.6228 168.867ZM58.9052 168.867L64.562 163.21L64.5606 163.209L58.9052 168.867ZM58.9052 175.15L64.5619 180.807L64.5627 180.806L58.9052 175.15ZM43.6991 190.356L38.0423 184.699L38.0422 184.699L43.6991 190.356ZM97.4903 157.029L91.8334 162.686L91.8349 162.688L97.4903 157.029ZM44.9332 104.472L39.2763 110.129L39.2763 110.129L44.9332 104.472ZM44.9332 98.1895L39.2771 92.5319L39.2756 92.5334L44.9332 98.1895ZM51.216 98.1895L56.8728 92.5327L56.8714 92.5312L51.216 98.1895ZM103.773 150.747L98.1162 156.404L98.1162 156.404L103.773 150.747ZM103.773 157.03L109.428 162.688L109.431 162.686L103.773 157.03ZM103.944 98.0167L109.602 92.3611L109.599 92.3586L103.944 98.0167ZM103.945 59.2779L109.601 64.9357L109.603 64.9335L103.945 59.2779ZM142.684 59.2792L137.026 64.9351L137.028 64.937L142.684 59.2792ZM142.684 98.0163L148.329 103.685L148.334 103.679L148.34 103.674L142.684 98.0163ZM142.682 98.018L137.037 92.3491L137.031 92.3557L137.024 92.3624L142.682 98.018ZM110.228 65.5611L115.883 71.2198L115.887 71.2162L110.228 65.5611ZM110.226 91.7344L115.885 86.0793L115.881 86.0757L110.226 91.7344ZM136.4 91.7361L130.755 86.0672L130.748 86.0741L130.741 86.0811L136.4 91.7361ZM136.401 91.7344L142.046 97.4033L142.051 97.3982L142.056 97.393L136.401 91.7344ZM136.401 65.5629L130.743 71.2179L130.746 71.2215L136.401 65.5629ZM45.3161 139.917L49.5591 133.135L49.5545 133.132L45.3161 139.917ZM43.9026 133.796L50.6871 138.035L50.6872 138.035L43.9026 133.796ZM57.4472 112.118L50.6629 107.878L50.6626 107.879L57.4472 112.118ZM63.5687 110.704L59.3276 117.487L59.3303 117.489L63.5687 110.704ZM64.9823 116.825L58.1977 112.586L58.1977 112.586L64.9823 116.825ZM51.4376 138.504L58.2221 142.743L58.2222 142.743L51.4376 138.504ZM53.6001 148.367L47.9433 154.024L47.9447 154.025L53.6001 148.367ZM53.5997 142.084L47.9429 136.427L47.9421 136.428L53.5997 142.084ZM71.2135 124.47L65.5574 118.813L65.5567 118.813L71.2135 124.47ZM77.4958 124.47L83.1527 118.813L83.152 118.813L77.4958 124.47ZM77.4963 130.753L71.8394 125.096L71.8394 125.096L77.4963 130.753ZM59.8825 148.366L54.2256 142.71L54.2227 142.712L59.8825 148.366ZM62.0499 156.651L55.2649 160.889L55.2654 160.89L62.0499 156.651ZM63.4634 150.53L67.7015 157.315L67.7024 157.314L63.4634 150.53ZM85.1419 136.985L89.3809 143.77L89.3841 143.768L85.1419 136.985ZM91.2635 138.399L98.0484 134.16L98.0482 134.16L91.2635 138.399ZM89.8499 144.52L94.0889 151.304L94.089 151.304L89.8499 144.52ZM68.1714 158.064L72.4095 164.85L72.4104 164.849L68.1714 158.064ZM83.8946 59.6466L78.6812 65.7146L78.6816 65.715L83.8946 59.6466ZM83.4197 53.382L77.3514 48.169L77.351 48.1694L83.4197 53.382ZM98.3947 35.9504L92.3266 30.7371L92.3265 30.7373L98.3947 35.9504ZM104.659 35.4759L109.873 29.4079L109.872 29.4074L104.659 35.4759ZM105.134 41.74L99.0664 36.5258L99.0655 36.527L105.134 41.74ZM90.1587 59.1717L84.0904 53.9586L84.0897 53.9595L90.1587 59.1717ZM65.717 160.479L71.3776 154.826L71.3739 154.822L65.717 160.479ZM62.7931 157.555L68.4499 151.898L68.3394 151.787L68.2246 151.681L62.7931 157.555ZM62.6718 157.438L68.3602 151.813L68.3445 151.797L68.3287 151.781L62.6718 157.438ZM41.4846 136.25L35.8242 141.904L35.8277 141.907L41.4846 136.25ZM37.3715 117.544L29.8642 114.78L29.8636 114.782L37.3715 117.544ZM43.9061 99.7963L36.4002 97.0285L36.3988 97.0322L43.9061 99.7963ZM44.7053 98.4365L50.7722 103.651L50.7732 103.65L44.7053 98.4365ZM83.4157 53.3825L77.3497 48.1667L77.3478 48.169L83.4157 53.3825ZM89.6802 52.908L94.8944 46.8407L94.8936 46.84L89.6802 52.908ZM90.1547 59.1726L96.2225 64.3862L96.2227 64.386L90.1547 59.1726ZM51.9663 103.618L45.8984 98.4044L44.9577 99.4993L44.459 100.854L51.9663 103.618ZM45.7088 120.613L38.2015 117.849L38.2009 117.85L45.7088 120.613ZM47.7665 129.968L42.106 135.621L42.1096 135.625L47.7665 129.968ZM68.8373 151.039L63.1804 156.696L63.2757 156.791L63.3742 156.884L68.8373 151.039ZM68.9586 151.156L63.2702 156.781L63.2859 156.797L63.3017 156.813L68.9586 151.156ZM72.0016 154.199L77.662 148.546L77.6584 148.542L72.0016 154.199ZM81.3518 156.256L78.5868 148.749L78.5848 148.75L81.3518 156.256ZM98.3445 149.997L101.11 157.504L102.463 157.006L103.558 156.065L98.3445 149.997ZM160.227 96.8337L155.014 90.7652L155.014 90.7655L160.227 96.8337ZM166.492 97.3082L160.424 102.522L160.424 102.522L166.492 97.3082ZM166.017 103.573L171.23 109.641L171.23 109.641L166.017 103.573ZM103.526 157.258L98.3129 151.189L98.3114 151.191L103.526 157.258ZM102.167 158.057L99.4031 150.55L99.4024 150.55L102.167 158.057ZM84.4241 164.592L81.6593 157.084L81.6557 157.086L84.4241 164.592ZM159.98 103.344L154.324 109.001L154.325 109.002L159.98 103.344ZM159.98 97.0612L154.324 91.4042L154.323 91.405L159.98 97.0612ZM179.466 66.1231L187.016 68.7674L187.016 68.7672L179.466 66.1231ZM181.925 20.0415L189.714 18.2143L188.581 13.3858L183.752 12.253L181.925 20.0415ZM135.843 22.5008L133.2 14.9503L133.199 14.9505L135.843 22.5008ZM104.905 41.9862L110.561 47.6437L110.562 47.643L104.905 41.9862ZM98.6222 41.9862L92.9653 47.643L92.9668 47.6445L98.6222 41.9862ZM98.6222 35.7034L92.9655 30.0464L92.9646 30.0472L98.6222 35.7034ZM132.906 14.1155L130.262 6.56495L130.262 6.56511L132.906 14.1155ZM186.734 12.0893L188.802 4.36109L188.801 4.361L186.734 12.0893ZM189.878 15.2327L197.606 13.1659L197.606 13.1653L189.878 15.2327ZM187.851 69.0603L180.3 66.4159L180.3 66.4161L187.851 69.0603ZM180.513 70.7333L174.856 76.3901L174.857 76.3916L180.513 70.7333ZM131.234 21.4542L136.891 15.7974L136.891 15.7973L131.234 21.4542ZM131.234 15.1714L125.579 9.51239L125.577 9.51529L131.234 15.1714ZM137.517 15.1714L143.174 9.51459L143.172 9.51311L137.517 15.1714ZM186.796 64.4505L181.139 70.1074L181.139 70.1074L186.796 64.4505ZM186.796 70.7333L192.45 76.3931L192.453 76.3894L186.796 70.7333ZM46.9784 105.636L45.0054 113.389L45.0088 113.39L46.9784 105.636ZM17.5125 98.1375L15.5392 105.89L15.5395 105.89L17.5125 98.1375ZM14.5135 95.5548L21.8884 92.4546L21.8879 92.4534L14.5135 95.5548ZM14.7649 91.6046L7.84369 87.5926L7.84316 87.5935L14.7649 91.6046ZM27.4109 75.1761L21.754 69.5192L21.7515 69.5218L27.4109 75.1761ZM86.9327 51.8374L86.6268 59.8316L86.6487 59.8324L86.6706 59.8331L86.9327 51.8374ZM86.615 60.7163L86.9298 52.7225L86.9214 52.7222L86.615 60.7163ZM33.695 81.4566L28.0381 75.7998L28.036 75.8019L33.695 81.4566ZM25.654 91.0414L19.0983 86.4562L12.4651 95.94L23.681 98.7943L25.654 91.0414ZM49.0783 97.0025L47.1053 104.755L47.1917 104.777L47.2785 104.797L49.0783 97.0025ZM106.413 187.453L109.515 180.08L109.513 180.079L106.413 187.453ZM103.829 184.455L111.582 182.481L111.582 182.481L103.829 184.455ZM96.326 154.985L104.079 153.011L104.079 153.011L96.326 154.985ZM99.5351 149.584L101.508 157.336L101.515 157.335L99.5351 149.584ZM104.936 152.792L112.689 150.819L112.689 150.818L104.936 152.792ZM110.924 176.313L103.172 178.287L106.026 189.501L115.509 182.869L110.924 176.313ZM120.511 168.271L126.165 173.931L126.168 173.928L120.511 168.271ZM141.25 115.347L133.256 115.651L133.256 115.652L141.25 115.347ZM145.519 110.739L145.825 118.733L145.841 118.732L145.857 118.731L145.519 110.739ZM150.128 115.008L158.122 114.703L158.122 114.702L150.128 115.008ZM126.792 174.555L132.446 180.214L132.449 180.212L126.792 174.555ZM110.361 187.202L106.349 180.281L106.346 180.283L110.361 187.202ZM177.858 18.4475C181.94 33.7108 181.354 49.9671 176.108 64.9475L191.209 70.2359C197.522 52.2099 198.224 32.67 193.315 14.3137L177.858 18.4475ZM137.019 25.859C152 20.6128 168.256 20.027 183.519 24.109L187.653 8.65223C169.297 3.743 149.757 4.44546 131.731 10.7582L137.019 25.859ZM25.7327 101.298L45.1985 108.797L50.95 93.866L31.4842 86.3674L25.7327 101.298ZM24.8943 72.6614C22.4407 75.1174 21.1312 77.9824 20.7608 80.9835C20.435 83.6234 20.9041 86.0221 21.1578 87.315C21.8248 90.7131 21.5074 90.1308 21.6872 89.8207L35.5297 97.8447C38.9257 91.9861 37.2088 86.0197 36.8583 84.2336C36.6033 82.9344 36.6592 82.7909 36.6404 82.9432C36.6203 83.1055 36.562 83.3546 36.4336 83.6185C36.307 83.8787 36.19 83.9932 36.2133 83.9698L24.8943 72.6614ZM87.0895 48.2831C64.695 47.4288 42.0004 55.5554 24.897 72.6588L36.2107 83.9725C50.0346 70.1485 68.3513 63.5799 86.4796 64.2715L87.0895 48.2831ZM86.3884 48.2871L86.3837 48.2873L87.1853 64.2672L87.19 64.267L86.3884 48.2871ZM95.696 33.6323L80.7209 51.064L92.8574 61.4901L107.832 44.0584L95.696 33.6323ZM131.731 10.7583C118.712 15.3181 106.495 22.8013 96.1074 33.1885L107.421 44.5022C116.074 35.8497 126.219 29.6417 137.02 25.8589L131.731 10.7583ZM168.778 105.86C179.166 95.4724 186.649 83.2552 191.209 70.2361L176.108 64.9473C172.325 75.7479 166.117 85.8933 157.465 94.5459L168.778 105.86ZM150.903 121.246L168.335 106.271L157.908 94.1345L140.477 109.11L150.903 121.246ZM129.308 177.07C146.412 159.966 154.538 137.262 153.684 114.873L137.696 115.483C138.387 133.607 131.818 151.933 117.995 165.756L129.308 177.07ZM112.147 180.28C111.836 180.459 111.254 180.142 114.652 180.809C115.945 181.063 118.344 181.532 120.984 181.206C123.985 180.836 126.85 179.526 129.306 177.072L117.997 165.753C117.974 165.777 118.088 165.66 118.349 165.533C118.613 165.405 118.862 165.346 119.024 165.326C119.176 165.308 119.033 165.363 117.734 165.109C115.948 164.758 109.981 163.041 104.123 166.437L112.147 180.28ZM93.1665 156.765L100.67 176.235L115.599 170.482L108.096 151.011L93.1665 156.765ZM85.6537 167.93L103.396 161.395L97.8665 146.381L80.1239 152.916L85.6537 167.93ZM63.1997 162.993C69.0805 168.881 77.8492 170.809 85.6573 167.929L80.1203 152.917C78.1731 153.636 75.987 153.155 74.5202 151.687L63.1997 162.993ZM60.1601 159.954L63.2031 162.997L74.5168 151.683L71.4738 148.64L60.1601 159.954ZM65.4003 162.286L65.4048 162.286L66.2291 146.308L66.2247 146.307L65.4003 162.286ZM53.323 130.489L50.2756 127.446L38.9697 138.768L42.0172 141.811L53.323 130.489ZM50.2829 127.453C48.8098 125.979 48.3305 123.789 49.0476 121.841L34.0318 116.316C31.1594 124.122 33.0879 132.879 38.9624 138.76L50.2829 127.453ZM49.0469 121.842L55.5815 104.096L40.567 98.567L34.0324 116.314L49.0469 121.842ZM20.8296 151.761C21.7283 151.761 22.6523 152.11 23.3453 152.803L12.0316 164.117C14.4589 166.544 17.6573 167.761 20.8296 167.761V151.761ZM23.3453 152.803C24.7352 154.193 24.7341 156.445 23.346 157.833L12.0309 146.521C7.1733 151.38 7.17226 159.257 12.0316 164.117L23.3453 152.803ZM23.3453 157.834L32.4698 148.709L21.1561 137.396L12.0316 146.52L23.3453 157.834ZM32.4691 148.71C31.0794 150.099 28.8286 150.098 27.4403 148.711L38.7511 137.394C33.8925 132.538 26.016 132.537 21.1568 137.395L32.4691 148.71ZM27.4389 148.709C26.049 147.319 26.05 145.068 27.4382 143.679L38.7533 154.991C43.6109 150.133 43.6119 142.255 38.7526 137.396L27.4389 148.709ZM27.4389 143.678L18.3143 152.803L29.6281 164.117L38.7526 154.992L27.4389 143.678ZM18.3158 152.802C19.0073 152.11 19.9305 151.761 20.8296 151.761V167.761C24.0031 167.761 27.2 166.543 29.6266 164.118L18.3158 152.802ZM12.4425 185.958C13.3417 185.958 14.2658 186.308 14.9577 186.999L3.64403 198.313C6.07113 200.74 9.26878 201.958 12.4425 201.958V185.958ZM14.9577 186.999C16.3482 188.39 16.3466 190.642 14.9582 192.031L3.64447 180.717C-1.21341 185.575 -1.21593 193.453 3.64403 198.313L14.9577 186.999ZM14.9578 192.031L45.3743 161.619L34.0615 150.305L3.64489 180.717L14.9578 192.031ZM45.374 161.619C43.9846 163.009 41.7327 163.009 40.3434 161.619L51.6571 150.305C46.7983 145.447 38.9206 145.447 34.0618 150.304L45.374 161.619ZM40.3434 161.619C38.9527 160.229 38.9544 157.976 40.3432 156.587L51.6555 167.902C56.5146 163.044 56.5172 155.166 51.6571 150.305L40.3434 161.619ZM40.3429 156.587L9.92633 187L21.2392 198.314L51.6558 167.902L40.3429 156.587ZM9.92302 187.003C10.6187 186.306 11.5452 185.958 12.4425 185.958V201.958C15.6134 201.958 18.8135 200.742 21.2425 198.311L9.92302 187.003ZM40.5579 183.657C41.4579 183.657 42.3813 184.007 43.0722 184.697L31.7614 196.014C34.1874 198.439 37.3835 199.657 40.5579 199.657V183.657ZM43.0736 184.699C44.4635 186.089 44.4625 188.341 43.0744 189.729L31.7592 178.417C26.9016 183.276 26.9006 191.153 31.7599 196.013L43.0736 184.699ZM43.0735 189.73L58.2796 174.524L46.9661 163.21L31.76 178.416L43.0735 189.73ZM58.279 174.525C56.8887 175.915 54.638 175.913 53.2498 174.526L64.5606 163.209C59.7029 158.354 51.8264 158.351 46.9667 163.21L58.279 174.525ZM53.2483 174.524C51.8584 173.134 51.8595 170.882 53.2476 169.494L64.5627 180.806C69.4203 175.947 69.4213 168.07 64.562 163.21L53.2483 174.524ZM53.2484 169.493L38.0423 184.699L49.3559 196.013L64.5619 180.807L53.2484 169.493ZM38.0422 184.699C38.7353 184.006 39.6592 183.657 40.5579 183.657V199.657C43.7303 199.657 46.9286 198.44 49.356 196.013L38.0422 184.699ZM100.631 150.331C101.531 150.331 102.455 150.681 103.146 151.371L91.8349 162.688C94.2609 165.112 97.4571 166.331 100.631 166.331V150.331ZM103.147 151.373L50.59 98.8154L39.2763 110.129L91.8334 162.686L103.147 151.373ZM50.59 98.8154C51.9799 100.205 51.9789 102.457 50.5908 103.846L39.2756 92.5334C34.418 97.3922 34.417 105.27 39.2763 110.129L50.59 98.8154ZM50.5893 103.847C49.1996 105.236 46.9488 105.235 45.5605 103.848L56.8714 92.5312C52.0127 87.6751 44.1362 87.674 39.2771 92.5319L50.5893 103.847ZM45.5591 103.846L98.1162 156.404L109.43 145.09L56.8728 92.5327L45.5591 103.846ZM98.1162 156.404C96.7263 155.014 96.7274 152.762 98.1155 151.374L109.431 162.686C114.288 157.827 114.289 149.95 109.43 145.09L98.1162 156.404ZM98.1176 151.372C98.8108 150.679 99.7344 150.331 100.631 150.331V166.331C103.802 166.331 107 165.115 109.428 162.688L98.1176 151.372ZM123.314 98.0422C118.118 98.0422 113.274 96.0352 109.602 92.3611L98.2856 103.672C104.959 110.349 113.873 114.042 123.314 114.042V98.0422ZM109.599 92.3586C105.927 88.6881 103.92 83.8447 103.92 78.6482H87.9199C87.9199 88.0882 91.6131 97.0027 98.288 103.675L109.599 92.3586ZM103.92 78.6482C103.92 73.452 105.927 68.6084 109.601 64.9357L98.2891 53.6201C91.6133 60.2936 87.9199 69.2078 87.9199 78.6482H103.92ZM109.603 64.9335C113.274 61.2614 118.117 59.2542 123.313 59.2542V43.2542C113.873 43.2542 104.959 46.9473 98.2869 53.6222L109.603 64.9335ZM123.313 59.2542C128.51 59.2542 133.353 61.2612 137.026 64.9351L148.342 53.6233C141.668 46.9475 132.754 43.2542 123.313 43.2542V59.2542ZM137.028 64.937C140.7 68.6077 142.707 73.4512 142.707 78.6477H158.707C158.707 69.2077 155.014 60.2934 148.34 53.6214L137.028 64.937ZM142.707 78.6477C142.707 83.8432 140.7 88.6866 137.027 92.3589L148.34 103.674C155.014 97.0006 158.707 88.087 158.707 78.6477H142.707ZM137.039 92.3473L137.037 92.3491L148.327 103.687L148.329 103.685L137.039 92.3473ZM137.024 92.3624C133.352 96.0355 128.509 98.0422 123.314 98.0422V114.042C132.753 114.042 141.667 110.349 148.34 103.674L137.024 92.3624ZM123.314 52.1397C116.248 52.1397 109.565 54.9078 104.57 59.906L115.887 71.2162C117.88 69.2222 120.491 68.1397 123.314 68.1397V52.1397ZM104.573 59.9025C99.5735 64.8989 96.805 71.5822 96.805 78.6486H112.805C112.805 75.8264 113.887 73.2146 115.883 71.2198L104.573 59.9025ZM96.805 78.6486C96.805 85.7145 99.5731 92.3979 104.571 97.393L115.881 86.0757C113.888 84.083 112.805 81.4714 112.805 78.6486H96.805ZM104.568 97.3894C109.564 102.389 116.248 105.158 123.314 105.158V89.1576C120.492 89.1576 117.88 88.0754 115.885 86.0793L104.568 97.3894ZM123.314 105.158C130.38 105.158 137.063 102.389 142.058 97.3912L130.741 86.0811C128.748 88.075 126.137 89.1576 123.314 89.1576V105.158ZM142.044 97.4051L142.046 97.4033L130.757 86.0654L130.755 86.0672L142.044 97.4051ZM142.056 97.393C147.055 92.3979 149.823 85.7144 149.823 78.6486H133.823C133.823 81.4714 132.74 84.083 130.746 86.0757L142.056 97.393ZM149.823 78.6486C149.823 71.5828 147.055 64.8993 142.056 59.9042L130.746 71.2215C132.74 73.2142 133.823 75.8258 133.823 78.6486H149.823ZM142.06 59.9078C137.064 54.9082 130.38 52.1397 123.314 52.1397V68.1397C126.136 68.1397 128.748 69.2218 130.743 71.2179L142.06 59.9078ZM47.6661 132.593C48.3143 132.593 48.9787 132.772 49.5591 133.135L41.0732 146.699C43.1177 147.978 45.4098 148.593 47.6661 148.593V132.593ZM49.5545 133.132C51.2221 134.174 51.7281 136.369 50.6871 138.035L37.118 129.557C33.4774 135.384 35.2485 143.061 41.0777 146.702L49.5545 133.132ZM50.6872 138.035L64.2318 116.357L50.6626 107.879L37.118 129.557L50.6872 138.035ZM64.2315 116.357C63.1919 118.021 60.9973 118.531 59.3276 117.487L67.8099 103.921C61.9794 100.275 54.303 102.053 50.6629 107.878L64.2315 116.357ZM59.3303 117.489C57.6627 116.447 57.1567 114.252 58.1977 112.586L71.7668 121.064C75.4074 115.237 73.6363 107.56 67.8071 103.919L59.3303 117.489ZM58.1977 112.586L44.653 134.265L58.2222 142.743L71.7669 121.064L58.1977 112.586ZM44.6531 134.264C45.3321 133.178 46.5034 132.593 47.6661 132.593V148.593C51.791 148.593 55.8578 146.527 58.2221 142.743L44.6531 134.264ZM56.7413 141.668C57.6413 141.668 58.5644 142.018 59.2556 142.709L47.9447 154.025C50.3711 156.45 53.5678 157.668 56.7413 157.668V141.668ZM59.257 142.71C60.6458 144.099 60.6464 146.351 59.2573 147.74L47.9421 136.428C43.0835 141.288 43.085 149.165 47.9433 154.024L59.257 142.71ZM59.2566 147.741L76.8704 130.127L65.5567 118.813L47.9429 136.427L59.2566 147.741ZM76.8696 130.128C75.4803 131.517 73.229 131.517 71.8397 130.128L83.152 118.813C78.2932 113.955 70.4161 113.955 65.5574 118.813L76.8696 130.128ZM71.839 130.127C70.4505 128.739 70.4489 126.486 71.8394 125.096L83.1531 136.409C88.0131 131.549 88.0106 123.671 83.1527 118.813L71.839 130.127ZM71.8394 125.096L54.2256 142.71L65.5393 154.023L83.1531 136.409L71.8394 125.096ZM54.2227 142.712C54.918 142.016 55.8442 141.668 56.7413 141.668V157.668C59.912 157.668 63.1126 156.452 65.5422 154.02L54.2227 142.712ZM65.8214 150.74C66.9824 150.74 68.1546 151.324 68.8344 152.412L55.2654 160.89C57.6306 164.675 61.6982 166.74 65.8214 166.74V150.74ZM68.8348 152.412C69.8751 154.078 69.3699 156.273 67.7015 157.315L59.2254 143.745C53.3963 147.385 51.625 155.062 55.2649 160.889L68.8348 152.412ZM67.7024 157.314L89.3809 143.77L80.903 130.201L59.2244 143.745L67.7024 157.314ZM89.3841 143.768C87.7137 144.813 85.5181 144.301 84.4788 142.638L98.0482 134.16C94.4083 128.334 86.7309 126.555 80.8997 130.203L89.3841 143.768ZM84.4785 142.637C83.4377 140.971 83.9443 138.777 85.6108 137.735L94.089 151.304C99.9162 147.663 101.689 139.988 98.0484 134.16L84.4785 142.637ZM85.6109 137.735L63.9324 151.28L72.4104 164.849L94.0889 151.304L85.6109 137.735ZM63.9333 151.279C64.5097 150.919 65.1722 150.74 65.8214 150.74V166.74C68.0788 166.74 70.3681 166.125 72.4095 164.85L63.9333 151.279ZM86.7874 52.7194C87.6032 52.7194 88.4412 53.0058 89.1075 53.5782L78.6816 65.715C81.0245 67.7276 83.9219 68.7194 86.7874 68.7194V52.7194ZM89.1079 53.5786C90.5979 54.8587 90.7682 57.1046 89.4883 58.5947L77.351 48.1694C72.8735 53.3822 73.4694 61.2369 78.6812 65.7146L89.1079 53.5786ZM89.4879 58.5951L104.463 41.1634L92.3265 30.7373L77.3514 48.169L89.4879 58.5951ZM104.463 41.1636C103.182 42.6542 100.936 42.8241 99.4465 41.5445L109.872 29.4074C104.659 24.9293 96.8039 25.5256 92.3266 30.7371L104.463 41.1636ZM99.4459 41.5439C97.9563 40.2641 97.7848 38.0172 99.0664 36.5258L111.201 46.9542C115.681 41.7411 115.084 33.8854 109.873 29.4079L99.4459 41.5439ZM99.0655 36.527L84.0904 53.9586L96.2269 64.3848L111.202 46.9531L99.0655 36.527ZM84.0897 53.9595C84.7949 53.1384 85.8043 52.7194 86.7874 52.7194V68.7194C90.2706 68.7194 93.766 67.2503 96.2277 64.3839L84.0897 53.9595ZM78.3066 157.682C75.7341 157.682 73.2225 156.673 71.3776 154.826L60.0565 166.132C64.979 171.061 71.5964 173.682 78.3066 173.682V157.682ZM71.3739 154.822L68.4499 151.898L57.1362 163.212L60.0602 166.136L71.3739 154.822ZM68.2246 151.681C68.247 151.702 68.296 151.748 68.3602 151.813L56.9834 163.063C57.1267 163.208 57.2565 163.331 57.3616 163.428L68.2246 151.681ZM68.3287 151.781L47.1415 130.594L35.8277 141.907L57.0149 163.095L68.3287 151.781ZM47.1451 130.597C44.4623 127.911 43.5743 123.854 44.8793 120.307L29.8636 114.782C26.4029 124.187 28.741 134.811 35.8242 141.904L47.1451 130.597ZM44.8788 120.308L51.4134 102.56L36.3988 97.0322L29.8642 114.78L44.8788 120.308ZM51.4121 102.564C51.267 102.957 51.0515 103.326 50.7722 103.651L38.6384 93.2219C37.6688 94.3499 36.9122 95.64 36.4002 97.0285L51.4121 102.564ZM50.7732 103.65L89.4836 58.596L77.3478 48.169L38.6374 93.223L50.7732 103.65ZM89.4816 58.5982C88.2037 60.0845 85.9588 60.2579 84.4669 58.9761L94.8936 46.84C89.6799 42.3606 81.827 42.9596 77.3497 48.1667L89.4816 58.5982ZM84.466 58.9753C82.9768 57.6955 82.8061 55.4498 84.0867 53.9592L96.2227 64.386C100.701 59.1737 100.105 51.319 94.8944 46.8407L84.466 58.9753ZM84.0869 53.959L45.8984 98.4044L58.0341 108.832L96.2225 64.3862L84.0869 53.959ZM44.459 100.854L38.2015 117.849L53.2161 123.377L59.4736 106.382L44.459 100.854ZM38.2009 117.85C35.9313 124.019 37.4652 130.975 42.106 135.621L53.4269 124.315C53.1848 124.072 53.1035 123.683 53.2167 123.376L38.2009 117.85ZM42.1096 135.625L63.1804 156.696L74.4942 145.383L53.4234 124.311L42.1096 135.625ZM63.3742 156.884C63.385 156.894 63.377 156.886 63.3613 156.871C63.3446 156.855 63.3123 156.824 63.2702 156.781L74.647 145.531C74.4912 145.373 74.3547 145.246 74.3004 145.195L63.3742 156.884ZM63.3017 156.813L66.3447 159.856L77.6584 148.542L74.6154 145.499L63.3017 156.813ZM66.3411 159.852C70.9898 164.507 77.9494 166.036 84.1187 163.762L78.5848 148.75C78.2755 148.864 77.8973 148.781 77.662 148.546L66.3411 159.852ZM84.1167 163.763L101.11 157.504L95.5796 142.49L78.5868 148.749L84.1167 163.763ZM103.558 156.065L165.44 102.902L155.014 90.7655L93.1313 143.929L103.558 156.065ZM165.44 102.902C163.949 104.183 161.704 104.011 160.424 102.522L172.559 92.0942C168.083 86.885 160.228 86.2863 155.014 90.7652L165.44 102.902ZM160.424 102.522C159.143 101.031 159.314 98.7846 160.804 97.5047L171.23 109.641C176.442 105.163 177.039 97.307 172.559 92.094L160.424 102.522ZM160.804 97.5045L98.3129 151.189L108.739 163.326L171.23 109.641L160.804 97.5045ZM98.3114 151.191C98.6312 150.916 99.0002 150.698 99.4031 150.55L104.931 165.564C106.328 165.05 107.618 164.29 108.741 163.325L98.3114 151.191ZM99.4024 150.55L81.6593 157.084L87.1889 172.099L104.932 165.564L99.4024 150.55ZM81.6557 157.086C80.5712 157.486 79.438 157.682 78.3066 157.682V173.682C81.2869 173.682 84.2975 173.165 87.1924 172.097L81.6557 157.086ZM163.122 96.6451C164.021 96.6451 164.945 96.9948 165.636 97.6856L154.325 109.002C156.751 111.427 159.948 112.645 163.122 112.645V96.6451ZM165.637 97.6871C167.027 99.0769 167.026 101.329 165.638 102.717L154.323 91.405C149.465 96.2638 149.464 104.141 154.324 109.001L165.637 97.6871ZM165.637 102.718C175.313 93.0427 182.52 81.6065 187.016 68.7674L171.915 63.4788C168.219 74.032 162.315 83.4134 154.324 91.4042L165.637 102.718ZM187.016 68.7672C192.733 52.4426 193.655 35.0153 189.714 18.2143L174.136 21.8688C177.382 35.7046 176.625 50.0293 171.915 63.4789L187.016 68.7672ZM183.752 12.253C166.952 8.31178 149.524 9.23394 133.2 14.9503L138.487 30.0513C151.937 25.3415 166.263 24.5845 180.098 27.8301L183.752 12.253ZM133.199 14.9505C120.36 19.447 108.923 26.654 99.2481 36.3293L110.562 47.643C118.553 39.6521 127.935 33.7471 138.488 30.0511L133.199 14.9505ZM99.2488 36.3286C100.638 34.9397 102.889 34.9402 104.278 36.3279L92.9668 47.6445C97.8264 52.5016 105.702 52.5011 110.561 47.6437L99.2488 36.3286ZM104.279 36.3293C105.669 37.7192 105.668 39.9711 104.28 41.3595L92.9646 30.0472C88.107 34.906 88.106 42.7837 92.9653 47.643L104.279 36.3293ZM104.279 41.3604C113.22 32.4193 123.728 25.8063 135.55 21.6658L130.262 6.56511C116.155 11.5056 103.592 19.4199 92.9655 30.0464L104.279 41.3604ZM135.55 21.666C151.428 16.1066 168.399 15.4665 184.667 19.8177L188.801 4.361C169.43 -0.820147 149.175 -0.0573477 130.262 6.56495L135.55 21.666ZM184.667 19.8176C183.438 19.4888 182.478 18.529 182.149 17.3001L197.606 13.1653C196.456 8.86764 193.099 5.51078 188.802 4.36109L184.667 19.8176ZM182.149 17.2996C186.5 33.5684 185.861 50.54 180.3 66.4159L195.401 71.7047C202.025 52.7919 202.787 32.5368 197.606 13.1659L182.149 17.2996ZM180.3 66.4161C176.16 78.2388 169.547 88.7457 160.606 97.6871L171.92 109.001C182.547 98.3737 190.46 85.8117 195.401 71.7046L180.3 66.4161ZM160.606 97.6871C161.299 96.9943 162.223 96.6451 163.122 96.6451V112.645C166.295 112.645 169.493 111.428 171.92 109.001L160.606 97.6871ZM183.654 64.0345C184.554 64.0345 185.477 64.3844 186.168 65.075L174.857 76.3916C177.283 78.8164 180.48 80.0345 183.654 80.0345V64.0345ZM186.17 65.0765L136.891 15.7974L125.577 27.111L174.856 76.3901L186.17 65.0765ZM136.891 15.7973C138.281 17.1872 138.28 19.4391 136.892 20.8275L125.577 9.51529C120.719 14.3741 120.718 22.2517 125.577 27.111L136.891 15.7973ZM136.889 20.8304C135.501 22.2177 133.25 22.2175 131.862 20.8297L143.172 9.51311C138.314 4.65766 130.44 4.65572 125.579 9.51239L136.889 20.8304ZM131.86 20.8282L181.139 70.1074L192.452 58.7937L143.174 9.51459L131.86 20.8282ZM181.139 70.1074C179.749 68.7175 179.75 66.4656 181.138 65.0772L192.453 76.3894C197.311 71.5306 197.312 63.653 192.452 58.7937L181.139 70.1074ZM181.142 65.0735C181.832 64.3844 182.754 64.0345 183.654 64.0345V80.0345C186.828 80.0345 190.024 78.8165 192.45 76.393L181.142 65.0735ZM48.0788 97.7734C48.3687 97.7734 48.6583 97.8088 48.9481 97.8824L45.0088 113.39C46.0156 113.646 47.0497 113.773 48.0788 113.773V97.7734ZM48.9514 97.8833L19.4855 90.3846L15.5395 105.89L45.0054 113.389L48.9514 97.8833ZM19.4858 90.3847C20.566 90.6596 21.4555 91.4249 21.8884 92.4546L7.13859 98.6549C8.65006 102.251 11.7608 104.929 15.5392 105.89L19.4858 90.3847ZM21.8879 92.4534C22.3202 93.4814 22.2454 94.6517 21.6867 95.6158L7.84316 87.5935C5.8887 90.9663 5.6273 95.0613 7.13912 98.6561L21.8879 92.4534ZM21.6862 95.6167C24.789 90.2639 28.6173 85.2874 33.0703 80.8304L21.7515 69.5218C16.3319 74.9462 11.6513 81.024 7.84369 87.5926L21.6862 95.6167ZM33.0677 80.8329C47.1667 66.734 66.7017 59.0693 86.6268 59.8316L87.2385 43.8433C62.8568 42.9104 39.001 52.2723 21.754 69.5192L33.0677 80.8329ZM86.6706 59.8331C84.761 59.7705 83.2288 58.2089 83.2288 56.2771H99.2288C99.2288 49.5378 93.8745 44.0607 87.1948 43.8417L86.6706 59.8331ZM83.2288 56.2771C83.2288 54.3176 84.8182 52.7194 86.7887 52.7194V68.7194C93.6662 68.7194 99.2288 63.1427 99.2288 56.2771H83.2288ZM86.7887 52.7194H86.7843V68.7194H86.7887V52.7194ZM86.7843 52.7194C86.8112 52.7194 86.8617 52.7198 86.9298 52.7225L86.3003 68.7101C86.4812 68.7172 86.6446 68.7194 86.7843 68.7194V52.7194ZM86.9214 52.7222C64.9987 51.8821 43.5457 60.2917 28.0381 75.7998L39.3519 87.1134C51.7083 74.7566 68.8387 68.041 86.3087 68.7104L86.9214 52.7222ZM28.036 75.8019C24.7395 79.1009 21.7479 82.668 19.0983 86.4562L32.2096 95.6265C34.3213 92.6073 36.712 89.7553 39.354 87.1114L28.036 75.8019ZM23.681 98.7943L47.1053 104.755L51.0513 89.2496L27.6269 83.2885L23.681 98.7943ZM47.2785 104.797C45.7047 104.434 44.5189 103.035 44.5189 101.331H60.5189C60.5189 95.4109 56.3922 90.4808 50.8781 89.2076L47.2785 104.797ZM44.5189 101.331C44.5189 99.3721 46.1078 97.7734 48.0788 97.7734V113.773C54.9568 113.773 60.5189 108.196 60.5189 101.331H44.5189ZM108.135 179.801C108.601 179.801 109.072 179.893 109.515 180.08L103.31 194.827C104.858 195.479 106.499 195.801 108.135 195.801V179.801ZM109.513 180.079C110.541 180.511 111.307 181.4 111.582 182.481L96.0768 186.429C97.0389 190.207 99.717 193.317 103.312 194.828L109.513 180.079ZM111.582 182.481L104.079 153.011L88.5733 156.958L96.0768 186.429L111.582 182.481ZM104.079 153.011C104.564 154.915 103.412 156.852 101.508 157.336L97.5621 141.831C90.9028 143.525 86.8774 150.298 88.5733 156.959L104.079 153.011ZM101.515 157.335C99.6015 157.823 97.6673 156.666 97.1835 154.767L112.689 150.818C110.994 144.163 104.221 140.13 97.5556 141.832L101.515 157.335ZM97.1834 154.766L103.172 178.287L118.677 174.34L112.689 150.819L97.1834 154.766ZM115.509 182.869C119.298 180.219 122.866 177.227 126.165 173.931L114.857 162.611C112.211 165.255 109.358 167.646 106.34 169.758L115.509 182.869ZM126.168 173.928C141.676 158.42 150.081 136.968 149.244 115.042L133.256 115.652C133.923 133.13 127.209 150.26 114.854 162.614L126.168 173.928ZM149.244 115.043C149.319 117.006 147.788 118.658 145.825 118.733L145.214 102.744C138.348 103.007 132.994 108.785 133.256 115.651L149.244 115.043ZM145.857 118.731C143.84 118.817 142.208 117.252 142.134 115.314L158.122 114.702C157.861 107.862 152.094 102.453 145.181 102.746L145.857 118.731ZM142.134 115.313C142.895 135.255 135.235 154.798 121.135 168.898L132.449 180.212C149.702 162.959 159.053 139.093 158.122 114.703L142.134 115.313ZM121.138 168.895C116.68 173.349 111.703 177.178 106.349 180.281L114.374 194.123C120.943 190.315 127.021 185.634 132.446 180.214L121.138 168.895ZM106.346 180.283C106.9 179.961 107.519 179.801 108.135 179.801V195.801C110.294 195.801 112.453 195.238 114.377 194.121L106.346 180.283ZM42.0126 141.806L60.155 159.953L71.47 148.641L53.3276 130.494L42.0126 141.806Z" fill="white" mask="url(#path-1-outside-1_136_321)"/>
<path d="M185.586 16.3807C190.082 33.1904 189.438 51.0885 183.658 67.5918H183.654L134.375 18.3131V18.3087C150.879 12.5292 168.777 11.8851 185.586 16.3807Z" fill="#9E97F8"/>
<path d="M139.542 62.4207C148.506 71.3809 148.506 85.9162 139.542 94.8763C130.582 103.841 116.046 103.841 107.086 94.8763C98.1216 85.9162 98.1216 71.3809 107.086 62.4207C116.046 53.4561 130.582 53.4561 139.542 62.4207Z" fill="white"/>
<path fill-rule="evenodd" clip-rule="evenodd" d="M48.0743 101.331L18.6085 93.8327C21.8247 88.2843 25.8095 83.0645 30.5539 78.3157C46.0175 62.852 66.5232 55.5044 86.7846 56.2773L86.7848 56.2771H86.7892L101.764 38.8454C111.284 29.3255 122.465 22.4799 134.375 18.3086V18.313L183.654 67.5917H183.658C179.487 79.5016 172.641 90.6829 163.122 100.203L145.69 115.178C146.463 135.435 139.115 155.949 123.652 171.413C118.903 176.157 113.683 180.142 108.135 183.358L100.631 153.888L82.8888 160.423C78.0112 162.222 72.5338 161.018 68.86 157.34L65.817 154.297L65.817 154.297H65.8125L56.7414 145.226L47.6701 136.15L61.2148 114.472L74.355 127.612L74.3551 127.612L61.2148 114.472L61.2148 114.472L47.6701 136.15L44.6227 133.107C40.9489 129.429 39.745 123.956 41.5397 119.078L48.0743 101.331ZM139.542 62.4208C148.506 71.381 148.506 85.9163 139.542 94.8764C130.582 103.841 116.046 103.841 107.086 94.8764C98.1216 85.9163 98.1216 71.381 107.086 62.4208C116.046 53.4562 130.582 53.4562 139.542 62.4208Z" fill="url(#paint0_linear_136_321)"/>
<path d="M20.8296 159.761C19.6928 159.761 18.5556 159.327 17.6884 158.46C15.9537 156.725 15.9537 153.912 17.6884 152.177L26.813 143.053C28.5477 141.318 31.3606 141.318 33.0957 143.053C34.8305 144.787 34.8305 147.6 33.0957 149.335L23.9712 158.46C23.1036 159.327 21.9668 159.761 20.8296 159.761Z" fill="#2C2C2C"/>
<path d="M12.4425 193.958C11.3053 193.958 10.1685 193.524 9.30088 192.656C7.56616 190.922 7.5666 188.109 9.30133 186.374L39.7179 155.962C41.4526 154.228 44.2655 154.228 46.0002 155.962C47.735 157.697 47.7345 160.51 45.9993 162.245L15.5828 192.657C14.7161 193.524 13.5793 193.958 12.4425 193.958Z" fill="#2C2C2C"/>
<path d="M40.5579 191.657C39.4207 191.657 38.2844 191.223 37.4168 190.356C35.682 188.621 35.682 185.808 37.4168 184.073L52.6228 168.867C54.3576 167.133 57.1704 167.134 58.9052 168.867C60.6399 170.602 60.6399 173.415 58.9052 175.15L43.6991 190.356C42.832 191.223 41.6947 191.657 40.5579 191.657Z" fill="#2C2C2C"/>
<path d="M100.631 158.33C99.4942 158.33 98.3579 157.896 97.4903 157.029L44.9332 104.472C43.1985 102.737 43.1985 99.9246 44.9332 98.1894C46.6679 96.4551 49.4808 96.4551 51.216 98.1894L103.773 150.747C105.508 152.482 105.508 155.295 103.773 157.03C102.905 157.897 101.768 158.33 100.631 158.33Z" fill="#2C2C2C"/>
<path d="M123.314 106.042C115.996 106.042 109.117 103.192 103.944 98.0169C98.7701 92.8456 95.9199 85.9667 95.9199 78.6484C95.9199 71.3301 98.7701 64.4512 103.945 59.2781C109.116 54.1046 115.995 51.2544 123.313 51.2544C130.632 51.2544 137.511 54.1046 142.684 59.2794C147.857 64.4507 150.707 71.3297 150.707 78.648C150.707 85.9654 147.857 92.8438 142.684 98.0165C142.683 98.0174 142.683 98.0169 142.682 98.0183C137.51 103.193 130.631 106.042 123.314 106.042ZM123.314 60.1399C118.37 60.1399 113.722 62.0652 110.228 65.5613C106.73 69.057 104.805 73.7045 104.805 78.6489C104.805 83.5932 106.73 88.2407 110.226 91.7346C113.722 95.2325 118.37 97.1578 123.314 97.1578C128.258 97.1578 132.906 95.2325 136.4 91.7364C136.401 91.7359 136.401 91.7355 136.401 91.7346C139.898 88.2407 141.823 83.5932 141.823 78.6489C141.823 73.7045 139.898 69.057 136.401 65.5631C132.906 62.0652 128.258 60.1399 123.314 60.1399Z" fill="#2C2C2C"/>
<path d="M47.6661 140.593C46.862 140.593 46.0482 140.375 45.3161 139.917C43.2353 138.617 42.6027 135.877 43.9025 133.796L57.4472 112.118C58.7474 110.037 61.4884 109.403 63.5687 110.704C65.6495 112.004 66.2821 114.745 64.9822 116.825L51.4376 138.504C50.5949 139.852 49.1471 140.593 47.6661 140.593Z" fill="#2C2C2C"/>
<path d="M56.7413 149.668C55.6045 149.668 54.4677 149.234 53.6002 148.367C51.8654 146.632 51.865 143.819 53.5997 142.084L71.2135 124.47C72.9482 122.736 75.7611 122.736 77.4958 124.47C79.2306 126.205 79.231 129.018 77.4963 130.752L59.8825 148.366C59.0153 149.234 57.8781 149.668 56.7413 149.668Z" fill="#2C2C2C"/>
<path d="M65.8214 158.74C64.3404 158.74 62.8926 158 62.0499 156.651C60.7501 154.57 61.3831 151.829 63.4634 150.53L85.142 136.985C87.2223 135.684 89.9632 136.318 91.2635 138.399C92.5633 140.48 91.9303 143.22 89.8499 144.52L68.1714 158.064C67.4389 158.522 66.6255 158.74 65.8214 158.74Z" fill="#2C2C2C"/>
<path d="M86.7874 60.7193C85.7625 60.7193 84.7328 60.3666 83.8945 59.6465C82.0337 58.0477 81.8209 55.2432 83.4197 53.3819L98.3947 35.9502C99.9931 34.0898 102.798 33.8766 104.659 35.4758C106.52 37.0746 106.733 39.879 105.134 41.7399L90.1587 59.1716C89.2804 60.1942 88.0375 60.7193 86.7874 60.7193Z" fill="#2C2C2C"/>
<path d="M78.3065 165.682C73.6652 165.682 69.1007 163.867 65.717 160.479L62.7931 157.555C62.7518 157.517 62.7113 157.478 62.6718 157.438L41.4846 136.251C36.6016 131.361 34.9886 124.02 37.3714 117.544L43.9061 99.7965C44.0896 99.2989 44.3601 98.8383 44.7053 98.4367L83.4157 53.3827C85.0153 51.5222 87.8193 51.3094 89.6802 52.9082C91.5411 54.5075 91.7534 57.3119 90.1547 59.1728L51.9662 103.618L45.7088 120.613C44.5174 123.851 45.325 127.524 47.7665 129.968L68.8373 151.04C68.8782 151.078 68.919 151.116 68.9586 151.156L72.0016 154.199C74.4435 156.644 78.1124 157.45 81.3517 156.256L98.3445 149.997L160.227 96.8339C162.089 95.2347 164.893 95.4483 166.491 97.3083C168.091 99.1692 167.878 101.974 166.017 103.573L103.526 157.258C103.124 157.603 102.664 157.874 102.167 158.057L84.4241 164.592C82.4343 165.326 80.3624 165.682 78.3065 165.682Z" fill="#2C2C2C"/>
<path d="M163.122 104.645C161.985 104.645 160.848 104.211 159.98 103.344C158.246 101.609 158.246 98.7963 159.98 97.0612C168.814 88.228 175.369 77.8192 179.466 66.1231C184.679 51.236 185.519 35.36 181.925 20.0415C166.608 16.4481 150.731 17.2877 135.843 22.5008C124.147 26.5971 113.738 33.153 104.905 41.9862C103.17 43.7204 100.358 43.7209 98.6222 41.9862C96.8874 40.2514 96.8874 37.4385 98.6222 35.7034C108.406 25.9196 119.941 18.656 132.906 14.1155C150.301 8.02461 168.915 7.32317 186.734 12.0893C188.269 12.4998 189.467 13.6983 189.878 15.2327C194.643 33.0526 193.943 51.666 187.851 69.0603C183.31 82.0252 176.047 93.5597 166.263 103.344C165.396 104.211 164.259 104.645 163.122 104.645Z" fill="#2C2C2C"/>
<path d="M183.654 72.0344C182.517 72.0344 181.38 71.6003 180.513 70.7332L131.234 21.4541C129.499 19.7194 129.499 16.9065 131.234 15.1713C132.97 13.4366 135.782 13.4375 137.517 15.1713L186.796 64.4504C188.53 66.1851 188.53 68.998 186.796 70.7332C185.928 71.6003 184.791 72.0344 183.654 72.0344Z" fill="#2C2C2C"/>
<path d="M48.0788 105.774C47.7092 105.774 47.3369 105.727 46.9784 105.636L17.5125 98.1376C16.1634 97.7942 15.0528 96.8378 14.5135 95.5549C13.9738 94.2715 14.0671 92.8091 14.765 91.6048C18.2202 85.6441 22.4746 80.1169 27.4109 75.1762C43.0839 59.5032 64.7793 50.99 86.9327 51.8376C89.3178 51.9157 91.2289 53.8735 91.2289 56.2772C91.2289 58.7303 89.2422 60.7195 86.7887 60.7195H86.7843C86.7279 60.7195 86.6715 60.7186 86.6151 60.7164C66.9187 59.9617 47.627 67.5243 33.695 81.4567C30.7258 84.4282 28.0346 87.6378 25.654 91.0415L49.0783 97.0026C51.0485 97.4575 52.5189 99.2229 52.5189 101.331C52.5189 103.784 50.5323 105.774 48.0788 105.774Z" fill="#2C2C2C"/>
<path d="M108.135 187.801C107.55 187.801 106.965 187.686 106.413 187.454C105.129 186.914 104.173 185.804 103.829 184.455L96.3259 154.985C95.7204 152.607 97.1575 150.189 99.5351 149.584C101.911 148.977 104.331 150.415 104.936 152.793L110.924 176.314C114.328 173.933 117.538 171.241 120.511 168.271C134.442 154.34 142.002 135.049 141.25 115.347C141.156 112.896 143.068 110.833 145.519 110.739C147.967 110.635 150.034 112.557 150.128 115.008C150.974 137.174 142.468 158.878 126.792 174.555C121.85 179.492 116.323 183.747 110.361 187.202C109.676 187.6 108.907 187.801 108.135 187.801Z" fill="#2C2C2C"/>
<defs>
<linearGradient id="paint0_linear_136_321" x1="67.0577" y1="52.5569" x2="149.167" y2="145.571" gradientUnits="userSpaceOnUse">
<stop stop-color="#9E97F8"/>
<stop offset="0.348958" stop-color="#ECBFA8"/>
<stop offset="0.602529" stop-color="#B0E2EE"/>
<stop offset="1" stop-color="#71C992"/>
</linearGradient>
</defs>
</svg>
