<svg width="119" height="132" viewBox="0 0 119 132" fill="none" xmlns="http://www.w3.org/2000/svg">
<path d="M57.1972 8.35162L57.1904 8.35516L57.1836 8.35873L28.305 23.5517C19.4437 28.1126 12.8678 36.2547 10.3436 45.8959C8.41174 53.1303 8.63994 60.7727 11.155 67.8199C8.84385 71.1531 7.14144 74.8437 6.13632 78.7651C3.51523 88.5314 4.98195 98.9685 10.0773 107.595C20.7275 125.917 44.1496 133.149 62.5201 123.574L62.5245 123.572L91.3864 108.483C91.3908 108.481 91.3952 108.478 91.3996 108.476C100.263 103.915 106.841 95.7721 109.365 86.1291C111.297 78.8949 111.069 71.2527 108.554 64.2056C110.862 60.8773 112.562 57.1926 113.568 53.2777C116.303 43.4167 114.839 32.9683 109.635 24.323C99.0735 6.00034 75.5503 -1.21436 57.1972 8.35162Z" fill="#FF3E00" stroke="white" stroke-width="8"/>
<path d="M47.9756 110.013C38.9125 111.549 29.9432 107.272 25.3988 99.3579C22.5839 94.7021 21.8552 89.1201 23.2105 83.816C23.4862 82.9362 23.7534 82.1561 24.029 81.2763L24.6631 79.7246L25.9731 80.8398C29.0574 83.5113 32.4916 85.6105 36.2756 87.1373L37.2466 87.5211L37.062 88.509C36.8435 89.8955 37.1147 91.424 37.8099 92.6876C39.2089 95.1151 41.9054 96.4489 44.6551 95.9807C45.2699 95.8323 45.8847 95.684 46.4084 95.4275L75.1952 80.3171C76.6666 79.5392 77.6737 78.3203 78.1085 76.7516C78.5433 75.1828 78.289 73.455 77.5027 72.0833C76.1037 69.6557 73.3987 68.4216 70.649 68.8899C70.0342 69.0382 69.4194 69.1865 68.8958 69.443L57.8648 75.2273C56.0776 76.179 54.1165 76.8148 52.0813 77.1432C43.0181 78.6792 34.0489 74.4022 29.5044 66.4878C26.7892 61.8405 25.9609 56.25 27.4157 50.9544C28.754 45.8496 32.3415 41.4383 37.063 39.0304L65.9495 23.9285C67.7367 22.9768 69.6978 22.341 71.7415 21.913C80.8047 20.3769 89.7739 24.6539 94.3184 32.5683C97.1332 37.2241 97.8619 42.8062 96.5067 48.1102C96.231 48.99 95.9638 49.7701 95.5885 50.6414L94.9544 52.1932L93.6444 51.0779C90.5601 48.4064 87.1259 46.3073 83.3419 44.7805L82.371 44.3966L82.5555 43.4087C82.774 42.0223 82.5028 40.4938 81.8076 39.2302C80.4086 36.8026 77.7036 35.5685 74.954 36.0367C74.3391 36.1851 73.7243 36.3334 73.2007 36.5899L44.4138 51.7003C42.9424 52.4782 41.9353 53.6971 41.5005 55.2658C41.0658 56.8346 41.32 58.5624 42.1064 59.9341C43.5053 62.3617 46.2103 63.5958 48.96 63.1276C49.5748 62.9792 50.1896 62.8309 50.7133 62.5744L61.7442 56.7901C63.5315 55.8384 65.4925 55.2026 67.5363 54.7746C76.5994 53.2386 85.5686 57.5155 90.1131 65.4299C92.928 70.0857 93.6567 75.6678 92.3014 80.9719C90.9632 86.0767 87.3757 90.488 82.6542 92.8958L53.7677 107.998C51.9804 108.949 50.0194 109.585 47.9756 110.013Z" fill="white"/>
</svg>
