<svg width="269" height="269" viewBox="0 0 269 269" fill="none" xmlns="http://www.w3.org/2000/svg">
<g filter="url(#filter0_d_128_521)">
<path d="M118.968 41.2207C123.759 38.1212 129.963 38.2836 134.585 41.6296C137.883 44.0174 142.067 44.8295 146.019 43.8488C151.555 42.4751 157.37 44.6493 160.654 49.3127C162.998 52.6424 166.694 54.774 170.751 55.1316C176.432 55.6325 181.226 59.5807 182.819 65.057C183.957 68.9684 186.762 72.1881 190.483 73.8456C195.694 76.1672 198.948 81.4584 198.679 87.1574C198.487 91.2281 200.095 95.1845 203.077 97.9622C207.254 101.853 208.617 107.912 206.513 113.22C205.011 117.009 205.251 121.272 207.17 124.869C209.859 129.907 209.186 136.079 205.473 140.418C202.822 143.515 201.669 147.626 202.318 151.65C203.227 157.285 200.589 162.908 195.672 165.804C192.161 167.871 189.736 171.387 189.046 175.403C188.079 181.024 183.76 185.488 178.171 186.628C174.181 187.442 170.748 189.978 168.793 193.551C166.056 198.555 160.522 201.373 154.867 200.633C150.829 200.105 146.762 201.386 143.754 204.131C139.54 207.976 133.394 208.84 128.285 206.302C124.638 204.49 120.378 204.378 116.641 205.997C111.407 208.264 105.314 207.08 101.307 203.02C98.4464 200.121 94.4518 198.629 90.3921 198.945C84.7063 199.388 79.3277 196.284 76.8561 191.144C75.091 187.474 71.7955 184.761 67.8529 183.739C62.3312 182.309 58.2517 177.625 57.5805 171.96C57.1011 167.914 54.8641 164.276 51.4662 162.028C46.7068 158.878 44.3671 153.125 45.5694 147.546C46.4282 143.561 45.492 139.395 43.0074 136.164C39.5264 131.637 39.177 125.437 42.1258 120.547C44.2308 117.056 44.6934 112.811 43.3915 108.948C41.5683 103.538 43.2464 97.5588 47.6216 93.8914C50.7448 91.2736 52.558 87.4068 52.5791 83.3317C52.6088 77.6264 56.1349 72.5127 61.4609 70.4671C65.2636 69.0066 68.2329 65.9381 69.5738 62.0915C71.4512 56.7062 76.4457 53.0142 82.1453 52.8114C86.215 52.6666 90.0174 50.7313 92.5329 47.5289C96.056 43.0437 101.977 41.1769 107.433 42.8384C111.329 44.0246 115.549 43.4325 118.968 41.2207Z" fill="url(#paint0_linear_128_521)"/>
<path d="M121.141 44.5791C124.545 42.3764 128.955 42.4919 132.239 44.8697C136.492 47.9484 141.887 48.9956 146.982 47.731C150.913 46.7556 155.048 48.2996 157.383 51.6156L160.654 49.3127L157.383 51.6156C160.405 55.9069 165.168 58.655 170.399 59.1162C174.433 59.4718 177.845 62.278 178.978 66.1742C180.444 71.2132 184.057 75.3622 188.855 77.4995C192.558 79.1489 194.875 82.9126 194.683 86.9688C194.436 92.2118 196.507 97.3083 200.351 100.889C203.321 103.656 204.292 107.968 202.795 111.745C200.86 116.627 201.168 122.118 203.641 126.752C205.555 130.338 205.075 134.73 202.433 137.817C199.018 141.809 197.533 147.105 198.369 152.287C199.016 156.298 197.138 160.299 193.642 162.357C189.115 165.023 185.993 169.553 185.104 174.725C184.416 178.725 181.342 181.899 177.372 182.709C172.226 183.758 167.802 187.028 165.284 191.632C163.337 195.19 159.401 197.192 155.386 196.667C150.179 195.986 144.936 197.638 141.058 201.176C138.063 203.909 133.694 204.523 130.065 202.72C125.363 200.383 119.869 200.239 115.051 202.327C111.333 203.937 107.002 203.096 104.154 200.21C100.467 196.474 95.317 194.55 90.0818 194.957C86.0446 195.271 82.2189 193.066 80.461 189.411C78.1866 184.681 73.9406 181.184 68.8561 179.867C64.9344 178.851 62.0304 175.52 61.5527 171.489C60.9352 166.278 58.0545 161.591 53.6735 158.692L51.4662 162.028L53.6735 158.692C50.2905 156.453 48.6238 152.36 49.4797 148.389C50.5857 143.257 49.3806 137.89 46.1784 133.726C43.7017 130.505 43.4527 126.093 45.5513 122.612C48.2636 118.114 48.859 112.647 47.182 107.671C45.8844 103.82 47.0796 99.565 50.1911 96.957C54.2172 93.5823 56.5518 88.6012 56.5791 83.3525C56.6002 79.2918 59.111 75.6545 62.8951 74.2012C67.7987 72.3178 71.6235 68.3636 73.3509 63.4082C74.6866 59.5767 78.2404 56.9529 82.2876 56.8089C87.536 56.6221 92.4365 54.1271 95.6785 49.9998L92.5329 47.5289L95.6785 49.9998C98.1837 46.8105 102.394 45.485 106.268 46.6649C111.291 48.1944 116.733 47.431 121.141 44.5791Z" stroke="white" stroke-width="8"/>
</g>
<path d="M80.4898 79.2501L78.1034 90.9798C77.908 91.9401 77.9583 92.7463 78.2542 93.3984C78.5737 94.0349 79.2038 94.4488 80.1446 94.6402C81.0853 94.8316 81.8369 94.6988 82.3993 94.2417C82.9657 93.7651 83.3466 93.0466 83.542 92.0863L85.9284 80.3566L92.4253 81.6784L90.0389 93.4081C89.6361 95.3875 88.8797 96.9991 87.7694 98.2427C86.6632 99.4667 85.323 100.286 83.7487 100.7C82.1745 101.115 80.5054 101.143 78.7416 100.784C76.9777 100.425 75.4816 99.7532 74.2533 98.7686C73.0445 97.7879 72.1995 96.524 71.7183 94.977C71.237 93.43 71.1998 91.657 71.6065 89.658L73.9929 77.9283L80.4898 79.2501ZM114.494 107.844L107.968 106.516L103.189 94.6446L101.06 105.11L94.5333 103.782L98.7678 82.9688L105.294 84.2966L110.037 96.3441L112.203 85.7021L118.729 87.0299L114.494 107.844ZM133.877 90.1119C136.053 90.5545 137.864 91.3823 139.311 92.5952C140.778 93.812 141.793 95.2941 142.356 97.0414C142.919 98.7887 142.997 100.662 142.591 102.661C142.188 104.64 141.384 106.334 140.179 107.742C138.974 109.15 137.455 110.147 135.621 110.734C133.811 111.304 131.818 111.368 129.643 110.926L120.971 109.161L125.205 88.3475L133.877 90.1119ZM130.239 104.985C131.709 105.284 132.957 105.12 133.983 104.492C135.009 103.864 135.673 102.805 135.976 101.315C136.279 99.8257 136.081 98.5915 135.382 97.6125C134.683 96.6335 133.599 95.9945 132.129 95.6955L130.571 95.3785L128.681 104.668L130.239 104.985ZM156.048 100.041L155.528 102.599L161.995 103.915L160.996 108.824L154.529 107.508L153.931 110.448L161.28 111.943L160.221 117.147L146.346 114.324L150.58 93.5101L164.456 96.3332L163.397 101.537L156.048 100.041ZM176.674 120.494L174.284 112.232L174.254 112.226L172.735 119.693L166.209 118.365L170.443 97.5513L180.144 99.5251C181.83 99.868 183.209 100.465 184.281 101.316C185.356 102.147 186.083 103.142 186.459 104.3C186.859 105.443 186.928 106.661 186.665 107.954C186.382 109.346 185.739 110.501 184.735 111.419C183.752 112.342 182.487 112.89 180.941 113.066L183.847 121.954L176.674 120.494ZM175.139 107.875L177.726 108.401C178.353 108.529 178.852 108.487 179.221 108.277C179.595 108.046 179.843 107.628 179.967 107.02C180.078 106.471 179.999 106.006 179.73 105.625C179.48 105.248 179.052 104.997 178.444 104.873L175.857 104.347L175.139 107.875ZM73.5062 106.411C74.6665 106.647 75.6336 107.083 76.4076 107.72C77.1815 108.356 77.7187 109.14 78.0189 110.072C78.3317 110.996 78.3775 112.001 78.1564 113.088C77.9373 114.165 77.5023 115.072 76.8514 115.811C76.2109 116.551 75.4049 117.062 74.4333 117.343C73.4722 117.627 72.4167 117.651 71.2669 117.418L67.1434 116.579L69.3827 105.572L73.5062 106.411ZM71.5666 115.062C72.5805 115.268 73.426 115.152 74.1031 114.713C74.7803 114.274 75.222 113.547 75.4283 112.533C75.6345 111.519 75.5129 110.673 75.0633 109.993C74.6137 109.314 73.8819 108.871 72.868 108.665L71.5981 108.407L70.2966 114.804L71.5666 115.062ZM83.0184 110.583L82.5654 112.81L86.1559 113.54L85.7348 115.61L82.1444 114.879L81.6531 117.294L85.7139 118.12L85.2769 120.268L78.535 118.896L80.7743 107.89L87.5162 109.261L87.0792 111.409L83.0184 110.583ZM99.5891 111.718L93.4458 121.93L90.0905 121.247L88.4258 109.446L91.2794 110.027L92.3168 118.892L96.7513 111.14L99.5891 111.718ZM102.954 114.639L102.501 116.866L106.091 117.596L105.67 119.666L102.08 118.935L101.588 121.35L105.649 122.176L105.212 124.324L98.4704 122.952L100.71 111.946L107.452 113.317L107.015 115.465L102.954 114.639ZM110.055 123.154L113.567 123.868L113.146 125.938L106.953 124.678L109.192 113.671L111.873 114.217L110.055 123.154ZM119.608 127.367C118.573 127.156 117.671 126.722 116.901 126.065C116.142 125.41 115.593 124.602 115.255 123.64C114.93 122.671 114.877 121.648 115.096 120.571C115.315 119.494 115.763 118.579 116.439 117.824C117.125 117.071 117.946 116.541 118.901 116.235C119.866 115.93 120.867 115.883 121.901 116.094C122.936 116.304 123.833 116.737 124.592 117.392C125.362 118.05 125.905 118.857 126.222 119.814C126.55 120.773 126.604 121.791 126.385 122.868C126.166 123.944 125.717 124.865 125.039 125.631C124.363 126.386 123.547 126.917 122.592 127.223C121.637 127.529 120.643 127.577 119.608 127.367ZM120.105 124.921C120.983 125.1 121.743 124.949 122.385 124.47C123.037 123.994 123.461 123.274 123.657 122.313C123.855 121.341 123.745 120.513 123.329 119.83C122.926 119.138 122.285 118.703 121.407 118.524C120.518 118.343 119.749 118.486 119.099 118.953C118.46 119.421 118.04 120.147 117.84 121.129C117.642 122.101 117.745 122.933 118.149 123.625C118.565 124.308 119.217 124.74 120.105 124.921ZM136.657 122.949C136.527 123.587 136.262 124.142 135.861 124.616C135.462 125.079 134.926 125.411 134.254 125.612C133.582 125.812 132.796 125.821 131.897 125.638L130.235 125.3L129.431 129.251L126.75 128.706L128.99 117.699L133.333 118.583C134.211 118.762 134.922 119.064 135.467 119.491C136.011 119.917 136.381 120.428 136.575 121.022C136.77 121.617 136.797 122.259 136.657 122.949ZM132.127 123.465C132.639 123.569 133.045 123.526 133.345 123.337C133.645 123.147 133.839 122.833 133.929 122.394C134.018 121.955 133.962 121.59 133.76 121.299C133.558 121.007 133.201 120.809 132.689 120.705L131.231 120.408L130.669 123.168L132.127 123.465ZM151.238 122.226L148.999 133.232L146.318 132.687L147.661 126.086L143.856 132.186L141.693 131.746L140.562 124.625L139.215 131.242L136.534 130.696L138.774 119.69L141.941 120.334L143.479 128.583L148.087 121.585L151.238 122.226ZM155.41 125.312L154.957 127.538L158.548 128.268L158.127 130.338L154.536 129.608L154.045 132.022L158.106 132.848L157.669 134.996L150.927 133.625L153.166 122.618L159.908 123.99L159.471 126.138L155.41 125.312ZM169.256 137.354L166.575 136.808L163.472 129.107L162.09 135.896L159.409 135.35L161.649 124.344L164.33 124.889L167.426 132.622L168.814 125.802L171.495 126.347L169.256 137.354ZM181.356 128.353L180.919 130.501L178.003 129.908L176.201 138.767L173.52 138.221L175.322 129.363L172.406 128.769L172.843 126.621L181.356 128.353Z" fill="#202020"/>
<path d="M137.649 146.01L103.644 139.092C102.601 138.88 101.583 139.553 101.37 140.597L99.0643 151.932C98.852 152.975 99.5257 153.993 100.569 154.205L134.574 161.123C135.617 161.336 136.635 160.662 136.847 159.619L139.153 148.284C139.366 147.24 138.692 146.222 137.649 146.01Z" stroke="#202020" stroke-width="3.85571" stroke-linecap="round" stroke-linejoin="round"/>
<path d="M127.017 159.586L124.327 172.81" stroke="#202020" stroke-width="3.85571" stroke-linecap="round" stroke-linejoin="round"/>
<path d="M108.126 155.743L105.435 168.967" stroke="#202020" stroke-width="3.85571" stroke-linecap="round" stroke-linejoin="round"/>
<path d="M131.245 138.805L130.092 144.472" stroke="#202020" stroke-width="3.85571" stroke-linecap="round" stroke-linejoin="round"/>
<path d="M112.354 134.961L111.2 140.629" stroke="#202020" stroke-width="3.85571" stroke-linecap="round" stroke-linejoin="round"/>
<path d="M113.793 156.895L102.206 139.389" stroke="#202020" stroke-width="3.85571" stroke-linecap="round" stroke-linejoin="round"/>
<path d="M124.424 143.319L136.011 160.825" stroke="#202020" stroke-width="3.85571" stroke-linecap="round" stroke-linejoin="round"/>
<path d="M113.09 141.013L125.128 159.201" stroke="#202020" stroke-width="3.85571" stroke-linecap="round" stroke-linejoin="round"/>
<defs>
<filter id="filter0_d_128_521" x="0.133301" y="0.00341797" width="268.671" height="268.741" filterUnits="userSpaceOnUse" color-interpolation-filters="sRGB">
<feFlood flood-opacity="0" result="BackgroundImageFix"/>
<feColorMatrix in="SourceAlpha" type="matrix" values="0 0 0 0 0 0 0 0 0 0 0 0 0 0 0 0 0 0 127 0" result="hardAlpha"/>
<feOffset dx="10" dy="11"/>
<feGaussianBlur stdDeviation="25"/>
<feComposite in2="hardAlpha" operator="out"/>
<feColorMatrix type="matrix" values="0 0 0 0 0 0 0 0 0 0 0 0 0 0 0 0 0 0 1 0"/>
<feBlend mode="normal" in2="BackgroundImageFix" result="effect1_dropShadow_128_521"/>
<feBlend mode="normal" in="SourceGraphic" in2="effect1_dropShadow_128_521" result="shape"/>
</filter>
<linearGradient id="paint0_linear_128_521" x1="52.5613" y1="76.0874" x2="174.651" y2="183.485" gradientUnits="userSpaceOnUse">
<stop stop-color="#D6BDB1"/>
<stop offset="0.223958" stop-color="#DDC6F4"/>
<stop offset="0.484375" stop-color="#C8D7F8"/>
<stop offset="0.744792" stop-color="#CEEAF1"/>
<stop offset="1" stop-color="#8BCFE5"/>
</linearGradient>
</defs>
</svg>
