<svg width="272" height="204" viewBox="0 0 272 204" fill="none" xmlns="http://www.w3.org/2000/svg">
<path fill-rule="evenodd" clip-rule="evenodd" d="M152.025 30.3884C150.691 22.2199 142.989 16.6787 134.82 18.0119L81.9161 26.6465C73.7476 27.9797 68.2065 35.6823 69.5397 43.8508L77.4315 92.2041C78.7647 100.373 73.2236 108.075 65.055 109.409L27.5101 115.536C19.3416 116.869 13.8005 124.572 15.1337 132.741L24.3253 189.058C25.6585 197.226 33.3611 202.768 41.5297 201.434L257.128 166.246C265.297 164.913 270.838 157.21 269.505 149.042L260.313 92.7246C258.98 84.5561 251.277 79.0149 243.109 80.3481L177.121 91.1181C168.952 92.4513 161.25 86.9102 159.916 78.7417L152.025 30.3884Z" fill="white"/>
<path d="M139.978 25.6382L78.5978 35.6561C76.0009 36.08 74.223 38.5515 74.6468 41.1483L84.6648 102.529C85.0886 105.125 87.5601 106.903 90.1569 106.479L151.537 96.4615C154.134 96.0377 155.912 93.5662 155.488 90.9694L145.47 29.5892C145.046 26.9923 142.575 25.2144 139.978 25.6382Z" fill="#111111"/>
<path d="M143.564 26.4466C142.544 25.7648 141.276 25.4263 139.978 25.6382L78.5978 35.6561C76.0009 36.08 74.223 38.5515 74.6468 41.1483L84.6648 102.529C84.8767 103.827 85.6005 104.921 86.5713 105.671L94.8683 94.1375L139.723 86.8167C141.671 86.4989 142.945 84.6549 142.637 82.7663L135.316 37.9115L143.564 26.4466Z" fill="#252525"/>
<path d="M95.8033 38.2412C95.5818 36.8838 94.57 36.6248 89.1691 37.688C84.6535 38.6068 82.4975 39.504 81.4098 41.3781C80.322 43.2522 80.517 46.6741 81.113 50.697C81.5753 53.53 82.0088 56.1859 83.4843 55.945C85.491 55.6175 84.73 50.955 85.9587 48.0884C88.3077 42.4336 96.0923 40.0118 95.8033 38.2412Z" fill="#9D9D9D"/>
<path d="M109.282 76.8311L100.169 57.0816L103.451 56.5458L110.096 71.9075L110.288 71.8762L111.865 55.1726L115.118 54.6418L121.925 69.9872L122.117 69.9559L123.521 53.2702L126.814 52.7328L124.443 74.3567L121.302 74.8694L114.419 60.0857L114.258 60.112L112.433 76.3168L109.282 76.8311Z" fill="white"/>
<path d="M86.4716 114.673L25.0914 124.691C22.4946 125.115 20.7166 127.587 21.1405 130.183L31.1584 191.564C31.5823 194.161 34.0537 195.938 36.6506 195.515L98.0308 185.497C100.628 185.073 102.406 182.601 101.982 180.005L91.9638 118.624C91.54 116.027 89.0685 114.25 86.4716 114.673Z" fill="#111111"/>
<path d="M90.0573 115.482C89.0372 114.8 87.7701 114.461 86.4716 114.673L25.0914 124.691C22.4946 125.115 20.7166 127.587 21.1405 130.183L31.1584 191.564C31.3703 192.862 32.0942 193.956 33.0649 194.706L41.3619 183.173L86.2167 175.852C88.1643 175.534 89.4388 173.69 89.1305 171.801L81.8097 126.947L90.0573 115.482Z" fill="#252525"/>
<path d="M42.2971 127.276C42.0755 125.918 41.0638 125.659 35.6629 126.723C31.1473 127.641 28.9913 128.539 27.9035 130.413C26.8158 132.287 27.0108 135.709 27.6068 139.732C28.0691 142.565 28.5026 145.221 29.9781 144.98C31.9847 144.652 31.2238 139.99 32.4525 137.123C34.8015 131.468 42.5861 129.046 42.2971 127.276Z" fill="#9D9D9D"/>
<path d="M56.8824 165.686L53.5694 166.226L57.6374 144.325L61.2433 143.737L72.0635 163.208L68.7505 163.749L60.1394 147.775L59.9778 147.801L56.8824 165.686ZM56.1158 157.494L66.8628 155.74L67.2914 158.366L56.5444 160.12L56.1158 157.494Z" fill="white"/>
<path d="M167.819 101.397L106.439 111.414C103.842 111.838 102.064 114.31 102.488 116.907L112.506 178.287C112.93 180.884 115.401 182.662 117.998 182.238L179.378 172.22C181.975 171.796 183.753 169.325 183.329 166.728L173.311 105.347C172.887 102.751 170.416 100.973 167.819 101.397Z" fill="#111111"/>
<path d="M171.405 102.205C170.384 101.523 169.117 101.185 167.819 101.397L106.439 111.414C103.842 111.838 102.064 114.31 102.488 116.907L112.506 178.287C112.718 179.585 113.441 180.679 114.412 181.429L122.709 169.896L167.564 162.575C169.512 162.257 170.786 160.413 170.478 158.525L163.157 113.67L171.405 102.205Z" fill="#252525"/>
<path d="M123.644 113.999C123.423 112.642 122.411 112.383 117.01 113.446C112.494 114.365 110.338 115.262 109.251 117.136C108.163 119.01 108.358 122.432 108.954 126.455C109.416 129.288 109.85 131.944 111.325 131.703C113.332 131.375 112.571 126.713 113.8 123.846C116.149 118.191 123.933 115.77 123.644 113.999Z" fill="#9D9D9D"/>
<path d="M146.232 135.444C145.968 134.506 145.403 133.838 144.536 133.44C143.668 133.035 142.641 132.93 141.456 133.123C140.608 133.262 139.896 133.516 139.32 133.887C138.743 134.25 138.321 134.693 138.054 135.213C137.792 135.726 137.709 136.275 137.804 136.861C137.884 137.353 138.068 137.758 138.355 138.078C138.649 138.396 139.005 138.646 139.421 138.827C139.844 139 140.287 139.131 140.751 139.222C141.214 139.305 141.655 139.364 142.076 139.399L144.182 139.595C144.868 139.649 145.581 139.757 146.319 139.92C147.058 140.083 147.76 140.342 148.426 140.696C149.093 141.05 149.662 141.531 150.134 142.139C150.614 142.745 150.929 143.513 151.081 144.442C151.272 145.613 151.139 146.703 150.681 147.711C150.23 148.718 149.475 149.578 148.416 150.29C147.364 151.001 146.03 151.488 144.413 151.752C142.865 152.004 141.485 151.977 140.273 151.67C139.062 151.364 138.062 150.811 137.275 150.013C136.487 149.209 135.958 148.189 135.687 146.954L138.819 146.443C139.001 147.181 139.345 147.764 139.851 148.193C140.362 148.614 140.971 148.892 141.677 149.025C142.389 149.151 143.145 149.149 143.947 149.018C144.829 148.874 145.591 148.608 146.232 148.22C146.88 147.823 147.361 147.344 147.677 146.781C147.992 146.211 148.095 145.589 147.985 144.916C147.885 144.303 147.628 143.83 147.214 143.497C146.807 143.162 146.286 142.915 145.652 142.756C145.024 142.596 144.324 142.479 143.552 142.404L140.998 142.136C139.268 141.956 137.847 141.507 136.734 140.79C135.629 140.071 134.958 138.992 134.723 137.551C134.528 136.359 134.682 135.266 135.183 134.271C135.685 133.277 136.447 132.444 137.471 131.772C138.494 131.094 139.699 130.641 141.087 130.415C142.487 130.186 143.763 130.23 144.914 130.547C146.071 130.863 147.03 131.401 147.791 132.162C148.55 132.916 149.033 133.846 149.242 134.953L146.232 135.444Z" fill="white"/>
<path d="M249.166 88.1197L187.786 98.1376C185.189 98.5614 183.411 101.033 183.835 103.63L193.853 165.01C194.277 167.607 196.748 169.385 199.345 168.961L260.725 158.943C263.322 158.519 265.1 156.048 264.676 153.451L254.658 92.0706C254.235 89.4737 251.763 87.6958 249.166 88.1197Z" fill="#111111"/>
<path d="M252.752 88.928C251.732 88.2463 250.465 87.9077 249.166 88.1197L187.786 98.1376C185.189 98.5614 183.411 101.033 183.835 103.63L193.853 165.01C194.065 166.308 194.789 167.402 195.76 168.153L204.056 156.619L248.911 149.298C250.859 148.98 252.133 147.136 251.825 145.248L244.504 100.393L252.752 88.928Z" fill="#252525"/>
<path d="M204.992 100.722C204.77 99.3647 203.758 99.1057 198.357 100.169C193.842 101.088 191.686 101.985 190.598 103.859C189.51 105.733 189.705 109.155 190.301 113.178C190.764 116.011 191.197 118.667 192.673 118.426C194.679 118.098 193.918 113.436 195.147 110.569C197.496 104.915 205.281 102.493 204.992 100.722Z" fill="#9D9D9D"/>
<path d="M224.221 138.374L217.524 139.467L214.148 118.781L221.057 117.653C223.083 117.323 224.892 117.453 226.481 118.044C228.07 118.628 229.377 119.628 230.403 121.043C231.435 122.451 232.126 124.229 232.477 126.377C232.828 128.532 232.737 130.448 232.202 132.125C231.673 133.801 230.737 135.178 229.391 136.255C228.045 137.325 226.322 138.031 224.221 138.374ZM220.2 136.23L223.604 135.675C225.18 135.418 226.441 134.908 227.388 134.145C228.334 133.375 228.974 132.382 229.308 131.166C229.64 129.944 229.673 128.514 229.406 126.878C229.141 125.255 228.657 123.921 227.954 122.874C227.258 121.826 226.353 121.092 225.241 120.672C224.129 120.253 222.818 120.166 221.31 120.412L217.714 120.999L220.2 136.23Z" fill="white"/>
</svg>
