<svg width="36" height="40" viewBox="0 0 36 40" fill="none" xmlns="http://www.w3.org/2000/svg">
<path d="M11.8075 2.22806C12.9428 3.73708 13.4585 4.65987 14.1298 6.38393C14.7566 7.99389 15.1974 9.70272 15.1974 9.70272" stroke="white" stroke-width="3" stroke-linecap="round"/>
<path d="M32.8075 6.87012C32.8075 6.87012 30.8075 8.37046 29.3075 9.87012C28.0857 11.0916 27.1975 12.5726 27.1975 12.5726" stroke="white" stroke-width="3" stroke-linecap="round"/>
<path d="M11.8075 21.8702C11.8075 21.8702 8.80755 22.3702 6.30755 22.3702C4.57985 22.3702 2.00002 21.5728 2.00002 21.5728" stroke="white" stroke-width="3" stroke-linecap="round"/>
<path d="M17.2563 31.3888C17.2563 31.3888 17.875 33.5377 16.7702 35.0682C15.7589 36.4691 14.1658 38.1451 14.1658 38.1451" stroke="white" stroke-width="3" stroke-linecap="round"/>
<path d="M27.506 24.87C27.506 24.87 28.5482 26.1755 30.8075 27.87C32.8075 29.37 33.8075 29.87 33.8075 29.87" stroke="white" stroke-width="3" stroke-linecap="round"/>
</svg>
