<svg width="38" height="40" viewBox="0 0 38 40" fill="none" xmlns="http://www.w3.org/2000/svg">
<path d="M11.8075 2.22806C12.9428 3.73708 13.4585 4.65987 14.1298 6.38393C14.7566 7.99389 15.1974 10.7027 15.1974 10.7027" stroke="white" stroke-width="3" stroke-linecap="round"/>
<path d="M32.8075 6.87012C32.8075 6.87012 31.8075 8.37046 30.3075 9.87012C29.0857 11.0916 27.1975 12.5726 27.1975 12.5726" stroke="white" stroke-width="3" stroke-linecap="round"/>
<path d="M10.8075 21.8701C10.8075 21.8701 8.8075 21.3701 6.3075 21.3701C4.57979 21.3701 1.99997 21.5727 1.99997 21.5727" stroke="white" stroke-width="3" stroke-linecap="round"/>
<path d="M16.615 32.1636C16.615 32.1636 16.615 32.1637 15.8075 34.87C15.3136 36.5255 14.8075 38.3699 14.8075 38.3699" stroke="white" stroke-width="3" stroke-linecap="round"/>
<path d="M30.506 24.8701C30.506 24.8701 30.5482 25.1756 32.8075 26.8701C34.8075 28.3701 35.8075 28.8701 35.8075 28.8701" stroke="white" stroke-width="3" stroke-linecap="round"/>
</svg>
