<svg width="292" height="94" viewBox="0 0 292 94" fill="none" xmlns="http://www.w3.org/2000/svg">
<line x1="38.7984" y1="1.21679" x2="70.1481" y2="92.51" stroke="white" stroke-opacity="0.08" stroke-width="4.82304"/>
<line x1="75.315" y1="1.21679" x2="106.665" y2="92.51" stroke="white" stroke-opacity="0.08" stroke-width="4.82304"/>
<line x1="111.833" y1="1.21679" x2="143.182" y2="92.51" stroke="white" stroke-opacity="0.08" stroke-width="4.82304"/>
<line x1="2.28079" y1="1.56151" x2="33.6305" y2="92.8547" stroke="white" stroke-opacity="0.08" stroke-width="4.82304"/>
<line x1="148.35" y1="1.21679" x2="179.7" y2="92.51" stroke="white" stroke-opacity="0.08" stroke-width="4.82304"/>
<line x1="184.867" y1="1.21679" x2="216.216" y2="92.51" stroke="white" stroke-opacity="0.08" stroke-width="4.82304"/>
<line x1="221.384" y1="1.21679" x2="252.734" y2="92.51" stroke="white" stroke-opacity="0.08" stroke-width="4.82304"/>
<line x1="257.902" y1="1.21679" x2="289.252" y2="92.51" stroke="white" stroke-opacity="0.08" stroke-width="4.82304"/>
<path d="M34.1179 73.1055L34.7573 74.9657H36.7243H48.0929H51.9544L50.6992 71.3138L33.9564 22.6011L33.317 20.7409H31.35H19.9814H16.1199L17.3751 24.3928L34.1179 73.1055ZM79.4948 74.8279H81.4711L82.1052 72.956L84.365 66.2842H98.4642L100.724 72.956L101.358 74.8279H103.334H115.805H118.376H119.733H121.132H132.914H135.67V72.0718V51.4111L150.32 73.5908L151.137 74.8279H152.619H164.401H167.157V72.0718V23.7037V20.9476H164.401H152.619H149.863V23.7037V44.4668L135.217 22.1896L134.4 20.9476H132.914H121.132H118.376V23.7037V71.0753L100.896 22.766L100.238 20.9476H98.3047H84.6624H82.7287L82.0708 22.766L64.57 71.1341L63.2336 74.8279H67.1616H79.4948ZM171.961 67.3648L171.972 67.3793L171.982 67.3938C174.002 70.0682 176.664 72.0602 179.889 73.3818C183.073 74.6869 186.606 75.3102 190.442 75.3102C194.407 75.3102 197.993 74.5818 201.114 73.0211C204.172 71.4922 206.604 69.3756 208.284 66.6391C209.99 63.9357 210.837 60.9237 210.837 57.6716C210.837 54.3193 210.006 51.3153 208.123 48.8866C206.459 46.7392 204.439 45.0616 202.068 43.9015C199.985 42.8609 197.333 41.8059 194.15 40.7296L194.133 40.7237L194.116 40.7181C193.612 40.5552 193.136 40.3957 192.686 40.2398H194.714H207.461H210.36L210.213 37.3447C209.948 32.0926 207.883 27.7744 203.922 24.7017C200.053 21.654 195.106 20.2586 189.34 20.2586C183.653 20.2586 178.757 21.6603 174.896 24.7017C170.9 27.8019 168.945 32.1545 168.945 37.4149C168.945 40.8749 169.762 43.9667 171.639 46.4494C173.304 48.6518 175.334 50.367 177.727 51.5355C179.875 52.5847 182.57 53.5977 185.771 54.5862L185.784 54.5903L185.797 54.5942C187.918 55.2259 189.443 55.7617 190.435 56.198L190.453 56.2059L190.471 56.2136C191.394 56.6043 192.069 57.0632 192.559 57.5534L192.587 57.5812L192.615 57.6083C192.86 57.8399 192.992 58.0886 192.992 58.5673C192.992 59.2274 192.807 59.5381 192.517 59.7854C192.131 60.0705 191.419 60.3587 190.098 60.3587C188.936 60.3587 188.251 60.0624 187.798 59.6789C187.37 59.2767 186.976 58.596 186.845 57.3215L186.591 54.8467H184.104H171.564H168.727L168.809 57.6826C168.915 61.3331 169.932 64.6036 171.961 67.3648ZM191.963 37.6456L192.104 40.0345C190.117 39.3229 188.7 38.6892 187.784 38.1456C187.055 37.7127 186.928 37.3466 186.928 36.8637C186.928 36.0335 187.156 35.8183 187.257 35.7334L187.288 35.7068L187.319 35.6792C187.583 35.4433 188.027 35.21 188.927 35.21C190.042 35.21 190.716 35.5058 191.183 35.9117L191.21 35.9346L191.236 35.9568C191.617 36.2709 191.909 36.7291 191.963 37.6456ZM229.87 23.7037V20.9476H227.114H215.332H212.576V23.7037V72.0718V74.8279H215.332H227.114H229.87V72.0718V23.7037ZM269.964 23.2902V20.5342H267.208H246.538H243.782V23.2902V72.0029V74.7589H246.538H267.208H269.964V72.0029V62.4258V59.6697H267.208H260.318V35.5545H267.208H269.964V32.7985V23.2902ZM89.367 51.6773L91.4296 45.7533L93.5162 51.6773H89.367Z" fill="#0D1116" stroke="url(#paint0_linear_122_29)" stroke-width="5.51204"/>
<defs>
<linearGradient id="paint0_linear_122_29" x1="11.3342" y1="-0.617849" x2="274.879" y2="97.0486" gradientUnits="userSpaceOnUse">
<stop stop-color="#9E97F8"/>
<stop offset="0.359375" stop-color="#ECBFA8"/>
<stop offset="0.682292" stop-color="#B0E2EE"/>
<stop offset="1" stop-color="#71C992"/>
</linearGradient>
</defs>
</svg>
