<svg width="207" height="262" viewBox="0 0 207 262" fill="none" xmlns="http://www.w3.org/2000/svg">
<mask id="path-1-outside-1_306_22" maskUnits="userSpaceOnUse" x="-0.67276" y="-0.034668" width="208" height="262" fill="black">
<rect fill="white" x="-0.67276" y="-0.034668" width="208" height="262"/>
<path d="M96.9442 254.101C85.7965 252.386 75.5393 244.9 70.4601 234.774L69.1739 232.268L67.4258 232.07C56.7399 230.784 46.0539 223.231 40.9418 213.237C39.2927 210.071 38.0394 206.179 37.3798 202.354L36.951 199.715L33.9497 198.99C30.4207 198.132 26.232 196.252 22.9009 194.009C19.9326 192.03 15.645 187.842 13.6002 184.972C11.4234 181.872 9.21364 176.991 8.19122 173.033C7.36668 169.933 7.30072 169.207 7.3337 163.238C7.36668 157.301 7.43264 156.542 8.25718 153.508C9.34556 149.451 11.7862 144.339 13.93 141.47C14.8205 140.283 17.1292 137.677 19.0421 135.665C22.802 131.74 24.7479 128.838 26.298 124.814C27.7162 121.219 28.178 118.284 28.3758 111.787C28.7386 100.441 30.3877 92.4266 34.3455 83.0928C37.7756 74.9794 43.1515 66.9649 49.6159 60.4016L53.1449 56.8066L51.3309 55.6853C50.3415 55.0586 48.1647 53.2446 46.5486 51.5956C41.9312 47.0112 40.447 43.6141 40.447 37.6444C40.447 32.4004 41.6344 29.1682 44.9655 25.2434C54.2333 14.2276 77.881 7.46643 105.091 7.99413C114.919 8.19202 119.701 8.5878 126.43 9.70916C147.043 13.2052 161.258 21.1207 164.82 31.1471C165.71 33.6537 166.007 38.7658 165.48 41.5692C164.457 46.7143 160.829 51.6615 155.453 55.2235C154.431 55.9161 153.573 56.5758 153.573 56.6747C153.573 56.8066 155.057 58.3568 156.904 60.1707C170.823 73.99 178.639 92.8223 178.639 112.71C178.639 122.407 181.245 128.673 188.303 136.127C193.778 141.899 196.053 145.494 197.933 151.232C199.417 155.784 199.846 159.181 199.648 164.887C199.451 170.395 198.923 172.967 197.142 177.618C193.085 188.139 183.454 196.45 172.406 199.088C171.086 199.385 169.965 199.814 169.899 200.012C169.866 200.177 169.635 201.397 169.404 202.65C169.207 203.937 168.712 206.015 168.349 207.268C167.59 209.873 164.787 215.843 163.897 216.832C163.567 217.195 162.907 218.02 162.478 218.646C160.038 222.11 154.299 226.727 149.78 228.904C147.142 230.157 141.931 231.839 140.579 231.839C140.216 231.839 139.358 232.004 138.699 232.169C137.61 232.466 137.346 232.795 136.258 235.005C131.839 243.943 122.901 251.001 113.006 253.442C108.62 254.497 101.496 254.794 96.9442 254.101ZM107.465 237.07C114.029 235.454 119.602 228.376 121.383 221.516C122.076 218.844 122.802 217.492 124.22 216.206C125.836 214.755 126.99 214.458 132.135 214.227C138.534 213.93 142.096 212.413 146.153 208.257C150.275 204.036 153.792 199.9 153 195.217C152.571 192.546 152.802 189.511 153.561 187.862C154.451 186.048 156.562 184.201 158.409 183.641C159.398 183.344 161.377 183.146 163.389 183.179C169.26 183.179 171.515 180.223 175.704 176.1C180.057 171.846 182.135 166.239 181.311 161.127C180.651 157.07 178.837 153.904 174.681 149.55C168.481 143.02 165.348 137.941 162.808 130.289C161.126 125.309 160.532 121.417 160.137 113.139C159.972 109.412 159.741 105.916 159.642 105.355C158.29 98.1983 157.003 94.1746 154.2 88.6007C149.418 79.0361 142.986 71.7802 133.85 65.6457C131.047 63.7657 124.715 60.6325 121.12 59.3792C110.17 55.5204 97.274 55.4544 86.0603 59.2143C82.1685 60.5006 74.6158 64.3594 71.1198 66.866C66.9971 69.7683 59.3124 77.42 57.7953 80.0915C57.6304 80.3884 57.3995 80.6852 57.2676 80.7841C56.1462 81.6746 50.3415 92.5255 50.3415 93.7128C50.3415 93.9767 50.2096 94.3065 50.0776 94.4714C49.6818 94.9332 48.4615 98.9569 47.8679 101.892C47.0763 105.586 46.3837 112.776 46.3837 117.097C46.3837 122.176 45.889 125.045 44.009 130.751C41.7663 137.677 38.4022 143.02 32.3006 149.451C29.2663 152.618 28.3758 153.805 27.2875 156.048C24.7479 161.325 24.7479 165.414 27.3204 170.823C28.3759 173.066 29.1674 174.122 31.1793 176.1C35.3349 180.19 37.8541 183.245 43.6259 183.179C47.3858 183.146 48.8699 183.476 50.552 184.63C53.3884 186.609 54.4438 189.742 53.9161 194.689C53.2894 200.56 56.542 204.069 60.8955 208.422C65.0182 212.578 69.5367 214.359 76.001 214.359C79.7609 214.359 80.9153 214.689 82.7292 216.305C84.0815 217.492 84.8071 218.877 85.4997 221.549C87.3136 228.739 93.2173 235.784 100.638 237.367C103.046 237.895 104.365 237.829 107.465 237.07ZM74.1211 43.713C77.0894 42.3938 82.6633 42.0843 86.621 41.2268C92.9535 39.8086 96.0208 39.5777 105.816 39.7756C113.93 39.9075 115.216 40.0065 118.91 40.798C122.736 41.6226 129.167 42.1959 132.96 43.746C134.642 44.4386 134.642 44.4386 136.423 43.812C139.457 42.7565 143.646 40.5138 145.262 39.0296L146.812 37.6444L146.153 36.9188C144.174 34.6431 137.017 31.279 130.75 29.6629C122.373 27.4861 112.808 26.3318 102.947 26.3318C88.1052 26.2988 74.3519 28.8714 65.348 33.3568C62.6765 34.6761 59.2465 37.0508 59.2465 37.5455C59.2465 38.0732 61.4562 39.8212 63.7649 41.1075C66.2715 42.4927 70.9878 44.5046 71.8124 44.5046C72.1092 44.5046 73.1646 44.1418 74.1211 43.713Z"/>
</mask>
<path d="M96.9442 254.101C85.7965 252.386 75.5393 244.9 70.4601 234.774L69.1739 232.268L67.4258 232.07C56.7399 230.784 46.0539 223.231 40.9418 213.237C39.2927 210.071 38.0394 206.179 37.3798 202.354L36.951 199.715L33.9497 198.99C30.4207 198.132 26.232 196.252 22.9009 194.009C19.9326 192.03 15.645 187.842 13.6002 184.972C11.4234 181.872 9.21364 176.991 8.19122 173.033C7.36668 169.933 7.30072 169.207 7.3337 163.238C7.36668 157.301 7.43264 156.542 8.25718 153.508C9.34556 149.451 11.7862 144.339 13.93 141.47C14.8205 140.283 17.1292 137.677 19.0421 135.665C22.802 131.74 24.7479 128.838 26.298 124.814C27.7162 121.219 28.178 118.284 28.3758 111.787C28.7386 100.441 30.3877 92.4266 34.3455 83.0928C37.7756 74.9794 43.1515 66.9649 49.6159 60.4016L53.1449 56.8066L51.3309 55.6853C50.3415 55.0586 48.1647 53.2446 46.5486 51.5956C41.9312 47.0112 40.447 43.6141 40.447 37.6444C40.447 32.4004 41.6344 29.1682 44.9655 25.2434C54.2333 14.2276 77.881 7.46643 105.091 7.99413C114.919 8.19202 119.701 8.5878 126.43 9.70916C147.043 13.2052 161.258 21.1207 164.82 31.1471C165.71 33.6537 166.007 38.7658 165.48 41.5692C164.457 46.7143 160.829 51.6615 155.453 55.2235C154.431 55.9161 153.573 56.5758 153.573 56.6747C153.573 56.8066 155.057 58.3568 156.904 60.1707C170.823 73.99 178.639 92.8223 178.639 112.71C178.639 122.407 181.245 128.673 188.303 136.127C193.778 141.899 196.053 145.494 197.933 151.232C199.417 155.784 199.846 159.181 199.648 164.887C199.451 170.395 198.923 172.967 197.142 177.618C193.085 188.139 183.454 196.45 172.406 199.088C171.086 199.385 169.965 199.814 169.899 200.012C169.866 200.177 169.635 201.397 169.404 202.65C169.207 203.937 168.712 206.015 168.349 207.268C167.59 209.873 164.787 215.843 163.897 216.832C163.567 217.195 162.907 218.02 162.478 218.646C160.038 222.11 154.299 226.727 149.78 228.904C147.142 230.157 141.931 231.839 140.579 231.839C140.216 231.839 139.358 232.004 138.699 232.169C137.61 232.466 137.346 232.795 136.258 235.005C131.839 243.943 122.901 251.001 113.006 253.442C108.62 254.497 101.496 254.794 96.9442 254.101ZM107.465 237.07C114.029 235.454 119.602 228.376 121.383 221.516C122.076 218.844 122.802 217.492 124.22 216.206C125.836 214.755 126.99 214.458 132.135 214.227C138.534 213.93 142.096 212.413 146.153 208.257C150.275 204.036 153.792 199.9 153 195.217C152.571 192.546 152.802 189.511 153.561 187.862C154.451 186.048 156.562 184.201 158.409 183.641C159.398 183.344 161.377 183.146 163.389 183.179C169.26 183.179 171.515 180.223 175.704 176.1C180.057 171.846 182.135 166.239 181.311 161.127C180.651 157.07 178.837 153.904 174.681 149.55C168.481 143.02 165.348 137.941 162.808 130.289C161.126 125.309 160.532 121.417 160.137 113.139C159.972 109.412 159.741 105.916 159.642 105.355C158.29 98.1983 157.003 94.1746 154.2 88.6007C149.418 79.0361 142.986 71.7802 133.85 65.6457C131.047 63.7657 124.715 60.6325 121.12 59.3792C110.17 55.5204 97.274 55.4544 86.0603 59.2143C82.1685 60.5006 74.6158 64.3594 71.1198 66.866C66.9971 69.7683 59.3124 77.42 57.7953 80.0915C57.6304 80.3884 57.3995 80.6852 57.2676 80.7841C56.1462 81.6746 50.3415 92.5255 50.3415 93.7128C50.3415 93.9767 50.2096 94.3065 50.0776 94.4714C49.6818 94.9332 48.4615 98.9569 47.8679 101.892C47.0763 105.586 46.3837 112.776 46.3837 117.097C46.3837 122.176 45.889 125.045 44.009 130.751C41.7663 137.677 38.4022 143.02 32.3006 149.451C29.2663 152.618 28.3758 153.805 27.2875 156.048C24.7479 161.325 24.7479 165.414 27.3204 170.823C28.3759 173.066 29.1674 174.122 31.1793 176.1C35.3349 180.19 37.8541 183.245 43.6259 183.179C47.3858 183.146 48.8699 183.476 50.552 184.63C53.3884 186.609 54.4438 189.742 53.9161 194.689C53.2894 200.56 56.542 204.069 60.8955 208.422C65.0182 212.578 69.5367 214.359 76.001 214.359C79.7609 214.359 80.9153 214.689 82.7292 216.305C84.0815 217.492 84.8071 218.877 85.4997 221.549C87.3136 228.739 93.2173 235.784 100.638 237.367C103.046 237.895 104.365 237.829 107.465 237.07ZM74.1211 43.713C77.0894 42.3938 82.6633 42.0843 86.621 41.2268C92.9535 39.8086 96.0208 39.5777 105.816 39.7756C113.93 39.9075 115.216 40.0065 118.91 40.798C122.736 41.6226 129.167 42.1959 132.96 43.746C134.642 44.4386 134.642 44.4386 136.423 43.812C139.457 42.7565 143.646 40.5138 145.262 39.0296L146.812 37.6444L146.153 36.9188C144.174 34.6431 137.017 31.279 130.75 29.6629C122.373 27.4861 112.808 26.3318 102.947 26.3318C88.1052 26.2988 74.3519 28.8714 65.348 33.3568C62.6765 34.6761 59.2465 37.0508 59.2465 37.5455C59.2465 38.0732 61.4562 39.8212 63.7649 41.1075C66.2715 42.4927 70.9878 44.5046 71.8124 44.5046C72.1092 44.5046 73.1646 44.1418 74.1211 43.713Z" stroke="white" stroke-width="14.3857" mask="url(#path-1-outside-1_306_22)"/>
<path d="M40.1666 95.0253L68.3243 56.5156L51.7609 42.4366L54.2454 26.2873L101.865 17.1777L151.555 30.8424L151.969 42.8509L128.78 52.7888L158.595 78.8761L177.642 137.262L190.479 166.662L164.806 194.82L135.406 225.048L102.693 246.994L84.8876 232.915L48.4482 207.242L37.6821 193.991L17.392 174.529L17.8061 152.169L32.7131 136.02L40.1666 95.0253Z" fill="url(#paint0_linear_306_22)"/>
<path d="M96.9442 254.101C85.7965 252.386 75.5393 244.9 70.4601 234.774L69.1739 232.268L67.4258 232.07C56.7399 230.784 46.0539 223.231 40.9418 213.237C39.2927 210.071 38.0394 206.179 37.3798 202.354L36.951 199.715L33.9497 198.99C30.4207 198.132 26.232 196.252 22.9009 194.009C19.9326 192.03 15.645 187.842 13.6002 184.972C11.4234 181.872 9.21364 176.991 8.19122 173.033C7.36668 169.933 7.30072 169.207 7.3337 163.238C7.36668 157.301 7.43264 156.542 8.25718 153.508C9.34556 149.451 11.7862 144.339 13.93 141.47C14.8205 140.283 17.1292 137.677 19.0421 135.665C22.802 131.74 24.7479 128.838 26.298 124.814C27.7162 121.219 28.178 118.284 28.3758 111.787C28.7386 100.441 30.3877 92.4266 34.3455 83.0928C37.7756 74.9794 43.1515 66.9649 49.6159 60.4016L53.1449 56.8066L51.3309 55.6853C50.3415 55.0586 48.1647 53.2446 46.5486 51.5956C41.9312 47.0112 40.447 43.6141 40.447 37.6444C40.447 32.4004 41.6344 29.1682 44.9655 25.2434C54.2333 14.2276 77.881 7.46643 105.091 7.99413C114.919 8.19202 119.701 8.5878 126.43 9.70916C147.043 13.2052 161.258 21.1207 164.82 31.1471C165.71 33.6537 166.007 38.7658 165.48 41.5692C164.457 46.7143 160.829 51.6615 155.453 55.2235C154.431 55.9161 153.573 56.5758 153.573 56.6747C153.573 56.8066 155.057 58.3568 156.904 60.1707C170.823 73.99 178.639 92.8223 178.639 112.71C178.639 122.407 181.245 128.673 188.303 136.127C193.778 141.899 196.053 145.494 197.933 151.232C199.417 155.784 199.846 159.181 199.648 164.887C199.451 170.395 198.923 172.967 197.142 177.618C193.085 188.139 183.454 196.45 172.406 199.088C171.086 199.385 169.965 199.814 169.899 200.012C169.866 200.177 169.635 201.397 169.404 202.65C169.207 203.937 168.712 206.015 168.349 207.268C167.59 209.873 164.787 215.843 163.897 216.832C163.567 217.195 162.907 218.02 162.478 218.646C160.038 222.11 154.299 226.727 149.78 228.904C147.142 230.157 141.931 231.839 140.579 231.839C140.216 231.839 139.358 232.004 138.699 232.169C137.61 232.466 137.346 232.795 136.258 235.005C131.839 243.943 122.901 251.001 113.006 253.442C108.62 254.497 101.496 254.794 96.9442 254.101ZM107.465 237.07C114.029 235.454 119.602 228.376 121.383 221.516C122.076 218.844 122.802 217.492 124.22 216.206C125.836 214.755 126.99 214.458 132.135 214.227C138.534 213.93 142.096 212.413 146.153 208.257C150.275 204.036 153.792 199.9 153 195.217C152.571 192.546 152.802 189.511 153.561 187.862C154.451 186.048 156.562 184.201 158.409 183.641C159.398 183.344 161.377 183.146 163.389 183.179C169.26 183.179 171.515 180.223 175.704 176.1C180.057 171.846 182.135 166.239 181.311 161.127C180.651 157.07 178.837 153.904 174.681 149.55C168.481 143.02 165.348 137.941 162.808 130.289C161.126 125.309 160.532 121.417 160.137 113.139C159.972 109.412 159.741 105.916 159.642 105.355C158.29 98.1983 157.003 94.1746 154.2 88.6007C149.418 79.0361 142.986 71.7802 133.85 65.6457C131.047 63.7657 124.715 60.6325 121.12 59.3792C110.17 55.5204 97.274 55.4544 86.0603 59.2143C82.1685 60.5006 74.6158 64.3594 71.1198 66.866C66.9971 69.7683 59.3124 77.42 57.7953 80.0915C57.6304 80.3884 57.3995 80.6852 57.2676 80.7841C56.1462 81.6746 50.3415 92.5255 50.3415 93.7128C50.3415 93.9767 50.2096 94.3065 50.0776 94.4714C49.6818 94.9332 48.4615 98.9569 47.8679 101.892C47.0763 105.586 46.3837 112.776 46.3837 117.097C46.3837 122.176 45.889 125.045 44.009 130.751C41.7663 137.677 38.4022 143.02 32.3006 149.451C29.2663 152.618 28.3758 153.805 27.2875 156.048C24.7479 161.325 24.7479 165.414 27.3204 170.823C28.3759 173.066 29.1674 174.122 31.1793 176.1C35.3349 180.19 37.8541 183.245 43.6259 183.179C47.3858 183.146 48.8699 183.476 50.552 184.63C53.3884 186.609 54.4438 189.742 53.9161 194.689C53.2894 200.56 56.542 204.069 60.8955 208.422C65.0182 212.578 69.5367 214.359 76.001 214.359C79.7609 214.359 80.9153 214.689 82.7292 216.305C84.0815 217.492 84.8071 218.877 85.4997 221.549C87.3136 228.739 93.2173 235.784 100.638 237.367C103.046 237.895 104.365 237.829 107.465 237.07ZM74.1211 43.713C77.0894 42.3938 82.6633 42.0843 86.621 41.2268C92.9535 39.8086 96.0208 39.5777 105.816 39.7756C113.93 39.9075 115.216 40.0065 118.91 40.798C122.736 41.6226 129.167 42.1959 132.96 43.746C134.642 44.4386 134.642 44.4386 136.423 43.812C139.457 42.7565 143.646 40.5138 145.262 39.0296L146.812 37.6444L146.153 36.9188C144.174 34.6431 137.017 31.279 130.75 29.6629C122.373 27.4861 112.808 26.3318 102.947 26.3318C88.1052 26.2988 74.3519 28.8714 65.348 33.3568C62.6765 34.6761 59.2465 37.0508 59.2465 37.5455C59.2465 38.0732 61.4562 39.8212 63.7649 41.1075C66.2715 42.4927 70.9878 44.5046 71.8124 44.5046C72.1092 44.5046 73.1646 44.1418 74.1211 43.713Z" fill="#040404"/>
<path d="M65.1514 132.186C63.7641 131.576 61.734 129.377 61.0911 127.855C60.7866 127.11 60.5836 125.588 60.5836 124.2C60.5836 121.02 61.4295 119.328 64.5424 116.181L67.0123 113.678L64.4408 110.903C61.2942 107.553 60.5836 106.031 60.5836 102.85C60.5836 99.9404 61.4295 97.978 63.4935 96.1509C65.1514 94.696 66.0988 94.4253 69.2116 94.4253C72.8997 94.4253 73.3395 94.6283 76.6892 97.8765L79.7683 100.854L82.4412 98.2825C85.8248 95.0005 87.009 94.4253 90.5279 94.4253C93.8438 94.4253 95.4678 95.102 97.2273 97.1321C98.716 98.8577 99.3251 101.395 98.9867 104.17C98.6484 107.012 98.3438 107.486 95.2648 110.666L92.3888 113.576L94.9603 116.08C98.4115 119.497 98.9867 120.614 98.9867 124.031C98.9867 127.381 98.4454 129.005 96.7536 130.595C95.1633 132.152 93.5731 132.659 90.1557 132.659C87.8211 132.659 87.2459 132.524 85.7571 131.678C84.8097 131.103 83.0841 129.648 81.9676 128.362L79.9036 126.061L77.0614 128.87C75.4712 130.392 73.6441 131.881 73.0012 132.152C71.4448 132.795 66.5725 132.795 65.1514 132.186Z" fill="#040404"/>
<path d="M112.094 131.991C108.541 130.129 106.984 125.831 108.101 121.263C108.439 120.044 109.116 119.097 111.485 116.626L114.463 113.513L111.925 110.975C108.643 107.76 107.966 106.474 107.932 103.394C107.898 100.044 108.236 98.7914 109.658 97.1331C111.384 95.1364 113.042 94.4258 116.291 94.4258C119.81 94.4258 120.893 94.9334 124.244 98.2499L127.019 101.025L129.828 98.2499C131.351 96.727 133.178 95.238 133.855 94.9334C135.581 94.2227 140.217 94.2565 141.673 94.9672C145.564 96.9301 147.223 101.397 145.801 106.169C145.395 107.489 144.718 108.47 142.519 110.772L139.71 113.716L142.62 116.66C144.955 119.097 145.598 119.943 145.903 121.229C147.121 125.967 145.294 130.705 141.706 132.194C140.183 132.837 135.446 132.803 133.889 132.16C133.246 131.889 131.418 130.4 129.862 128.877L127.019 126.102L124.548 128.708C121.367 132.024 120.013 132.667 116.189 132.634C114.023 132.634 113.008 132.464 112.094 131.991Z" fill="#040404"/>
<defs>
<linearGradient id="paint0_linear_306_22" x1="194.063" y1="44.6439" x2="36.8518" y2="234.776" gradientUnits="userSpaceOnUse">
<stop stop-color="#9E97F8"/>
<stop offset="0.510417" stop-color="#B0E2EE"/>
<stop offset="1" stop-color="#88CEA2"/>
</linearGradient>
</defs>
</svg>
