<svg width="471" height="167" viewBox="0 0 471 167" fill="none" xmlns="http://www.w3.org/2000/svg">
<path d="M70.3 162V163.5H71.8H128.4H129.9V162V84.0001C129.9 70.0438 126.513 59.1577 119.506 51.5866C112.6 43.9796 102.334 40.3001 89 40.3001C82.4601 40.3001 76.8406 41.3196 72.1966 43.4267C68.3633 45.0543 65.453 46.7193 63.7143 48.4837L64.8899 38.3734L64.9 38.287V38.2001V13.0001V11.5001H63.4H3.79999H2.29999V13.0001V162V163.5H3.79999H60.4H61.9V162V98.6001C61.9 97.3711 62.2937 96.4277 63.0606 95.6608L63.0918 95.6296L63.1211 95.5966C63.9043 94.7156 64.8302 94.3001 66 94.3001C67.1698 94.3001 68.0957 94.7156 68.8789 95.5966L68.9375 95.6626L69.0034 95.7212C69.8845 96.5044 70.3 97.4303 70.3 98.6001V162ZM258.832 86.461L258.833 86.4306V86.4001C258.833 70.7258 253.77 58.9453 243.421 51.3912C233.297 43.9044 217.367 40.3001 195.933 40.3001C185.158 40.3001 175.229 41.5117 166.154 43.9487C161.674 45.0856 157.99 46.1277 155.113 47.0754C152.283 48.0076 150.137 48.8791 148.778 49.7034C146.368 51.0434 144.498 52.2157 143.212 53.2161L142.633 53.6665V54.4001V107V109.629L144.896 108.291L149.296 105.691L149.309 105.684L149.322 105.676C151.933 104.059 156.295 102.371 162.529 100.647C168.794 98.9504 175.327 98.1001 182.133 98.1001C187.199 98.1001 190.791 98.6831 193.062 99.7157C194.18 100.224 194.91 100.81 195.361 101.425C195.532 101.659 195.673 101.909 195.78 102.18C175.314 103.189 160.638 106.036 152.005 110.889C142.914 115.864 138.433 124.356 138.433 136C138.433 145.635 141.283 153.113 147.212 158.144C153.094 163.135 161.756 165.5 172.933 165.5C187.852 165.5 199.327 161.562 207.076 153.459C207.41 154.38 207.865 155.338 208.42 156.327C209.324 157.981 210.589 159.457 212.183 160.761L212.216 160.788L212.251 160.813C213.918 162.026 216.373 163.084 219.496 164.035C222.764 165.03 227.065 165.5 232.333 165.5C237.686 165.5 243.353 164.677 249.327 163.047C255.242 161.434 259.636 159.567 262.293 157.352L262.833 156.903V156.2V110.8V109.239L261.273 109.301L257.898 109.436L258.832 86.461ZM198.072 121.339L198.037 121.375L198.004 121.412C197.418 122.082 196.538 122.5 195.133 122.5C193.916 122.5 192.881 122.112 191.963 121.309C191.239 120.569 190.833 119.581 190.833 118.2V114.537L199.233 112.179V118.2C199.233 119.6 198.815 120.597 198.072 121.339ZM396.173 163.5H397.673V162V13.0001V11.5001H396.173H336.373H334.873V13.0001V44.5817C333.376 43.6312 331.099 42.7748 328.204 41.963C324.701 40.8457 320.752 40.3001 316.373 40.3001C302.042 40.3001 290.653 45.9843 282.363 57.3143C274.111 68.5921 270.073 84.0103 270.073 103.4C270.073 122.652 274.042 137.875 282.166 148.89C290.334 159.965 301.728 165.5 316.173 165.5C324.162 165.5 330.844 163.499 336.099 159.381L336.1 159.38C338.075 157.828 339.892 155.939 341.556 153.724C342.039 153.128 342.484 152.549 342.888 151.988L344.287 162.204L344.465 163.5H345.773H396.173ZM336.777 121.279L336.744 121.308L336.713 121.339C335.97 122.082 334.973 122.5 333.573 122.5C332.364 122.5 331.431 122.119 330.67 121.375C330.046 120.642 329.673 119.63 329.673 118.2V101.4C329.673 100.171 330.067 99.2277 330.834 98.4608L330.865 98.4296L330.895 98.3967C331.678 97.5156 332.604 97.1001 333.773 97.1001C334.943 97.1001 335.869 97.5156 336.652 98.3967L336.711 98.4626L336.777 98.5212C337.658 99.3044 338.073 100.23 338.073 101.4V118.2C338.073 119.543 337.629 120.522 336.777 121.279ZM413.981 8.21952L413.973 8.2257L413.965 8.23198C408.679 12.49 406.206 19.3489 406.206 28.4001C406.206 37.4556 408.681 44.365 413.946 48.7524C419.139 53.0798 427.026 55.1001 437.306 55.1001C447.592 55.1001 455.532 53.0778 460.851 48.7652C466.272 44.3702 468.806 37.242 468.806 27.8001C468.806 19.4067 466.189 12.8718 460.748 8.4826C455.369 4.14314 447.469 2.1001 437.306 2.1001C427.157 2.1001 419.295 4.05466 413.981 8.21952ZM406.206 162V163.5H407.706H467.306H468.806V162V58.2001V56.7001H467.306H407.706H406.206V58.2001V162Z" fill="white" stroke="url(#paint0_linear_136_400)" stroke-width="3"/>
<defs>
<linearGradient id="paint0_linear_136_400" x1="-43.5" y1="-15" x2="474" y2="208.5" gradientUnits="userSpaceOnUse">
<stop stop-color="#9E97F8"/>
<stop offset="0.333333" stop-color="#ECBFA8"/>
<stop offset="0.666667" stop-color="#B0E2EE"/>
<stop offset="1" stop-color="#71C992"/>
</linearGradient>
</defs>
</svg>
